%TF.GenerationSoftware,KiCad,Pcbnew,5.1.9*%
%TF.CreationDate,2021-03-19T17:31:00-04:00*%
%TF.ProjectId,digidraw,64696769-6472-4617-972e-6b696361645f,rev?*%
%TF.SameCoordinates,Original*%
%TF.FileFunction,Legend,Top*%
%TF.FilePolarity,Positive*%
%FSLAX46Y46*%
G04 Gerber Fmt 4.6, Leading zero omitted, Abs format (unit mm)*
G04 Created by KiCad (PCBNEW 5.1.9) date 2021-03-19 17:31:00*
%MOMM*%
%LPD*%
G01*
G04 APERTURE LIST*
%ADD10C,0.150000*%
%ADD11C,0.250000*%
%ADD12C,0.120000*%
%ADD13C,0.400000*%
%ADD14C,0.127000*%
%ADD15C,0.152400*%
%ADD16C,0.100000*%
%ADD17C,0.015000*%
G04 APERTURE END LIST*
D10*
X142235595Y-154553571D02*
X142568928Y-154553571D01*
X142711785Y-155077380D02*
X142235595Y-155077380D01*
X142235595Y-154077380D01*
X142711785Y-154077380D01*
X143711785Y-154982142D02*
X143664166Y-155029761D01*
X143521309Y-155077380D01*
X143426071Y-155077380D01*
X143283214Y-155029761D01*
X143187976Y-154934523D01*
X143140357Y-154839285D01*
X143092738Y-154648809D01*
X143092738Y-154505952D01*
X143140357Y-154315476D01*
X143187976Y-154220238D01*
X143283214Y-154125000D01*
X143426071Y-154077380D01*
X143521309Y-154077380D01*
X143664166Y-154125000D01*
X143711785Y-154172619D01*
X144140357Y-154553571D02*
X144473690Y-154553571D01*
X144616547Y-155077380D02*
X144140357Y-155077380D01*
X144140357Y-154077380D01*
X144616547Y-154077380D01*
X145473690Y-154410714D02*
X145473690Y-155077380D01*
X145235595Y-154029761D02*
X144997500Y-154744047D01*
X145616547Y-154744047D01*
X146045119Y-155077380D02*
X146235595Y-155077380D01*
X146330833Y-155029761D01*
X146378452Y-154982142D01*
X146473690Y-154839285D01*
X146521309Y-154648809D01*
X146521309Y-154267857D01*
X146473690Y-154172619D01*
X146426071Y-154125000D01*
X146330833Y-154077380D01*
X146140357Y-154077380D01*
X146045119Y-154125000D01*
X145997500Y-154172619D01*
X145949880Y-154267857D01*
X145949880Y-154505952D01*
X145997500Y-154601190D01*
X146045119Y-154648809D01*
X146140357Y-154696428D01*
X146330833Y-154696428D01*
X146426071Y-154648809D01*
X146473690Y-154601190D01*
X146521309Y-154505952D01*
X147140357Y-154077380D02*
X147235595Y-154077380D01*
X147330833Y-154125000D01*
X147378452Y-154172619D01*
X147426071Y-154267857D01*
X147473690Y-154458333D01*
X147473690Y-154696428D01*
X147426071Y-154886904D01*
X147378452Y-154982142D01*
X147330833Y-155029761D01*
X147235595Y-155077380D01*
X147140357Y-155077380D01*
X147045119Y-155029761D01*
X146997500Y-154982142D01*
X146949880Y-154886904D01*
X146902261Y-154696428D01*
X146902261Y-154458333D01*
X146949880Y-154267857D01*
X146997500Y-154172619D01*
X147045119Y-154125000D01*
X147140357Y-154077380D01*
X147854642Y-154172619D02*
X147902261Y-154125000D01*
X147997500Y-154077380D01*
X148235595Y-154077380D01*
X148330833Y-154125000D01*
X148378452Y-154172619D01*
X148426071Y-154267857D01*
X148426071Y-154363095D01*
X148378452Y-154505952D01*
X147807023Y-155077380D01*
X148426071Y-155077380D01*
X148807023Y-154172619D02*
X148854642Y-154125000D01*
X148949880Y-154077380D01*
X149187976Y-154077380D01*
X149283214Y-154125000D01*
X149330833Y-154172619D01*
X149378452Y-154267857D01*
X149378452Y-154363095D01*
X149330833Y-154505952D01*
X148759404Y-155077380D01*
X149378452Y-155077380D01*
X149854642Y-155029761D02*
X149854642Y-155077380D01*
X149807023Y-155172619D01*
X149759404Y-155220238D01*
X150902261Y-154077380D02*
X151473690Y-154077380D01*
X151187976Y-155077380D02*
X151187976Y-154077380D01*
X152187976Y-155029761D02*
X152092738Y-155077380D01*
X151902261Y-155077380D01*
X151807023Y-155029761D01*
X151759404Y-154934523D01*
X151759404Y-154553571D01*
X151807023Y-154458333D01*
X151902261Y-154410714D01*
X152092738Y-154410714D01*
X152187976Y-154458333D01*
X152235595Y-154553571D01*
X152235595Y-154648809D01*
X151759404Y-154744047D01*
X153092738Y-155077380D02*
X153092738Y-154553571D01*
X153045119Y-154458333D01*
X152949880Y-154410714D01*
X152759404Y-154410714D01*
X152664166Y-154458333D01*
X153092738Y-155029761D02*
X152997500Y-155077380D01*
X152759404Y-155077380D01*
X152664166Y-155029761D01*
X152616547Y-154934523D01*
X152616547Y-154839285D01*
X152664166Y-154744047D01*
X152759404Y-154696428D01*
X152997500Y-154696428D01*
X153092738Y-154648809D01*
X153568928Y-155077380D02*
X153568928Y-154410714D01*
X153568928Y-154505952D02*
X153616547Y-154458333D01*
X153711785Y-154410714D01*
X153854642Y-154410714D01*
X153949880Y-154458333D01*
X153997500Y-154553571D01*
X153997500Y-155077380D01*
X153997500Y-154553571D02*
X154045119Y-154458333D01*
X154140357Y-154410714D01*
X154283214Y-154410714D01*
X154378452Y-154458333D01*
X154426071Y-154553571D01*
X154426071Y-155077380D01*
X155616547Y-154172619D02*
X155664166Y-154125000D01*
X155759404Y-154077380D01*
X155997500Y-154077380D01*
X156092738Y-154125000D01*
X156140357Y-154172619D01*
X156187976Y-154267857D01*
X156187976Y-154363095D01*
X156140357Y-154505952D01*
X155568928Y-155077380D01*
X156187976Y-155077380D01*
X156521309Y-154077380D02*
X157140357Y-154077380D01*
X156807023Y-154458333D01*
X156949880Y-154458333D01*
X157045119Y-154505952D01*
X157092738Y-154553571D01*
X157140357Y-154648809D01*
X157140357Y-154886904D01*
X157092738Y-154982142D01*
X157045119Y-155029761D01*
X156949880Y-155077380D01*
X156664166Y-155077380D01*
X156568928Y-155029761D01*
X156521309Y-154982142D01*
X142235595Y-156727380D02*
X142235595Y-155727380D01*
X142473690Y-155727380D01*
X142616547Y-155775000D01*
X142711785Y-155870238D01*
X142759404Y-155965476D01*
X142807023Y-156155952D01*
X142807023Y-156298809D01*
X142759404Y-156489285D01*
X142711785Y-156584523D01*
X142616547Y-156679761D01*
X142473690Y-156727380D01*
X142235595Y-156727380D01*
X143235595Y-156727380D02*
X143235595Y-156060714D01*
X143235595Y-155727380D02*
X143187976Y-155775000D01*
X143235595Y-155822619D01*
X143283214Y-155775000D01*
X143235595Y-155727380D01*
X143235595Y-155822619D01*
X144140357Y-156060714D02*
X144140357Y-156870238D01*
X144092738Y-156965476D01*
X144045119Y-157013095D01*
X143949880Y-157060714D01*
X143807023Y-157060714D01*
X143711785Y-157013095D01*
X144140357Y-156679761D02*
X144045119Y-156727380D01*
X143854642Y-156727380D01*
X143759404Y-156679761D01*
X143711785Y-156632142D01*
X143664166Y-156536904D01*
X143664166Y-156251190D01*
X143711785Y-156155952D01*
X143759404Y-156108333D01*
X143854642Y-156060714D01*
X144045119Y-156060714D01*
X144140357Y-156108333D01*
X144616547Y-156727380D02*
X144616547Y-156060714D01*
X144616547Y-155727380D02*
X144568928Y-155775000D01*
X144616547Y-155822619D01*
X144664166Y-155775000D01*
X144616547Y-155727380D01*
X144616547Y-155822619D01*
X145521309Y-156727380D02*
X145521309Y-155727380D01*
X145521309Y-156679761D02*
X145426071Y-156727380D01*
X145235595Y-156727380D01*
X145140357Y-156679761D01*
X145092738Y-156632142D01*
X145045119Y-156536904D01*
X145045119Y-156251190D01*
X145092738Y-156155952D01*
X145140357Y-156108333D01*
X145235595Y-156060714D01*
X145426071Y-156060714D01*
X145521309Y-156108333D01*
X145997500Y-156727380D02*
X145997500Y-156060714D01*
X145997500Y-156251190D02*
X146045119Y-156155952D01*
X146092738Y-156108333D01*
X146187976Y-156060714D01*
X146283214Y-156060714D01*
X147045119Y-156727380D02*
X147045119Y-156203571D01*
X146997500Y-156108333D01*
X146902261Y-156060714D01*
X146711785Y-156060714D01*
X146616547Y-156108333D01*
X147045119Y-156679761D02*
X146949880Y-156727380D01*
X146711785Y-156727380D01*
X146616547Y-156679761D01*
X146568928Y-156584523D01*
X146568928Y-156489285D01*
X146616547Y-156394047D01*
X146711785Y-156346428D01*
X146949880Y-156346428D01*
X147045119Y-156298809D01*
X147426071Y-156060714D02*
X147616547Y-156727380D01*
X147807023Y-156251190D01*
X147997500Y-156727380D01*
X148187976Y-156060714D01*
X149283214Y-156679761D02*
X149426071Y-156727380D01*
X149664166Y-156727380D01*
X149759404Y-156679761D01*
X149807023Y-156632142D01*
X149854642Y-156536904D01*
X149854642Y-156441666D01*
X149807023Y-156346428D01*
X149759404Y-156298809D01*
X149664166Y-156251190D01*
X149473690Y-156203571D01*
X149378452Y-156155952D01*
X149330833Y-156108333D01*
X149283214Y-156013095D01*
X149283214Y-155917857D01*
X149330833Y-155822619D01*
X149378452Y-155775000D01*
X149473690Y-155727380D01*
X149711785Y-155727380D01*
X149854642Y-155775000D01*
X150187976Y-156060714D02*
X150426071Y-156727380D01*
X150664166Y-156060714D02*
X150426071Y-156727380D01*
X150330833Y-156965476D01*
X150283214Y-157013095D01*
X150187976Y-157060714D01*
X151045119Y-156060714D02*
X151045119Y-156727380D01*
X151045119Y-156155952D02*
X151092738Y-156108333D01*
X151187976Y-156060714D01*
X151330833Y-156060714D01*
X151426071Y-156108333D01*
X151473690Y-156203571D01*
X151473690Y-156727380D01*
X151807023Y-156060714D02*
X152187976Y-156060714D01*
X151949880Y-155727380D02*
X151949880Y-156584523D01*
X151997500Y-156679761D01*
X152092738Y-156727380D01*
X152187976Y-156727380D01*
X152521309Y-156727380D02*
X152521309Y-155727380D01*
X152949880Y-156727380D02*
X152949880Y-156203571D01*
X152902261Y-156108333D01*
X152807023Y-156060714D01*
X152664166Y-156060714D01*
X152568928Y-156108333D01*
X152521309Y-156155952D01*
X142807023Y-158282142D02*
X142759404Y-158329761D01*
X142616547Y-158377380D01*
X142521309Y-158377380D01*
X142378452Y-158329761D01*
X142283214Y-158234523D01*
X142235595Y-158139285D01*
X142187976Y-157948809D01*
X142187976Y-157805952D01*
X142235595Y-157615476D01*
X142283214Y-157520238D01*
X142378452Y-157425000D01*
X142521309Y-157377380D01*
X142616547Y-157377380D01*
X142759404Y-157425000D01*
X142807023Y-157472619D01*
X143378452Y-158377380D02*
X143283214Y-158329761D01*
X143235595Y-158282142D01*
X143187976Y-158186904D01*
X143187976Y-157901190D01*
X143235595Y-157805952D01*
X143283214Y-157758333D01*
X143378452Y-157710714D01*
X143521309Y-157710714D01*
X143616547Y-157758333D01*
X143664166Y-157805952D01*
X143711785Y-157901190D01*
X143711785Y-158186904D01*
X143664166Y-158282142D01*
X143616547Y-158329761D01*
X143521309Y-158377380D01*
X143378452Y-158377380D01*
X144283214Y-158377380D02*
X144187976Y-158329761D01*
X144140357Y-158282142D01*
X144092738Y-158186904D01*
X144092738Y-157901190D01*
X144140357Y-157805952D01*
X144187976Y-157758333D01*
X144283214Y-157710714D01*
X144426071Y-157710714D01*
X144521309Y-157758333D01*
X144568928Y-157805952D01*
X144616547Y-157901190D01*
X144616547Y-158186904D01*
X144568928Y-158282142D01*
X144521309Y-158329761D01*
X144426071Y-158377380D01*
X144283214Y-158377380D01*
X145045119Y-157710714D02*
X145045119Y-158710714D01*
X145045119Y-157758333D02*
X145140357Y-157710714D01*
X145330833Y-157710714D01*
X145426071Y-157758333D01*
X145473690Y-157805952D01*
X145521309Y-157901190D01*
X145521309Y-158186904D01*
X145473690Y-158282142D01*
X145426071Y-158329761D01*
X145330833Y-158377380D01*
X145140357Y-158377380D01*
X145045119Y-158329761D01*
X146330833Y-158329761D02*
X146235595Y-158377380D01*
X146045119Y-158377380D01*
X145949880Y-158329761D01*
X145902261Y-158234523D01*
X145902261Y-157853571D01*
X145949880Y-157758333D01*
X146045119Y-157710714D01*
X146235595Y-157710714D01*
X146330833Y-157758333D01*
X146378452Y-157853571D01*
X146378452Y-157948809D01*
X145902261Y-158044047D01*
X146807023Y-158377380D02*
X146807023Y-157710714D01*
X146807023Y-157901190D02*
X146854642Y-157805952D01*
X146902261Y-157758333D01*
X146997500Y-157710714D01*
X147092738Y-157710714D01*
X148759404Y-158282142D02*
X148711785Y-158329761D01*
X148568928Y-158377380D01*
X148473690Y-158377380D01*
X148330833Y-158329761D01*
X148235595Y-158234523D01*
X148187976Y-158139285D01*
X148140357Y-157948809D01*
X148140357Y-157805952D01*
X148187976Y-157615476D01*
X148235595Y-157520238D01*
X148330833Y-157425000D01*
X148473690Y-157377380D01*
X148568928Y-157377380D01*
X148711785Y-157425000D01*
X148759404Y-157472619D01*
X149616547Y-158377380D02*
X149616547Y-157853571D01*
X149568928Y-157758333D01*
X149473690Y-157710714D01*
X149283214Y-157710714D01*
X149187976Y-157758333D01*
X149616547Y-158329761D02*
X149521309Y-158377380D01*
X149283214Y-158377380D01*
X149187976Y-158329761D01*
X149140357Y-158234523D01*
X149140357Y-158139285D01*
X149187976Y-158044047D01*
X149283214Y-157996428D01*
X149521309Y-157996428D01*
X149616547Y-157948809D01*
X150092738Y-158377380D02*
X150092738Y-157710714D01*
X150092738Y-157805952D02*
X150140357Y-157758333D01*
X150235595Y-157710714D01*
X150378452Y-157710714D01*
X150473690Y-157758333D01*
X150521309Y-157853571D01*
X150521309Y-158377380D01*
X150521309Y-157853571D02*
X150568928Y-157758333D01*
X150664166Y-157710714D01*
X150807023Y-157710714D01*
X150902261Y-157758333D01*
X150949880Y-157853571D01*
X150949880Y-158377380D01*
X151426071Y-157710714D02*
X151426071Y-158710714D01*
X151426071Y-157758333D02*
X151521309Y-157710714D01*
X151711785Y-157710714D01*
X151807023Y-157758333D01*
X151854642Y-157805952D01*
X151902261Y-157901190D01*
X151902261Y-158186904D01*
X151854642Y-158282142D01*
X151807023Y-158329761D01*
X151711785Y-158377380D01*
X151521309Y-158377380D01*
X151426071Y-158329761D01*
X152330833Y-158377380D02*
X152330833Y-157377380D01*
X152330833Y-157758333D02*
X152426071Y-157710714D01*
X152616547Y-157710714D01*
X152711785Y-157758333D01*
X152759404Y-157805952D01*
X152807023Y-157901190D01*
X152807023Y-158186904D01*
X152759404Y-158282142D01*
X152711785Y-158329761D01*
X152616547Y-158377380D01*
X152426071Y-158377380D01*
X152330833Y-158329761D01*
X153616547Y-158329761D02*
X153521309Y-158377380D01*
X153330833Y-158377380D01*
X153235595Y-158329761D01*
X153187976Y-158234523D01*
X153187976Y-157853571D01*
X153235595Y-157758333D01*
X153330833Y-157710714D01*
X153521309Y-157710714D01*
X153616547Y-157758333D01*
X153664166Y-157853571D01*
X153664166Y-157948809D01*
X153187976Y-158044047D01*
X154235595Y-158377380D02*
X154140357Y-158329761D01*
X154092738Y-158234523D01*
X154092738Y-157377380D01*
X154759404Y-158377380D02*
X154664166Y-158329761D01*
X154616547Y-158234523D01*
X154616547Y-157377380D01*
X155187976Y-158329761D02*
X155187976Y-158377380D01*
X155140357Y-158472619D01*
X155092738Y-158520238D01*
X156378452Y-158377380D02*
X156378452Y-157377380D01*
X156949880Y-158377380D01*
X156949880Y-157377380D01*
X157426071Y-158377380D02*
X157426071Y-157710714D01*
X157426071Y-157377380D02*
X157378452Y-157425000D01*
X157426071Y-157472619D01*
X157473690Y-157425000D01*
X157426071Y-157377380D01*
X157426071Y-157472619D01*
X158330833Y-158329761D02*
X158235595Y-158377380D01*
X158045119Y-158377380D01*
X157949880Y-158329761D01*
X157902261Y-158282142D01*
X157854642Y-158186904D01*
X157854642Y-157901190D01*
X157902261Y-157805952D01*
X157949880Y-157758333D01*
X158045119Y-157710714D01*
X158235595Y-157710714D01*
X158330833Y-157758333D01*
X158759404Y-158377380D02*
X158759404Y-157377380D01*
X159187976Y-158377380D02*
X159187976Y-157853571D01*
X159140357Y-157758333D01*
X159045119Y-157710714D01*
X158902261Y-157710714D01*
X158807023Y-157758333D01*
X158759404Y-157805952D01*
X159807023Y-158377380D02*
X159711785Y-158329761D01*
X159664166Y-158282142D01*
X159616547Y-158186904D01*
X159616547Y-157901190D01*
X159664166Y-157805952D01*
X159711785Y-157758333D01*
X159807023Y-157710714D01*
X159949880Y-157710714D01*
X160045119Y-157758333D01*
X160092738Y-157805952D01*
X160140357Y-157901190D01*
X160140357Y-158186904D01*
X160092738Y-158282142D01*
X160045119Y-158329761D01*
X159949880Y-158377380D01*
X159807023Y-158377380D01*
X160711785Y-158377380D02*
X160616547Y-158329761D01*
X160568928Y-158234523D01*
X160568928Y-157377380D01*
X161521309Y-158377380D02*
X161521309Y-157853571D01*
X161473690Y-157758333D01*
X161378452Y-157710714D01*
X161187976Y-157710714D01*
X161092738Y-157758333D01*
X161521309Y-158329761D02*
X161426071Y-158377380D01*
X161187976Y-158377380D01*
X161092738Y-158329761D01*
X161045119Y-158234523D01*
X161045119Y-158139285D01*
X161092738Y-158044047D01*
X161187976Y-157996428D01*
X161426071Y-157996428D01*
X161521309Y-157948809D01*
X161949880Y-158329761D02*
X162045119Y-158377380D01*
X162235595Y-158377380D01*
X162330833Y-158329761D01*
X162378452Y-158234523D01*
X162378452Y-158186904D01*
X162330833Y-158091666D01*
X162235595Y-158044047D01*
X162092738Y-158044047D01*
X161997500Y-157996428D01*
X161949880Y-157901190D01*
X161949880Y-157853571D01*
X161997500Y-157758333D01*
X162092738Y-157710714D01*
X162235595Y-157710714D01*
X162330833Y-157758333D01*
X163759404Y-157377380D02*
X163949880Y-157377380D01*
X164045119Y-157425000D01*
X164140357Y-157520238D01*
X164187976Y-157710714D01*
X164187976Y-158044047D01*
X164140357Y-158234523D01*
X164045119Y-158329761D01*
X163949880Y-158377380D01*
X163759404Y-158377380D01*
X163664166Y-158329761D01*
X163568928Y-158234523D01*
X163521309Y-158044047D01*
X163521309Y-157710714D01*
X163568928Y-157520238D01*
X163664166Y-157425000D01*
X163759404Y-157377380D01*
X164664166Y-157377380D02*
X164568928Y-157567857D01*
X165092738Y-158377380D02*
X165092738Y-157377380D01*
X165330833Y-157377380D01*
X165473690Y-157425000D01*
X165568928Y-157520238D01*
X165616547Y-157615476D01*
X165664166Y-157805952D01*
X165664166Y-157948809D01*
X165616547Y-158139285D01*
X165568928Y-158234523D01*
X165473690Y-158329761D01*
X165330833Y-158377380D01*
X165092738Y-158377380D01*
X166235595Y-158377380D02*
X166140357Y-158329761D01*
X166092738Y-158282142D01*
X166045119Y-158186904D01*
X166045119Y-157901190D01*
X166092738Y-157805952D01*
X166140357Y-157758333D01*
X166235595Y-157710714D01*
X166378452Y-157710714D01*
X166473690Y-157758333D01*
X166521309Y-157805952D01*
X166568928Y-157901190D01*
X166568928Y-158186904D01*
X166521309Y-158282142D01*
X166473690Y-158329761D01*
X166378452Y-158377380D01*
X166235595Y-158377380D01*
X166997500Y-157710714D02*
X166997500Y-158377380D01*
X166997500Y-157805952D02*
X167045119Y-157758333D01*
X167140357Y-157710714D01*
X167283214Y-157710714D01*
X167378452Y-157758333D01*
X167426071Y-157853571D01*
X167426071Y-158377380D01*
X167902261Y-157710714D02*
X167902261Y-158377380D01*
X167902261Y-157805952D02*
X167949880Y-157758333D01*
X168045119Y-157710714D01*
X168187976Y-157710714D01*
X168283214Y-157758333D01*
X168330833Y-157853571D01*
X168330833Y-158377380D01*
X169187976Y-158329761D02*
X169092738Y-158377380D01*
X168902261Y-158377380D01*
X168807023Y-158329761D01*
X168759404Y-158234523D01*
X168759404Y-157853571D01*
X168807023Y-157758333D01*
X168902261Y-157710714D01*
X169092738Y-157710714D01*
X169187976Y-157758333D01*
X169235595Y-157853571D01*
X169235595Y-157948809D01*
X168759404Y-158044047D01*
X169807023Y-158377380D02*
X169711785Y-158329761D01*
X169664166Y-158234523D01*
X169664166Y-157377380D01*
X170235595Y-158329761D02*
X170235595Y-158377380D01*
X170187976Y-158472619D01*
X170140357Y-158520238D01*
X171426071Y-158377380D02*
X171426071Y-157377380D01*
X171997500Y-158377380D01*
X171997500Y-157377380D01*
X172473690Y-158377380D02*
X172473690Y-157710714D01*
X172473690Y-157377380D02*
X172426071Y-157425000D01*
X172473690Y-157472619D01*
X172521309Y-157425000D01*
X172473690Y-157377380D01*
X172473690Y-157472619D01*
X173378452Y-158329761D02*
X173283214Y-158377380D01*
X173092738Y-158377380D01*
X172997500Y-158329761D01*
X172949880Y-158282142D01*
X172902261Y-158186904D01*
X172902261Y-157901190D01*
X172949880Y-157805952D01*
X172997500Y-157758333D01*
X173092738Y-157710714D01*
X173283214Y-157710714D01*
X173378452Y-157758333D01*
X173807023Y-158377380D02*
X173807023Y-157377380D01*
X173902261Y-157996428D02*
X174187976Y-158377380D01*
X174187976Y-157710714D02*
X173807023Y-158091666D01*
X175330833Y-158329761D02*
X175473690Y-158377380D01*
X175711785Y-158377380D01*
X175807023Y-158329761D01*
X175854642Y-158282142D01*
X175902261Y-158186904D01*
X175902261Y-158091666D01*
X175854642Y-157996428D01*
X175807023Y-157948809D01*
X175711785Y-157901190D01*
X175521309Y-157853571D01*
X175426071Y-157805952D01*
X175378452Y-157758333D01*
X175330833Y-157663095D01*
X175330833Y-157567857D01*
X175378452Y-157472619D01*
X175426071Y-157425000D01*
X175521309Y-157377380D01*
X175759404Y-157377380D01*
X175902261Y-157425000D01*
X176330833Y-158377380D02*
X176330833Y-157377380D01*
X176759404Y-158377380D02*
X176759404Y-157853571D01*
X176711785Y-157758333D01*
X176616547Y-157710714D01*
X176473690Y-157710714D01*
X176378452Y-157758333D01*
X176330833Y-157805952D01*
X177235595Y-158377380D02*
X177235595Y-157710714D01*
X177235595Y-157377380D02*
X177187976Y-157425000D01*
X177235595Y-157472619D01*
X177283214Y-157425000D01*
X177235595Y-157377380D01*
X177235595Y-157472619D01*
X177711785Y-158377380D02*
X177711785Y-157710714D01*
X177711785Y-157901190D02*
X177759404Y-157805952D01*
X177807023Y-157758333D01*
X177902261Y-157710714D01*
X177997500Y-157710714D01*
X178330833Y-158377380D02*
X178330833Y-157710714D01*
X178330833Y-157901190D02*
X178378452Y-157805952D01*
X178426071Y-157758333D01*
X178521309Y-157710714D01*
X178616547Y-157710714D01*
X179330833Y-158329761D02*
X179235595Y-158377380D01*
X179045119Y-158377380D01*
X178949880Y-158329761D01*
X178902261Y-158234523D01*
X178902261Y-157853571D01*
X178949880Y-157758333D01*
X179045119Y-157710714D01*
X179235595Y-157710714D01*
X179330833Y-157758333D01*
X179378452Y-157853571D01*
X179378452Y-157948809D01*
X178902261Y-158044047D01*
X179949880Y-158377380D02*
X179854642Y-158329761D01*
X179807023Y-158234523D01*
X179807023Y-157377380D01*
X180473690Y-158377380D02*
X180378452Y-158329761D01*
X180330833Y-158234523D01*
X180330833Y-157377380D01*
X142807023Y-160027380D02*
X142473690Y-159551190D01*
X142235595Y-160027380D02*
X142235595Y-159027380D01*
X142616547Y-159027380D01*
X142711785Y-159075000D01*
X142759404Y-159122619D01*
X142807023Y-159217857D01*
X142807023Y-159360714D01*
X142759404Y-159455952D01*
X142711785Y-159503571D01*
X142616547Y-159551190D01*
X142235595Y-159551190D01*
X143616547Y-159979761D02*
X143521309Y-160027380D01*
X143330833Y-160027380D01*
X143235595Y-159979761D01*
X143187976Y-159884523D01*
X143187976Y-159503571D01*
X143235595Y-159408333D01*
X143330833Y-159360714D01*
X143521309Y-159360714D01*
X143616547Y-159408333D01*
X143664166Y-159503571D01*
X143664166Y-159598809D01*
X143187976Y-159694047D01*
X143997500Y-159360714D02*
X144235595Y-160027380D01*
X144473690Y-159360714D01*
X144854642Y-160027380D02*
X144854642Y-159360714D01*
X144854642Y-159027380D02*
X144807023Y-159075000D01*
X144854642Y-159122619D01*
X144902261Y-159075000D01*
X144854642Y-159027380D01*
X144854642Y-159122619D01*
X145283214Y-159979761D02*
X145378452Y-160027380D01*
X145568928Y-160027380D01*
X145664166Y-159979761D01*
X145711785Y-159884523D01*
X145711785Y-159836904D01*
X145664166Y-159741666D01*
X145568928Y-159694047D01*
X145426071Y-159694047D01*
X145330833Y-159646428D01*
X145283214Y-159551190D01*
X145283214Y-159503571D01*
X145330833Y-159408333D01*
X145426071Y-159360714D01*
X145568928Y-159360714D01*
X145664166Y-159408333D01*
X146140357Y-160027380D02*
X146140357Y-159360714D01*
X146140357Y-159027380D02*
X146092738Y-159075000D01*
X146140357Y-159122619D01*
X146187976Y-159075000D01*
X146140357Y-159027380D01*
X146140357Y-159122619D01*
X146759404Y-160027380D02*
X146664166Y-159979761D01*
X146616547Y-159932142D01*
X146568928Y-159836904D01*
X146568928Y-159551190D01*
X146616547Y-159455952D01*
X146664166Y-159408333D01*
X146759404Y-159360714D01*
X146902261Y-159360714D01*
X146997500Y-159408333D01*
X147045119Y-159455952D01*
X147092738Y-159551190D01*
X147092738Y-159836904D01*
X147045119Y-159932142D01*
X146997500Y-159979761D01*
X146902261Y-160027380D01*
X146759404Y-160027380D01*
X147521309Y-159360714D02*
X147521309Y-160027380D01*
X147521309Y-159455952D02*
X147568928Y-159408333D01*
X147664166Y-159360714D01*
X147807023Y-159360714D01*
X147902261Y-159408333D01*
X147949880Y-159503571D01*
X147949880Y-160027380D01*
X149711785Y-160027380D02*
X149140357Y-160027380D01*
X149426071Y-160027380D02*
X149426071Y-159027380D01*
X149330833Y-159170238D01*
X149235595Y-159265476D01*
X149140357Y-159313095D01*
D11*
%TO.C,U1*%
X173500000Y-90250000D02*
G75*
G03*
X173500000Y-90250000I-125000J0D01*
G01*
D10*
X174000000Y-89350000D02*
X174175000Y-89350000D01*
X176725000Y-89350000D02*
X176800000Y-89350000D01*
X176800000Y-92650000D02*
X176800000Y-92050000D01*
X176800000Y-89950000D02*
X176800000Y-89350000D01*
X174000000Y-92650000D02*
X174175000Y-92650000D01*
X176725000Y-92650000D02*
X176800000Y-92650000D01*
X174000000Y-92650000D02*
X174000000Y-92250000D01*
X174000000Y-89750000D02*
X174000000Y-89350000D01*
D12*
%TO.C,J19*%
X128430000Y-143030000D02*
X125770000Y-143030000D01*
X128430000Y-145630000D02*
X128430000Y-143030000D01*
X125770000Y-145630000D02*
X125770000Y-143030000D01*
X128430000Y-145630000D02*
X125770000Y-145630000D01*
X128430000Y-146900000D02*
X128430000Y-148230000D01*
X128430000Y-148230000D02*
X127100000Y-148230000D01*
%TO.C,J18*%
X131070000Y-121770000D02*
X133730000Y-121770000D01*
X131070000Y-119170000D02*
X131070000Y-121770000D01*
X133730000Y-119170000D02*
X133730000Y-121770000D01*
X131070000Y-119170000D02*
X133730000Y-119170000D01*
X131070000Y-117900000D02*
X131070000Y-116570000D01*
X131070000Y-116570000D02*
X132400000Y-116570000D01*
%TO.C,J17*%
X77670000Y-124930000D02*
X77670000Y-122270000D01*
X75070000Y-124930000D02*
X77670000Y-124930000D01*
X75070000Y-122270000D02*
X77670000Y-122270000D01*
X75070000Y-124930000D02*
X75070000Y-122270000D01*
X73800000Y-124930000D02*
X72470000Y-124930000D01*
X72470000Y-124930000D02*
X72470000Y-123600000D01*
%TO.C,J16*%
X69770000Y-118230000D02*
X69770000Y-115570000D01*
X67170000Y-118230000D02*
X69770000Y-118230000D01*
X67170000Y-115570000D02*
X69770000Y-115570000D01*
X67170000Y-118230000D02*
X67170000Y-115570000D01*
X65900000Y-118230000D02*
X64570000Y-118230000D01*
X64570000Y-118230000D02*
X64570000Y-116900000D01*
%TO.C,J15*%
X120670000Y-138470000D02*
X123330000Y-138470000D01*
X120670000Y-135870000D02*
X120670000Y-138470000D01*
X123330000Y-135870000D02*
X123330000Y-138470000D01*
X120670000Y-135870000D02*
X123330000Y-135870000D01*
X120670000Y-134600000D02*
X120670000Y-133270000D01*
X120670000Y-133270000D02*
X122000000Y-133270000D01*
%TO.C,J14*%
X116170000Y-158770000D02*
X118830000Y-158770000D01*
X116170000Y-156170000D02*
X116170000Y-158770000D01*
X118830000Y-156170000D02*
X118830000Y-158770000D01*
X116170000Y-156170000D02*
X118830000Y-156170000D01*
X116170000Y-154900000D02*
X116170000Y-153570000D01*
X116170000Y-153570000D02*
X117500000Y-153570000D01*
%TO.C,J11*%
X62870000Y-103775000D02*
X63692470Y-103775000D01*
X65577530Y-103775000D02*
X66400000Y-103775000D01*
X64307530Y-103775000D02*
X64962470Y-103775000D01*
X62870000Y-98760000D02*
X62870000Y-103775000D01*
X66400000Y-97305000D02*
X66400000Y-103775000D01*
X62870000Y-98760000D02*
X63436529Y-98760000D01*
X64563471Y-98760000D02*
X64706529Y-98760000D01*
X64760000Y-98706529D02*
X64760000Y-98563471D01*
X64760000Y-97436529D02*
X64760000Y-97305000D01*
X64760000Y-97305000D02*
X64962470Y-97305000D01*
X65577530Y-97305000D02*
X66400000Y-97305000D01*
X62870000Y-98000000D02*
X62870000Y-97240000D01*
X62870000Y-97240000D02*
X64000000Y-97240000D01*
%TO.C,J3*%
X82870000Y-155775000D02*
X83692470Y-155775000D01*
X85577530Y-155775000D02*
X86400000Y-155775000D01*
X84307530Y-155775000D02*
X84962470Y-155775000D01*
X82870000Y-150760000D02*
X82870000Y-155775000D01*
X86400000Y-149305000D02*
X86400000Y-155775000D01*
X82870000Y-150760000D02*
X83436529Y-150760000D01*
X84563471Y-150760000D02*
X84706529Y-150760000D01*
X84760000Y-150706529D02*
X84760000Y-150563471D01*
X84760000Y-149436529D02*
X84760000Y-149305000D01*
X84760000Y-149305000D02*
X84962470Y-149305000D01*
X85577530Y-149305000D02*
X86400000Y-149305000D01*
X82870000Y-150000000D02*
X82870000Y-149240000D01*
X82870000Y-149240000D02*
X84000000Y-149240000D01*
%TO.C,R28*%
X94437258Y-85777500D02*
X93962742Y-85777500D01*
X94437258Y-86822500D02*
X93962742Y-86822500D01*
%TO.C,R27*%
X90862742Y-86822500D02*
X91337258Y-86822500D01*
X90862742Y-85777500D02*
X91337258Y-85777500D01*
%TO.C,C50*%
X174261252Y-108735000D02*
X173738748Y-108735000D01*
X174261252Y-107265000D02*
X173738748Y-107265000D01*
%TO.C,C55*%
X169859420Y-106810000D02*
X170140580Y-106810000D01*
X169859420Y-105790000D02*
X170140580Y-105790000D01*
%TO.C,U3*%
X96840000Y-137890000D02*
X95890000Y-137890000D01*
X95890000Y-137890000D02*
X95890000Y-138840000D01*
X105160000Y-137890000D02*
X106110000Y-137890000D01*
X106110000Y-137890000D02*
X106110000Y-138840000D01*
X96840000Y-148110000D02*
X95890000Y-148110000D01*
X95890000Y-148110000D02*
X95890000Y-147160000D01*
X105160000Y-148110000D02*
X106110000Y-148110000D01*
X106110000Y-148110000D02*
X106110000Y-147160000D01*
X106110000Y-147160000D02*
X107450000Y-147160000D01*
%TO.C,C13*%
X111090000Y-142740580D02*
X111090000Y-142459420D01*
X112110000Y-142740580D02*
X112110000Y-142459420D01*
D13*
%TO.C,U2*%
X174740000Y-109130000D02*
G75*
G03*
X174740000Y-109130000I-200000J0D01*
G01*
D14*
X166250000Y-129750000D02*
X166250000Y-112250000D01*
X177750000Y-112250000D02*
X177750000Y-129750000D01*
X177750000Y-129750000D02*
X166250000Y-129750000D01*
X166250000Y-112250000D02*
X177750000Y-112250000D01*
D12*
%TO.C,R49*%
X138537258Y-100422500D02*
X138062742Y-100422500D01*
X138537258Y-99377500D02*
X138062742Y-99377500D01*
%TO.C,C20*%
X94638748Y-96335000D02*
X95161252Y-96335000D01*
X94638748Y-94865000D02*
X95161252Y-94865000D01*
%TO.C,C30*%
X86290000Y-114559420D02*
X86290000Y-114840580D01*
X87310000Y-114559420D02*
X87310000Y-114840580D01*
%TO.C,R26*%
X145107500Y-116672742D02*
X145107500Y-117147258D01*
X146152500Y-116672742D02*
X146152500Y-117147258D01*
%TO.C,R25*%
X144572742Y-96282500D02*
X145047258Y-96282500D01*
X144572742Y-95237500D02*
X145047258Y-95237500D01*
%TO.C,D3*%
X146245000Y-114385000D02*
X146245000Y-112100000D01*
X144775000Y-114385000D02*
X146245000Y-114385000D01*
X144775000Y-112100000D02*
X144775000Y-114385000D01*
%TO.C,D2*%
X142285000Y-95065000D02*
X140000000Y-95065000D01*
X142285000Y-96535000D02*
X142285000Y-95065000D01*
X140000000Y-96535000D02*
X142285000Y-96535000D01*
%TO.C,J8*%
X77670000Y-151950000D02*
X80330000Y-151950000D01*
X77670000Y-144270000D02*
X77670000Y-151950000D01*
X80330000Y-144270000D02*
X80330000Y-151950000D01*
X77670000Y-144270000D02*
X80330000Y-144270000D01*
X77670000Y-143000000D02*
X77670000Y-141670000D01*
X77670000Y-141670000D02*
X79000000Y-141670000D01*
%TO.C,J9*%
X121490000Y-77330000D02*
X121490000Y-74670000D01*
X111270000Y-77330000D02*
X121490000Y-77330000D01*
X111270000Y-74670000D02*
X121490000Y-74670000D01*
X111270000Y-77330000D02*
X111270000Y-74670000D01*
X110000000Y-77330000D02*
X108670000Y-77330000D01*
X108670000Y-77330000D02*
X108670000Y-76000000D01*
%TO.C,J7*%
X61570000Y-148750000D02*
X64230000Y-148750000D01*
X61570000Y-128370000D02*
X61570000Y-148750000D01*
X64230000Y-128370000D02*
X64230000Y-148750000D01*
X61570000Y-128370000D02*
X64230000Y-128370000D01*
X61570000Y-127100000D02*
X61570000Y-125770000D01*
X61570000Y-125770000D02*
X62900000Y-125770000D01*
D15*
%TO.C,U8*%
X132412480Y-96920366D02*
X131142480Y-96920366D01*
X132412480Y-96920366D02*
X132412480Y-107080366D01*
X132412480Y-107080366D02*
X131142480Y-107080366D01*
X131142480Y-96920366D02*
X131142480Y-107080366D01*
X135714480Y-107080366D02*
X132412480Y-107080366D01*
X135714480Y-96920366D02*
X135714480Y-107080366D01*
X135714480Y-96920366D02*
X132412480Y-96920366D01*
D12*
%TO.C,C53*%
X169859420Y-108510000D02*
X170140580Y-108510000D01*
X169859420Y-107490000D02*
X170140580Y-107490000D01*
%TO.C,C51*%
X159640580Y-95590000D02*
X159359420Y-95590000D01*
X159640580Y-96610000D02*
X159359420Y-96610000D01*
%TO.C,L2*%
X166890000Y-107037221D02*
X166890000Y-107362779D01*
X167910000Y-107037221D02*
X167910000Y-107362779D01*
%TO.C,J13*%
X94250000Y-122530000D02*
X94250000Y-119870000D01*
X86570000Y-122530000D02*
X94250000Y-122530000D01*
X86570000Y-119870000D02*
X94250000Y-119870000D01*
X86570000Y-122530000D02*
X86570000Y-119870000D01*
X85300000Y-122530000D02*
X83970000Y-122530000D01*
X83970000Y-122530000D02*
X83970000Y-121200000D01*
%TO.C,J12*%
X147670000Y-81410000D02*
X150330000Y-81410000D01*
X147670000Y-76270000D02*
X147670000Y-81410000D01*
X150330000Y-76270000D02*
X150330000Y-81410000D01*
X147670000Y-76270000D02*
X150330000Y-76270000D01*
X147670000Y-75000000D02*
X147670000Y-73670000D01*
X147670000Y-73670000D02*
X149000000Y-73670000D01*
%TO.C,J6*%
X102050000Y-159670000D02*
X102050000Y-162330000D01*
X109730000Y-159670000D02*
X102050000Y-159670000D01*
X109730000Y-162330000D02*
X102050000Y-162330000D01*
X109730000Y-159670000D02*
X109730000Y-162330000D01*
X111000000Y-159670000D02*
X112330000Y-159670000D01*
X112330000Y-159670000D02*
X112330000Y-161000000D01*
%TO.C,J5*%
X116830000Y-114350000D02*
X114170000Y-114350000D01*
X116830000Y-124570000D02*
X116830000Y-114350000D01*
X114170000Y-124570000D02*
X114170000Y-114350000D01*
X116830000Y-124570000D02*
X114170000Y-124570000D01*
X116830000Y-125840000D02*
X116830000Y-127170000D01*
X116830000Y-127170000D02*
X115500000Y-127170000D01*
%TO.C,J4*%
X68330000Y-129970000D02*
X65670000Y-129970000D01*
X68330000Y-142730000D02*
X68330000Y-129970000D01*
X65670000Y-142730000D02*
X65670000Y-129970000D01*
X68330000Y-142730000D02*
X65670000Y-142730000D01*
X68330000Y-144000000D02*
X68330000Y-145330000D01*
X68330000Y-145330000D02*
X67000000Y-145330000D01*
%TO.C,C1*%
X151461252Y-86765000D02*
X150938748Y-86765000D01*
X151461252Y-88235000D02*
X150938748Y-88235000D01*
%TO.C,C2*%
X162738748Y-93265000D02*
X163261252Y-93265000D01*
X162738748Y-94735000D02*
X163261252Y-94735000D01*
%TO.C,C3*%
X163265000Y-89738748D02*
X163265000Y-90261252D01*
X164735000Y-89738748D02*
X164735000Y-90261252D01*
%TO.C,C4*%
X175140580Y-88510000D02*
X174859420Y-88510000D01*
X175140580Y-87490000D02*
X174859420Y-87490000D01*
%TO.C,C5*%
X172735000Y-92738748D02*
X172735000Y-93261252D01*
X171265000Y-92738748D02*
X171265000Y-93261252D01*
%TO.C,C6*%
X176859420Y-94510000D02*
X177140580Y-94510000D01*
X176859420Y-93490000D02*
X177140580Y-93490000D01*
%TO.C,C7*%
X118265000Y-135738748D02*
X118265000Y-136261252D01*
X119735000Y-135738748D02*
X119735000Y-136261252D01*
%TO.C,C8*%
X123265000Y-145261252D02*
X123265000Y-144738748D01*
X124735000Y-145261252D02*
X124735000Y-144738748D01*
%TO.C,C9*%
X113265000Y-153738748D02*
X113265000Y-154261252D01*
X114735000Y-153738748D02*
X114735000Y-154261252D01*
%TO.C,C10*%
X96859420Y-135510000D02*
X97140580Y-135510000D01*
X96859420Y-134490000D02*
X97140580Y-134490000D01*
%TO.C,C11*%
X111510000Y-147859420D02*
X111510000Y-148140580D01*
X110490000Y-147859420D02*
X110490000Y-148140580D01*
%TO.C,C12*%
X105740580Y-151510000D02*
X105459420Y-151510000D01*
X105740580Y-150490000D02*
X105459420Y-150490000D01*
%TO.C,C14*%
X108490000Y-139859420D02*
X108490000Y-140140580D01*
X109510000Y-139859420D02*
X109510000Y-140140580D01*
%TO.C,C15*%
X105140580Y-152490000D02*
X104859420Y-152490000D01*
X105140580Y-153510000D02*
X104859420Y-153510000D01*
%TO.C,C16*%
X96859420Y-132490000D02*
X97140580Y-132490000D01*
X96859420Y-133510000D02*
X97140580Y-133510000D01*
%TO.C,C17*%
X108140580Y-147490000D02*
X107859420Y-147490000D01*
X108140580Y-148510000D02*
X107859420Y-148510000D01*
%TO.C,C18*%
X94510000Y-156859420D02*
X94510000Y-157140580D01*
X93490000Y-156859420D02*
X93490000Y-157140580D01*
%TO.C,C19*%
X95790000Y-156959420D02*
X95790000Y-157240580D01*
X96810000Y-156959420D02*
X96810000Y-157240580D01*
%TO.C,C21*%
X78265000Y-90261252D02*
X78265000Y-89738748D01*
X79735000Y-90261252D02*
X79735000Y-89738748D01*
%TO.C,C22*%
X63738748Y-119265000D02*
X64261252Y-119265000D01*
X63738748Y-120735000D02*
X64261252Y-120735000D01*
%TO.C,C23*%
X75261252Y-119765000D02*
X74738748Y-119765000D01*
X75261252Y-121235000D02*
X74738748Y-121235000D01*
%TO.C,C24*%
X134665000Y-119261252D02*
X134665000Y-118738748D01*
X136135000Y-119261252D02*
X136135000Y-118738748D01*
%TO.C,C25*%
X77261252Y-114735000D02*
X76738748Y-114735000D01*
X77261252Y-113265000D02*
X76738748Y-113265000D01*
%TO.C,C26*%
X71735000Y-108261252D02*
X71735000Y-107738748D01*
X70265000Y-108261252D02*
X70265000Y-107738748D01*
%TO.C,C27*%
X98735000Y-106738748D02*
X98735000Y-107261252D01*
X97265000Y-106738748D02*
X97265000Y-107261252D01*
%TO.C,C28*%
X81510000Y-114859420D02*
X81510000Y-115140580D01*
X80490000Y-114859420D02*
X80490000Y-115140580D01*
%TO.C,C29*%
X74735000Y-108261252D02*
X74735000Y-107738748D01*
X73265000Y-108261252D02*
X73265000Y-107738748D01*
%TO.C,C31*%
X92735000Y-112738748D02*
X92735000Y-113261252D01*
X91265000Y-112738748D02*
X91265000Y-113261252D01*
%TO.C,C32*%
X79261252Y-110265000D02*
X78738748Y-110265000D01*
X79261252Y-111735000D02*
X78738748Y-111735000D01*
%TO.C,C33*%
X109859420Y-93510000D02*
X110140580Y-93510000D01*
X109859420Y-92490000D02*
X110140580Y-92490000D01*
%TO.C,C34*%
X95735000Y-106738748D02*
X95735000Y-107261252D01*
X94265000Y-106738748D02*
X94265000Y-107261252D01*
%TO.C,C35*%
X94510000Y-93140580D02*
X94510000Y-92859420D01*
X93490000Y-93140580D02*
X93490000Y-92859420D01*
%TO.C,C36*%
X120738748Y-98735000D02*
X121261252Y-98735000D01*
X120738748Y-97265000D02*
X121261252Y-97265000D01*
%TO.C,C37*%
X75261252Y-89265000D02*
X74738748Y-89265000D01*
X75261252Y-90735000D02*
X74738748Y-90735000D01*
%TO.C,C38*%
X105740580Y-85210000D02*
X105459420Y-85210000D01*
X105740580Y-84190000D02*
X105459420Y-84190000D01*
%TO.C,C39*%
X107859420Y-82490000D02*
X108140580Y-82490000D01*
X107859420Y-83510000D02*
X108140580Y-83510000D01*
%TO.C,C40*%
X115261252Y-96735000D02*
X114738748Y-96735000D01*
X115261252Y-95265000D02*
X114738748Y-95265000D01*
%TO.C,C41*%
X75540580Y-92310000D02*
X75259420Y-92310000D01*
X75540580Y-91290000D02*
X75259420Y-91290000D01*
%TO.C,C42*%
X115140580Y-93510000D02*
X114859420Y-93510000D01*
X115140580Y-92490000D02*
X114859420Y-92490000D01*
%TO.C,C43*%
X105859420Y-94490000D02*
X106140580Y-94490000D01*
X105859420Y-95510000D02*
X106140580Y-95510000D01*
%TO.C,C44*%
X97735000Y-80261252D02*
X97735000Y-79738748D01*
X96265000Y-80261252D02*
X96265000Y-79738748D01*
%TO.C,C45*%
X123735000Y-88738748D02*
X123735000Y-89261252D01*
X122265000Y-88738748D02*
X122265000Y-89261252D01*
%TO.C,C46*%
X109738748Y-94265000D02*
X110261252Y-94265000D01*
X109738748Y-95735000D02*
X110261252Y-95735000D01*
%TO.C,C47*%
X96265000Y-84261252D02*
X96265000Y-83738748D01*
X97735000Y-84261252D02*
X97735000Y-83738748D01*
%TO.C,C48*%
X179738748Y-98735000D02*
X180261252Y-98735000D01*
X179738748Y-97265000D02*
X180261252Y-97265000D01*
%TO.C,C49*%
X179738748Y-101265000D02*
X180261252Y-101265000D01*
X179738748Y-102735000D02*
X180261252Y-102735000D01*
%TO.C,C52*%
X126735000Y-101261252D02*
X126735000Y-100738748D01*
X125265000Y-101261252D02*
X125265000Y-100738748D01*
%TO.C,C54*%
X129035000Y-103988748D02*
X129035000Y-104511252D01*
X127565000Y-103988748D02*
X127565000Y-104511252D01*
%TO.C,C56*%
X129790000Y-103934420D02*
X129790000Y-104215580D01*
X130810000Y-103934420D02*
X130810000Y-104215580D01*
%TO.C,C57*%
X83565000Y-84738748D02*
X83565000Y-85261252D01*
X85035000Y-84738748D02*
X85035000Y-85261252D01*
D16*
%TO.C,CON1*%
X145259120Y-93772460D02*
X145934120Y-93772460D01*
X145929680Y-92869920D02*
X145929680Y-93769920D01*
X130075000Y-92875000D02*
X130075000Y-93775000D01*
X130075000Y-93775000D02*
X130750000Y-93775000D01*
X145425000Y-66016800D02*
X145925000Y-66016800D01*
X145925000Y-66016800D02*
X145925000Y-66524800D01*
X130075000Y-66016800D02*
X130075000Y-66524800D01*
X130075000Y-66016800D02*
X130450000Y-66016800D01*
D12*
%TO.C,D1*%
X151500000Y-85200000D02*
X150900000Y-85200000D01*
X151500000Y-85800000D02*
X150900000Y-85800000D01*
%TO.C,D6*%
X156200000Y-93735000D02*
X158485000Y-93735000D01*
X158485000Y-93735000D02*
X158485000Y-92265000D01*
X158485000Y-92265000D02*
X156200000Y-92265000D01*
%TO.C,F1*%
X165258578Y-83710000D02*
X164741422Y-83710000D01*
X165258578Y-82290000D02*
X164741422Y-82290000D01*
%TO.C,J1*%
X165700000Y-69562500D02*
X165250000Y-69562500D01*
X165700000Y-67712500D02*
X165700000Y-69562500D01*
X157900000Y-65162500D02*
X157900000Y-65412500D01*
X165700000Y-65162500D02*
X165700000Y-65412500D01*
X157900000Y-67712500D02*
X157900000Y-69562500D01*
X157900000Y-69562500D02*
X158350000Y-69562500D01*
X163500000Y-70112500D02*
X163050000Y-70112500D01*
X163500000Y-70112500D02*
X163500000Y-69662500D01*
D16*
%TO.C,J2*%
X179600000Y-68500000D02*
X179600000Y-67500000D01*
X170400000Y-68500000D02*
X170400000Y-67500000D01*
X179600000Y-61200000D02*
X179600000Y-61700000D01*
X179600000Y-61200000D02*
X179100000Y-61200000D01*
X170400000Y-61200000D02*
X170900000Y-61200000D01*
X170400000Y-61200000D02*
X170400000Y-61700000D01*
X173800000Y-70200000D02*
X176200000Y-70200000D01*
X170400000Y-75800000D02*
X170400000Y-75300000D01*
X170400000Y-75800000D02*
X170900000Y-75800000D01*
X179600000Y-75800000D02*
X179600000Y-75300000D01*
X179600000Y-75800000D02*
X179100000Y-75800000D01*
D12*
%TO.C,J10*%
X93900000Y-75600000D02*
X92100000Y-75600000D01*
X82190000Y-60420000D02*
X82840000Y-60420000D01*
X96810000Y-60420000D02*
X96810000Y-59900000D01*
X82840000Y-68530000D02*
X82840000Y-60420000D01*
X96810000Y-59900000D02*
X82190000Y-59900000D01*
X82190000Y-59900000D02*
X82190000Y-60420000D01*
X82840000Y-75380000D02*
X82840000Y-72050000D01*
X96160000Y-75380000D02*
X96160000Y-72050000D01*
X96160000Y-75380000D02*
X82840000Y-75380000D01*
X96160000Y-60420000D02*
X96810000Y-60420000D01*
X96160000Y-60420000D02*
X96160000Y-68530000D01*
%TO.C,L1*%
X178590000Y-91162779D02*
X178590000Y-90837221D01*
X179610000Y-91162779D02*
X179610000Y-90837221D01*
D10*
%TO.C,Q1*%
X153635000Y-81890000D02*
X153850000Y-81890000D01*
X160150000Y-81890000D02*
X160365000Y-81890000D01*
X160365000Y-88110000D02*
X160365000Y-81890000D01*
X153635000Y-88110000D02*
X160365000Y-88110000D01*
X153635000Y-88110000D02*
X153635000Y-81890000D01*
D12*
%TO.C,R1*%
X154237258Y-93522500D02*
X153762742Y-93522500D01*
X154237258Y-92477500D02*
X153762742Y-92477500D01*
%TO.C,R2*%
X168477500Y-88762742D02*
X168477500Y-89237258D01*
X169522500Y-88762742D02*
X169522500Y-89237258D01*
%TO.C,R3*%
X162162742Y-74477500D02*
X162637258Y-74477500D01*
X162162742Y-75522500D02*
X162637258Y-75522500D01*
%TO.C,R4*%
X156922500Y-72662742D02*
X156922500Y-73137258D01*
X155877500Y-72662742D02*
X155877500Y-73137258D01*
%TO.C,R5*%
X160322500Y-72662742D02*
X160322500Y-73137258D01*
X159277500Y-72662742D02*
X159277500Y-73137258D01*
%TO.C,R6*%
X157577500Y-72662742D02*
X157577500Y-73137258D01*
X158622500Y-72662742D02*
X158622500Y-73137258D01*
%TO.C,R7*%
X174237258Y-98522500D02*
X173762742Y-98522500D01*
X174237258Y-97477500D02*
X173762742Y-97477500D01*
%TO.C,R8*%
X161762742Y-77522500D02*
X162237258Y-77522500D01*
X161762742Y-76477500D02*
X162237258Y-76477500D01*
%TO.C,R9*%
X173762742Y-100522500D02*
X174237258Y-100522500D01*
X173762742Y-99477500D02*
X174237258Y-99477500D01*
%TO.C,R10*%
X169522500Y-92237258D02*
X169522500Y-91762742D01*
X168477500Y-92237258D02*
X168477500Y-91762742D01*
%TO.C,R11*%
X112522500Y-153762742D02*
X112522500Y-154237258D01*
X111477500Y-153762742D02*
X111477500Y-154237258D01*
%TO.C,R12*%
X117522500Y-135762742D02*
X117522500Y-136237258D01*
X116477500Y-135762742D02*
X116477500Y-136237258D01*
%TO.C,R13*%
X122522500Y-145237258D02*
X122522500Y-144762742D01*
X121477500Y-145237258D02*
X121477500Y-144762742D01*
%TO.C,R14*%
X98537258Y-121622500D02*
X98062742Y-121622500D01*
X98537258Y-120577500D02*
X98062742Y-120577500D01*
%TO.C,R15*%
X110762742Y-132522500D02*
X111237258Y-132522500D01*
X110762742Y-131477500D02*
X111237258Y-131477500D01*
%TO.C,R16*%
X109762742Y-144477500D02*
X110237258Y-144477500D01*
X109762742Y-145522500D02*
X110237258Y-145522500D01*
%TO.C,R17*%
X74022500Y-146462742D02*
X74022500Y-146937258D01*
X72977500Y-146462742D02*
X72977500Y-146937258D01*
%TO.C,R18*%
X85237258Y-139477500D02*
X84762742Y-139477500D01*
X85237258Y-140522500D02*
X84762742Y-140522500D01*
%TO.C,R19*%
X96237258Y-153477500D02*
X95762742Y-153477500D01*
X96237258Y-154522500D02*
X95762742Y-154522500D01*
%TO.C,R20*%
X85237258Y-141777500D02*
X84762742Y-141777500D01*
X85237258Y-142822500D02*
X84762742Y-142822500D01*
%TO.C,R21*%
X91477500Y-137762742D02*
X91477500Y-138237258D01*
X92522500Y-137762742D02*
X92522500Y-138237258D01*
%TO.C,R22*%
X89962742Y-144377500D02*
X90437258Y-144377500D01*
X89962742Y-145422500D02*
X90437258Y-145422500D01*
%TO.C,R23*%
X101237258Y-152522500D02*
X100762742Y-152522500D01*
X101237258Y-151477500D02*
X100762742Y-151477500D01*
%TO.C,R24*%
X97762742Y-152522500D02*
X98237258Y-152522500D01*
X97762742Y-151477500D02*
X98237258Y-151477500D01*
%TO.C,R29*%
X100237258Y-93522500D02*
X99762742Y-93522500D01*
X100237258Y-92477500D02*
X99762742Y-92477500D01*
%TO.C,R30*%
X100237258Y-91522500D02*
X99762742Y-91522500D01*
X100237258Y-90477500D02*
X99762742Y-90477500D01*
%TO.C,R31*%
X100237258Y-88477500D02*
X99762742Y-88477500D01*
X100237258Y-89522500D02*
X99762742Y-89522500D01*
%TO.C,R32*%
X64237258Y-121477500D02*
X63762742Y-121477500D01*
X64237258Y-122522500D02*
X63762742Y-122522500D01*
%TO.C,R33*%
X74762742Y-119022500D02*
X75237258Y-119022500D01*
X74762742Y-117977500D02*
X75237258Y-117977500D01*
%TO.C,R34*%
X81877500Y-81237258D02*
X81877500Y-80762742D01*
X82922500Y-81237258D02*
X82922500Y-80762742D01*
%TO.C,R35*%
X87477500Y-81237258D02*
X87477500Y-80762742D01*
X88522500Y-81237258D02*
X88522500Y-80762742D01*
%TO.C,R36*%
X137922500Y-118762742D02*
X137922500Y-119237258D01*
X136877500Y-118762742D02*
X136877500Y-119237258D01*
%TO.C,R37*%
X99762742Y-87522500D02*
X100237258Y-87522500D01*
X99762742Y-86477500D02*
X100237258Y-86477500D01*
%TO.C,R38*%
X117762742Y-84522500D02*
X118237258Y-84522500D01*
X117762742Y-83477500D02*
X118237258Y-83477500D01*
%TO.C,R39*%
X117762742Y-85477500D02*
X118237258Y-85477500D01*
X117762742Y-86522500D02*
X118237258Y-86522500D01*
%TO.C,R40*%
X117762742Y-91522500D02*
X118237258Y-91522500D01*
X117762742Y-90477500D02*
X118237258Y-90477500D01*
%TO.C,R41*%
X110477500Y-82237258D02*
X110477500Y-81762742D01*
X111522500Y-82237258D02*
X111522500Y-81762742D01*
%TO.C,R42*%
X87322500Y-111262742D02*
X87322500Y-111737258D01*
X86277500Y-111262742D02*
X86277500Y-111737258D01*
%TO.C,R43*%
X89587742Y-84522500D02*
X90062258Y-84522500D01*
X89587742Y-83477500D02*
X90062258Y-83477500D01*
%TO.C,R44*%
X113237258Y-100522500D02*
X112762742Y-100522500D01*
X113237258Y-99477500D02*
X112762742Y-99477500D01*
%TO.C,R45*%
X118237258Y-88477500D02*
X117762742Y-88477500D01*
X118237258Y-89522500D02*
X117762742Y-89522500D01*
%TO.C,R46*%
X91477500Y-79237258D02*
X91477500Y-78762742D01*
X92522500Y-79237258D02*
X92522500Y-78762742D01*
%TO.C,R48*%
X137637258Y-106822500D02*
X137162742Y-106822500D01*
X137637258Y-105777500D02*
X137162742Y-105777500D01*
%TO.C,R51*%
X137122500Y-104237258D02*
X137122500Y-103762742D01*
X136077500Y-104237258D02*
X136077500Y-103762742D01*
%TO.C,R52*%
X104762742Y-88822500D02*
X105237258Y-88822500D01*
X104762742Y-87777500D02*
X105237258Y-87777500D01*
%TO.C,U4*%
X100610000Y-159100000D02*
X100610000Y-156900000D01*
X100610000Y-159100000D02*
X100610000Y-161300000D01*
X97390000Y-159100000D02*
X97390000Y-156900000D01*
X97390000Y-159100000D02*
X97390000Y-162700000D01*
%TO.C,U5*%
X91110000Y-94590000D02*
X91110000Y-93890000D01*
X91110000Y-93890000D02*
X90410000Y-93890000D01*
X91110000Y-107410000D02*
X91110000Y-108110000D01*
X91110000Y-108110000D02*
X90410000Y-108110000D01*
X76890000Y-94590000D02*
X76890000Y-93890000D01*
X76890000Y-93890000D02*
X77590000Y-93890000D01*
X76890000Y-107410000D02*
X76890000Y-108110000D01*
X76890000Y-108110000D02*
X77590000Y-108110000D01*
X77590000Y-108110000D02*
X77590000Y-109475000D01*
%TO.C,U6*%
X115385000Y-88000000D02*
X115385000Y-85800000D01*
X115385000Y-88000000D02*
X115385000Y-90200000D01*
X108615000Y-88000000D02*
X108615000Y-85800000D01*
X108615000Y-88000000D02*
X108615000Y-91600000D01*
D16*
%TO.C,U7*%
X95325000Y-84000000D02*
X95650000Y-84000000D01*
X95650000Y-84000000D02*
X95650000Y-83700000D01*
X92675000Y-82000000D02*
X92350000Y-82000000D01*
X92350000Y-82000000D02*
X92350000Y-82300000D01*
X92650000Y-84000000D02*
X92350000Y-84000000D01*
X92350000Y-84000000D02*
X92350000Y-83675000D01*
X95650000Y-82325000D02*
X95425000Y-82000000D01*
X95425000Y-82000000D02*
X95325000Y-82000000D01*
X95325000Y-82000000D02*
X95325000Y-81475000D01*
X95650000Y-82325000D02*
X95650000Y-82700000D01*
D12*
%TO.C,U9*%
X83440000Y-81000000D02*
X83440000Y-81800000D01*
X83440000Y-81000000D02*
X83440000Y-80200000D01*
X86560000Y-81000000D02*
X86560000Y-81800000D01*
X86560000Y-81000000D02*
X86560000Y-79200000D01*
%TO.C,Y1*%
X114500000Y-146540000D02*
X115290000Y-146540000D01*
X112890000Y-145110000D02*
X112890000Y-144890000D01*
X115110000Y-145110000D02*
X115110000Y-144890000D01*
X115290000Y-145750000D02*
X115290000Y-146540000D01*
%TO.C,Y2*%
X83250000Y-113290000D02*
X82460000Y-113290000D01*
X83890000Y-113110000D02*
X84110000Y-113110000D01*
X83890000Y-110890000D02*
X84110000Y-110890000D01*
X82460000Y-112500000D02*
X82460000Y-113290000D01*
%TO.C,U1*%
D10*
X171835595Y-88652380D02*
X171835595Y-89461904D01*
X171883214Y-89557142D01*
X171930833Y-89604761D01*
X172026071Y-89652380D01*
X172216547Y-89652380D01*
X172311785Y-89604761D01*
X172359404Y-89557142D01*
X172407023Y-89461904D01*
X172407023Y-88652380D01*
X173407023Y-89652380D02*
X172835595Y-89652380D01*
X173121309Y-89652380D02*
X173121309Y-88652380D01*
X173026071Y-88795238D01*
X172930833Y-88890476D01*
X172835595Y-88938095D01*
%TO.C,J19*%
X126290476Y-148682380D02*
X126290476Y-149396666D01*
X126242857Y-149539523D01*
X126147619Y-149634761D01*
X126004761Y-149682380D01*
X125909523Y-149682380D01*
X127290476Y-149682380D02*
X126719047Y-149682380D01*
X127004761Y-149682380D02*
X127004761Y-148682380D01*
X126909523Y-148825238D01*
X126814285Y-148920476D01*
X126719047Y-148968095D01*
X127766666Y-149682380D02*
X127957142Y-149682380D01*
X128052380Y-149634761D01*
X128100000Y-149587142D01*
X128195238Y-149444285D01*
X128242857Y-149253809D01*
X128242857Y-148872857D01*
X128195238Y-148777619D01*
X128147619Y-148730000D01*
X128052380Y-148682380D01*
X127861904Y-148682380D01*
X127766666Y-148730000D01*
X127719047Y-148777619D01*
X127671428Y-148872857D01*
X127671428Y-149110952D01*
X127719047Y-149206190D01*
X127766666Y-149253809D01*
X127861904Y-149301428D01*
X128052380Y-149301428D01*
X128147619Y-149253809D01*
X128195238Y-149206190D01*
X128242857Y-149110952D01*
%TO.C,J18*%
X131590476Y-115022380D02*
X131590476Y-115736666D01*
X131542857Y-115879523D01*
X131447619Y-115974761D01*
X131304761Y-116022380D01*
X131209523Y-116022380D01*
X132590476Y-116022380D02*
X132019047Y-116022380D01*
X132304761Y-116022380D02*
X132304761Y-115022380D01*
X132209523Y-115165238D01*
X132114285Y-115260476D01*
X132019047Y-115308095D01*
X133161904Y-115450952D02*
X133066666Y-115403333D01*
X133019047Y-115355714D01*
X132971428Y-115260476D01*
X132971428Y-115212857D01*
X133019047Y-115117619D01*
X133066666Y-115070000D01*
X133161904Y-115022380D01*
X133352380Y-115022380D01*
X133447619Y-115070000D01*
X133495238Y-115117619D01*
X133542857Y-115212857D01*
X133542857Y-115260476D01*
X133495238Y-115355714D01*
X133447619Y-115403333D01*
X133352380Y-115450952D01*
X133161904Y-115450952D01*
X133066666Y-115498571D01*
X133019047Y-115546190D01*
X132971428Y-115641428D01*
X132971428Y-115831904D01*
X133019047Y-115927142D01*
X133066666Y-115974761D01*
X133161904Y-116022380D01*
X133352380Y-116022380D01*
X133447619Y-115974761D01*
X133495238Y-115927142D01*
X133542857Y-115831904D01*
X133542857Y-115641428D01*
X133495238Y-115546190D01*
X133447619Y-115498571D01*
X133352380Y-115450952D01*
%TO.C,J17*%
X70922380Y-124409523D02*
X71636666Y-124409523D01*
X71779523Y-124457142D01*
X71874761Y-124552380D01*
X71922380Y-124695238D01*
X71922380Y-124790476D01*
X71922380Y-123409523D02*
X71922380Y-123980952D01*
X71922380Y-123695238D02*
X70922380Y-123695238D01*
X71065238Y-123790476D01*
X71160476Y-123885714D01*
X71208095Y-123980952D01*
X70922380Y-123076190D02*
X70922380Y-122409523D01*
X71922380Y-122838095D01*
%TO.C,J16*%
X70552380Y-117809523D02*
X71266666Y-117809523D01*
X71409523Y-117857142D01*
X71504761Y-117952380D01*
X71552380Y-118095238D01*
X71552380Y-118190476D01*
X71552380Y-116809523D02*
X71552380Y-117380952D01*
X71552380Y-117095238D02*
X70552380Y-117095238D01*
X70695238Y-117190476D01*
X70790476Y-117285714D01*
X70838095Y-117380952D01*
X70552380Y-115952380D02*
X70552380Y-116142857D01*
X70600000Y-116238095D01*
X70647619Y-116285714D01*
X70790476Y-116380952D01*
X70980952Y-116428571D01*
X71361904Y-116428571D01*
X71457142Y-116380952D01*
X71504761Y-116333333D01*
X71552380Y-116238095D01*
X71552380Y-116047619D01*
X71504761Y-115952380D01*
X71457142Y-115904761D01*
X71361904Y-115857142D01*
X71123809Y-115857142D01*
X71028571Y-115904761D01*
X70980952Y-115952380D01*
X70933333Y-116047619D01*
X70933333Y-116238095D01*
X70980952Y-116333333D01*
X71028571Y-116380952D01*
X71123809Y-116428571D01*
%TO.C,J15*%
X121190476Y-131722380D02*
X121190476Y-132436666D01*
X121142857Y-132579523D01*
X121047619Y-132674761D01*
X120904761Y-132722380D01*
X120809523Y-132722380D01*
X122190476Y-132722380D02*
X121619047Y-132722380D01*
X121904761Y-132722380D02*
X121904761Y-131722380D01*
X121809523Y-131865238D01*
X121714285Y-131960476D01*
X121619047Y-132008095D01*
X123095238Y-131722380D02*
X122619047Y-131722380D01*
X122571428Y-132198571D01*
X122619047Y-132150952D01*
X122714285Y-132103333D01*
X122952380Y-132103333D01*
X123047619Y-132150952D01*
X123095238Y-132198571D01*
X123142857Y-132293809D01*
X123142857Y-132531904D01*
X123095238Y-132627142D01*
X123047619Y-132674761D01*
X122952380Y-132722380D01*
X122714285Y-132722380D01*
X122619047Y-132674761D01*
X122571428Y-132627142D01*
%TO.C,J14*%
X116690476Y-152022380D02*
X116690476Y-152736666D01*
X116642857Y-152879523D01*
X116547619Y-152974761D01*
X116404761Y-153022380D01*
X116309523Y-153022380D01*
X117690476Y-153022380D02*
X117119047Y-153022380D01*
X117404761Y-153022380D02*
X117404761Y-152022380D01*
X117309523Y-152165238D01*
X117214285Y-152260476D01*
X117119047Y-152308095D01*
X118547619Y-152355714D02*
X118547619Y-153022380D01*
X118309523Y-151974761D02*
X118071428Y-152689047D01*
X118690476Y-152689047D01*
%TO.C,J11*%
X63825476Y-95757380D02*
X63825476Y-96471666D01*
X63777857Y-96614523D01*
X63682619Y-96709761D01*
X63539761Y-96757380D01*
X63444523Y-96757380D01*
X64825476Y-96757380D02*
X64254047Y-96757380D01*
X64539761Y-96757380D02*
X64539761Y-95757380D01*
X64444523Y-95900238D01*
X64349285Y-95995476D01*
X64254047Y-96043095D01*
X65777857Y-96757380D02*
X65206428Y-96757380D01*
X65492142Y-96757380D02*
X65492142Y-95757380D01*
X65396904Y-95900238D01*
X65301666Y-95995476D01*
X65206428Y-96043095D01*
%TO.C,J3*%
X84301666Y-147757380D02*
X84301666Y-148471666D01*
X84254047Y-148614523D01*
X84158809Y-148709761D01*
X84015952Y-148757380D01*
X83920714Y-148757380D01*
X84682619Y-147757380D02*
X85301666Y-147757380D01*
X84968333Y-148138333D01*
X85111190Y-148138333D01*
X85206428Y-148185952D01*
X85254047Y-148233571D01*
X85301666Y-148328809D01*
X85301666Y-148566904D01*
X85254047Y-148662142D01*
X85206428Y-148709761D01*
X85111190Y-148757380D01*
X84825476Y-148757380D01*
X84730238Y-148709761D01*
X84682619Y-148662142D01*
%TO.C,R28*%
X93557142Y-88182380D02*
X93223809Y-87706190D01*
X92985714Y-88182380D02*
X92985714Y-87182380D01*
X93366666Y-87182380D01*
X93461904Y-87230000D01*
X93509523Y-87277619D01*
X93557142Y-87372857D01*
X93557142Y-87515714D01*
X93509523Y-87610952D01*
X93461904Y-87658571D01*
X93366666Y-87706190D01*
X92985714Y-87706190D01*
X93938095Y-87277619D02*
X93985714Y-87230000D01*
X94080952Y-87182380D01*
X94319047Y-87182380D01*
X94414285Y-87230000D01*
X94461904Y-87277619D01*
X94509523Y-87372857D01*
X94509523Y-87468095D01*
X94461904Y-87610952D01*
X93890476Y-88182380D01*
X94509523Y-88182380D01*
X95080952Y-87610952D02*
X94985714Y-87563333D01*
X94938095Y-87515714D01*
X94890476Y-87420476D01*
X94890476Y-87372857D01*
X94938095Y-87277619D01*
X94985714Y-87230000D01*
X95080952Y-87182380D01*
X95271428Y-87182380D01*
X95366666Y-87230000D01*
X95414285Y-87277619D01*
X95461904Y-87372857D01*
X95461904Y-87420476D01*
X95414285Y-87515714D01*
X95366666Y-87563333D01*
X95271428Y-87610952D01*
X95080952Y-87610952D01*
X94985714Y-87658571D01*
X94938095Y-87706190D01*
X94890476Y-87801428D01*
X94890476Y-87991904D01*
X94938095Y-88087142D01*
X94985714Y-88134761D01*
X95080952Y-88182380D01*
X95271428Y-88182380D01*
X95366666Y-88134761D01*
X95414285Y-88087142D01*
X95461904Y-87991904D01*
X95461904Y-87801428D01*
X95414285Y-87706190D01*
X95366666Y-87658571D01*
X95271428Y-87610952D01*
%TO.C,R27*%
X90557142Y-88252380D02*
X90223809Y-87776190D01*
X89985714Y-88252380D02*
X89985714Y-87252380D01*
X90366666Y-87252380D01*
X90461904Y-87300000D01*
X90509523Y-87347619D01*
X90557142Y-87442857D01*
X90557142Y-87585714D01*
X90509523Y-87680952D01*
X90461904Y-87728571D01*
X90366666Y-87776190D01*
X89985714Y-87776190D01*
X90938095Y-87347619D02*
X90985714Y-87300000D01*
X91080952Y-87252380D01*
X91319047Y-87252380D01*
X91414285Y-87300000D01*
X91461904Y-87347619D01*
X91509523Y-87442857D01*
X91509523Y-87538095D01*
X91461904Y-87680952D01*
X90890476Y-88252380D01*
X91509523Y-88252380D01*
X91842857Y-87252380D02*
X92509523Y-87252380D01*
X92080952Y-88252380D01*
%TO.C,C50*%
X176557142Y-108357142D02*
X176509523Y-108404761D01*
X176366666Y-108452380D01*
X176271428Y-108452380D01*
X176128571Y-108404761D01*
X176033333Y-108309523D01*
X175985714Y-108214285D01*
X175938095Y-108023809D01*
X175938095Y-107880952D01*
X175985714Y-107690476D01*
X176033333Y-107595238D01*
X176128571Y-107500000D01*
X176271428Y-107452380D01*
X176366666Y-107452380D01*
X176509523Y-107500000D01*
X176557142Y-107547619D01*
X177461904Y-107452380D02*
X176985714Y-107452380D01*
X176938095Y-107928571D01*
X176985714Y-107880952D01*
X177080952Y-107833333D01*
X177319047Y-107833333D01*
X177414285Y-107880952D01*
X177461904Y-107928571D01*
X177509523Y-108023809D01*
X177509523Y-108261904D01*
X177461904Y-108357142D01*
X177414285Y-108404761D01*
X177319047Y-108452380D01*
X177080952Y-108452380D01*
X176985714Y-108404761D01*
X176938095Y-108357142D01*
X178128571Y-107452380D02*
X178223809Y-107452380D01*
X178319047Y-107500000D01*
X178366666Y-107547619D01*
X178414285Y-107642857D01*
X178461904Y-107833333D01*
X178461904Y-108071428D01*
X178414285Y-108261904D01*
X178366666Y-108357142D01*
X178319047Y-108404761D01*
X178223809Y-108452380D01*
X178128571Y-108452380D01*
X178033333Y-108404761D01*
X177985714Y-108357142D01*
X177938095Y-108261904D01*
X177890476Y-108071428D01*
X177890476Y-107833333D01*
X177938095Y-107642857D01*
X177985714Y-107547619D01*
X178033333Y-107500000D01*
X178128571Y-107452380D01*
%TO.C,C55*%
X169557142Y-105357142D02*
X169509523Y-105404761D01*
X169366666Y-105452380D01*
X169271428Y-105452380D01*
X169128571Y-105404761D01*
X169033333Y-105309523D01*
X168985714Y-105214285D01*
X168938095Y-105023809D01*
X168938095Y-104880952D01*
X168985714Y-104690476D01*
X169033333Y-104595238D01*
X169128571Y-104500000D01*
X169271428Y-104452380D01*
X169366666Y-104452380D01*
X169509523Y-104500000D01*
X169557142Y-104547619D01*
X170461904Y-104452380D02*
X169985714Y-104452380D01*
X169938095Y-104928571D01*
X169985714Y-104880952D01*
X170080952Y-104833333D01*
X170319047Y-104833333D01*
X170414285Y-104880952D01*
X170461904Y-104928571D01*
X170509523Y-105023809D01*
X170509523Y-105261904D01*
X170461904Y-105357142D01*
X170414285Y-105404761D01*
X170319047Y-105452380D01*
X170080952Y-105452380D01*
X169985714Y-105404761D01*
X169938095Y-105357142D01*
X171414285Y-104452380D02*
X170938095Y-104452380D01*
X170890476Y-104928571D01*
X170938095Y-104880952D01*
X171033333Y-104833333D01*
X171271428Y-104833333D01*
X171366666Y-104880952D01*
X171414285Y-104928571D01*
X171461904Y-105023809D01*
X171461904Y-105261904D01*
X171414285Y-105357142D01*
X171366666Y-105404761D01*
X171271428Y-105452380D01*
X171033333Y-105452380D01*
X170938095Y-105404761D01*
X170890476Y-105357142D01*
%TO.C,U3*%
X92538095Y-141952380D02*
X92538095Y-142761904D01*
X92585714Y-142857142D01*
X92633333Y-142904761D01*
X92728571Y-142952380D01*
X92919047Y-142952380D01*
X93014285Y-142904761D01*
X93061904Y-142857142D01*
X93109523Y-142761904D01*
X93109523Y-141952380D01*
X93490476Y-141952380D02*
X94109523Y-141952380D01*
X93776190Y-142333333D01*
X93919047Y-142333333D01*
X94014285Y-142380952D01*
X94061904Y-142428571D01*
X94109523Y-142523809D01*
X94109523Y-142761904D01*
X94061904Y-142857142D01*
X94014285Y-142904761D01*
X93919047Y-142952380D01*
X93633333Y-142952380D01*
X93538095Y-142904761D01*
X93490476Y-142857142D01*
%TO.C,C13*%
X112157142Y-140342857D02*
X112204761Y-140390476D01*
X112252380Y-140533333D01*
X112252380Y-140628571D01*
X112204761Y-140771428D01*
X112109523Y-140866666D01*
X112014285Y-140914285D01*
X111823809Y-140961904D01*
X111680952Y-140961904D01*
X111490476Y-140914285D01*
X111395238Y-140866666D01*
X111300000Y-140771428D01*
X111252380Y-140628571D01*
X111252380Y-140533333D01*
X111300000Y-140390476D01*
X111347619Y-140342857D01*
X112252380Y-139390476D02*
X112252380Y-139961904D01*
X112252380Y-139676190D02*
X111252380Y-139676190D01*
X111395238Y-139771428D01*
X111490476Y-139866666D01*
X111538095Y-139961904D01*
X111252380Y-139057142D02*
X111252380Y-138438095D01*
X111633333Y-138771428D01*
X111633333Y-138628571D01*
X111680952Y-138533333D01*
X111728571Y-138485714D01*
X111823809Y-138438095D01*
X112061904Y-138438095D01*
X112157142Y-138485714D01*
X112204761Y-138533333D01*
X112252380Y-138628571D01*
X112252380Y-138914285D01*
X112204761Y-139009523D01*
X112157142Y-139057142D01*
%TO.C,U2*%
D17*
X178433470Y-121763818D02*
X179245027Y-121763818D01*
X179340505Y-121716080D01*
X179388243Y-121668341D01*
X179435982Y-121572864D01*
X179435982Y-121381909D01*
X179388243Y-121286432D01*
X179340505Y-121238693D01*
X179245027Y-121190954D01*
X178433470Y-121190954D01*
X178528947Y-120761306D02*
X178481209Y-120713568D01*
X178433470Y-120618090D01*
X178433470Y-120379397D01*
X178481209Y-120283920D01*
X178528947Y-120236181D01*
X178624425Y-120188442D01*
X178719902Y-120188442D01*
X178863118Y-120236181D01*
X179435982Y-120809045D01*
X179435982Y-120188442D01*
%TO.C,R49*%
D10*
X140657142Y-100352380D02*
X140323809Y-99876190D01*
X140085714Y-100352380D02*
X140085714Y-99352380D01*
X140466666Y-99352380D01*
X140561904Y-99400000D01*
X140609523Y-99447619D01*
X140657142Y-99542857D01*
X140657142Y-99685714D01*
X140609523Y-99780952D01*
X140561904Y-99828571D01*
X140466666Y-99876190D01*
X140085714Y-99876190D01*
X141514285Y-99685714D02*
X141514285Y-100352380D01*
X141276190Y-99304761D02*
X141038095Y-100019047D01*
X141657142Y-100019047D01*
X142085714Y-100352380D02*
X142276190Y-100352380D01*
X142371428Y-100304761D01*
X142419047Y-100257142D01*
X142514285Y-100114285D01*
X142561904Y-99923809D01*
X142561904Y-99542857D01*
X142514285Y-99447619D01*
X142466666Y-99400000D01*
X142371428Y-99352380D01*
X142180952Y-99352380D01*
X142085714Y-99400000D01*
X142038095Y-99447619D01*
X141990476Y-99542857D01*
X141990476Y-99780952D01*
X142038095Y-99876190D01*
X142085714Y-99923809D01*
X142180952Y-99971428D01*
X142371428Y-99971428D01*
X142466666Y-99923809D01*
X142514285Y-99876190D01*
X142561904Y-99780952D01*
%TO.C,C20*%
X94157142Y-97657142D02*
X94109523Y-97704761D01*
X93966666Y-97752380D01*
X93871428Y-97752380D01*
X93728571Y-97704761D01*
X93633333Y-97609523D01*
X93585714Y-97514285D01*
X93538095Y-97323809D01*
X93538095Y-97180952D01*
X93585714Y-96990476D01*
X93633333Y-96895238D01*
X93728571Y-96800000D01*
X93871428Y-96752380D01*
X93966666Y-96752380D01*
X94109523Y-96800000D01*
X94157142Y-96847619D01*
X94538095Y-96847619D02*
X94585714Y-96800000D01*
X94680952Y-96752380D01*
X94919047Y-96752380D01*
X95014285Y-96800000D01*
X95061904Y-96847619D01*
X95109523Y-96942857D01*
X95109523Y-97038095D01*
X95061904Y-97180952D01*
X94490476Y-97752380D01*
X95109523Y-97752380D01*
X95728571Y-96752380D02*
X95823809Y-96752380D01*
X95919047Y-96800000D01*
X95966666Y-96847619D01*
X96014285Y-96942857D01*
X96061904Y-97133333D01*
X96061904Y-97371428D01*
X96014285Y-97561904D01*
X95966666Y-97657142D01*
X95919047Y-97704761D01*
X95823809Y-97752380D01*
X95728571Y-97752380D01*
X95633333Y-97704761D01*
X95585714Y-97657142D01*
X95538095Y-97561904D01*
X95490476Y-97371428D01*
X95490476Y-97133333D01*
X95538095Y-96942857D01*
X95585714Y-96847619D01*
X95633333Y-96800000D01*
X95728571Y-96752380D01*
%TO.C,C30*%
X84057142Y-115957142D02*
X84009523Y-116004761D01*
X83866666Y-116052380D01*
X83771428Y-116052380D01*
X83628571Y-116004761D01*
X83533333Y-115909523D01*
X83485714Y-115814285D01*
X83438095Y-115623809D01*
X83438095Y-115480952D01*
X83485714Y-115290476D01*
X83533333Y-115195238D01*
X83628571Y-115100000D01*
X83771428Y-115052380D01*
X83866666Y-115052380D01*
X84009523Y-115100000D01*
X84057142Y-115147619D01*
X84390476Y-115052380D02*
X85009523Y-115052380D01*
X84676190Y-115433333D01*
X84819047Y-115433333D01*
X84914285Y-115480952D01*
X84961904Y-115528571D01*
X85009523Y-115623809D01*
X85009523Y-115861904D01*
X84961904Y-115957142D01*
X84914285Y-116004761D01*
X84819047Y-116052380D01*
X84533333Y-116052380D01*
X84438095Y-116004761D01*
X84390476Y-115957142D01*
X85628571Y-115052380D02*
X85723809Y-115052380D01*
X85819047Y-115100000D01*
X85866666Y-115147619D01*
X85914285Y-115242857D01*
X85961904Y-115433333D01*
X85961904Y-115671428D01*
X85914285Y-115861904D01*
X85866666Y-115957142D01*
X85819047Y-116004761D01*
X85723809Y-116052380D01*
X85628571Y-116052380D01*
X85533333Y-116004761D01*
X85485714Y-115957142D01*
X85438095Y-115861904D01*
X85390476Y-115671428D01*
X85390476Y-115433333D01*
X85438095Y-115242857D01*
X85485714Y-115147619D01*
X85533333Y-115100000D01*
X85628571Y-115052380D01*
%TO.C,R26*%
X147512380Y-117552857D02*
X147036190Y-117886190D01*
X147512380Y-118124285D02*
X146512380Y-118124285D01*
X146512380Y-117743333D01*
X146560000Y-117648095D01*
X146607619Y-117600476D01*
X146702857Y-117552857D01*
X146845714Y-117552857D01*
X146940952Y-117600476D01*
X146988571Y-117648095D01*
X147036190Y-117743333D01*
X147036190Y-118124285D01*
X146607619Y-117171904D02*
X146560000Y-117124285D01*
X146512380Y-117029047D01*
X146512380Y-116790952D01*
X146560000Y-116695714D01*
X146607619Y-116648095D01*
X146702857Y-116600476D01*
X146798095Y-116600476D01*
X146940952Y-116648095D01*
X147512380Y-117219523D01*
X147512380Y-116600476D01*
X146512380Y-115743333D02*
X146512380Y-115933809D01*
X146560000Y-116029047D01*
X146607619Y-116076666D01*
X146750476Y-116171904D01*
X146940952Y-116219523D01*
X147321904Y-116219523D01*
X147417142Y-116171904D01*
X147464761Y-116124285D01*
X147512380Y-116029047D01*
X147512380Y-115838571D01*
X147464761Y-115743333D01*
X147417142Y-115695714D01*
X147321904Y-115648095D01*
X147083809Y-115648095D01*
X146988571Y-115695714D01*
X146940952Y-115743333D01*
X146893333Y-115838571D01*
X146893333Y-116029047D01*
X146940952Y-116124285D01*
X146988571Y-116171904D01*
X147083809Y-116219523D01*
%TO.C,R25*%
X144157142Y-97652380D02*
X143823809Y-97176190D01*
X143585714Y-97652380D02*
X143585714Y-96652380D01*
X143966666Y-96652380D01*
X144061904Y-96700000D01*
X144109523Y-96747619D01*
X144157142Y-96842857D01*
X144157142Y-96985714D01*
X144109523Y-97080952D01*
X144061904Y-97128571D01*
X143966666Y-97176190D01*
X143585714Y-97176190D01*
X144538095Y-96747619D02*
X144585714Y-96700000D01*
X144680952Y-96652380D01*
X144919047Y-96652380D01*
X145014285Y-96700000D01*
X145061904Y-96747619D01*
X145109523Y-96842857D01*
X145109523Y-96938095D01*
X145061904Y-97080952D01*
X144490476Y-97652380D01*
X145109523Y-97652380D01*
X146014285Y-96652380D02*
X145538095Y-96652380D01*
X145490476Y-97128571D01*
X145538095Y-97080952D01*
X145633333Y-97033333D01*
X145871428Y-97033333D01*
X145966666Y-97080952D01*
X146014285Y-97128571D01*
X146061904Y-97223809D01*
X146061904Y-97461904D01*
X146014285Y-97557142D01*
X145966666Y-97604761D01*
X145871428Y-97652380D01*
X145633333Y-97652380D01*
X145538095Y-97604761D01*
X145490476Y-97557142D01*
%TO.C,D3*%
X144532380Y-113638095D02*
X143532380Y-113638095D01*
X143532380Y-113400000D01*
X143580000Y-113257142D01*
X143675238Y-113161904D01*
X143770476Y-113114285D01*
X143960952Y-113066666D01*
X144103809Y-113066666D01*
X144294285Y-113114285D01*
X144389523Y-113161904D01*
X144484761Y-113257142D01*
X144532380Y-113400000D01*
X144532380Y-113638095D01*
X143532380Y-112733333D02*
X143532380Y-112114285D01*
X143913333Y-112447619D01*
X143913333Y-112304761D01*
X143960952Y-112209523D01*
X144008571Y-112161904D01*
X144103809Y-112114285D01*
X144341904Y-112114285D01*
X144437142Y-112161904D01*
X144484761Y-112209523D01*
X144532380Y-112304761D01*
X144532380Y-112590476D01*
X144484761Y-112685714D01*
X144437142Y-112733333D01*
%TO.C,D2*%
X140061904Y-97752380D02*
X140061904Y-96752380D01*
X140300000Y-96752380D01*
X140442857Y-96800000D01*
X140538095Y-96895238D01*
X140585714Y-96990476D01*
X140633333Y-97180952D01*
X140633333Y-97323809D01*
X140585714Y-97514285D01*
X140538095Y-97609523D01*
X140442857Y-97704761D01*
X140300000Y-97752380D01*
X140061904Y-97752380D01*
X141014285Y-96847619D02*
X141061904Y-96800000D01*
X141157142Y-96752380D01*
X141395238Y-96752380D01*
X141490476Y-96800000D01*
X141538095Y-96847619D01*
X141585714Y-96942857D01*
X141585714Y-97038095D01*
X141538095Y-97180952D01*
X140966666Y-97752380D01*
X141585714Y-97752380D01*
%TO.C,J8*%
X75966666Y-141852380D02*
X75966666Y-142566666D01*
X75919047Y-142709523D01*
X75823809Y-142804761D01*
X75680952Y-142852380D01*
X75585714Y-142852380D01*
X76585714Y-142280952D02*
X76490476Y-142233333D01*
X76442857Y-142185714D01*
X76395238Y-142090476D01*
X76395238Y-142042857D01*
X76442857Y-141947619D01*
X76490476Y-141900000D01*
X76585714Y-141852380D01*
X76776190Y-141852380D01*
X76871428Y-141900000D01*
X76919047Y-141947619D01*
X76966666Y-142042857D01*
X76966666Y-142090476D01*
X76919047Y-142185714D01*
X76871428Y-142233333D01*
X76776190Y-142280952D01*
X76585714Y-142280952D01*
X76490476Y-142328571D01*
X76442857Y-142376190D01*
X76395238Y-142471428D01*
X76395238Y-142661904D01*
X76442857Y-142757142D01*
X76490476Y-142804761D01*
X76585714Y-142852380D01*
X76776190Y-142852380D01*
X76871428Y-142804761D01*
X76919047Y-142757142D01*
X76966666Y-142661904D01*
X76966666Y-142471428D01*
X76919047Y-142376190D01*
X76871428Y-142328571D01*
X76776190Y-142280952D01*
%TO.C,J9*%
X107122380Y-76333333D02*
X107836666Y-76333333D01*
X107979523Y-76380952D01*
X108074761Y-76476190D01*
X108122380Y-76619047D01*
X108122380Y-76714285D01*
X108122380Y-75809523D02*
X108122380Y-75619047D01*
X108074761Y-75523809D01*
X108027142Y-75476190D01*
X107884285Y-75380952D01*
X107693809Y-75333333D01*
X107312857Y-75333333D01*
X107217619Y-75380952D01*
X107170000Y-75428571D01*
X107122380Y-75523809D01*
X107122380Y-75714285D01*
X107170000Y-75809523D01*
X107217619Y-75857142D01*
X107312857Y-75904761D01*
X107550952Y-75904761D01*
X107646190Y-75857142D01*
X107693809Y-75809523D01*
X107741428Y-75714285D01*
X107741428Y-75523809D01*
X107693809Y-75428571D01*
X107646190Y-75380952D01*
X107550952Y-75333333D01*
%TO.C,H4*%
X188238095Y-149152380D02*
X188238095Y-148152380D01*
X188238095Y-148628571D02*
X188809523Y-148628571D01*
X188809523Y-149152380D02*
X188809523Y-148152380D01*
X189714285Y-148485714D02*
X189714285Y-149152380D01*
X189476190Y-148104761D02*
X189238095Y-148819047D01*
X189857142Y-148819047D01*
%TO.C,H3*%
X68238095Y-149152380D02*
X68238095Y-148152380D01*
X68238095Y-148628571D02*
X68809523Y-148628571D01*
X68809523Y-149152380D02*
X68809523Y-148152380D01*
X69190476Y-148152380D02*
X69809523Y-148152380D01*
X69476190Y-148533333D01*
X69619047Y-148533333D01*
X69714285Y-148580952D01*
X69761904Y-148628571D01*
X69809523Y-148723809D01*
X69809523Y-148961904D01*
X69761904Y-149057142D01*
X69714285Y-149104761D01*
X69619047Y-149152380D01*
X69333333Y-149152380D01*
X69238095Y-149104761D01*
X69190476Y-149057142D01*
%TO.C,H2*%
X68238095Y-69152380D02*
X68238095Y-68152380D01*
X68238095Y-68628571D02*
X68809523Y-68628571D01*
X68809523Y-69152380D02*
X68809523Y-68152380D01*
X69238095Y-68247619D02*
X69285714Y-68200000D01*
X69380952Y-68152380D01*
X69619047Y-68152380D01*
X69714285Y-68200000D01*
X69761904Y-68247619D01*
X69809523Y-68342857D01*
X69809523Y-68438095D01*
X69761904Y-68580952D01*
X69190476Y-69152380D01*
X69809523Y-69152380D01*
%TO.C,H1*%
X188238095Y-69152380D02*
X188238095Y-68152380D01*
X188238095Y-68628571D02*
X188809523Y-68628571D01*
X188809523Y-69152380D02*
X188809523Y-68152380D01*
X189809523Y-69152380D02*
X189238095Y-69152380D01*
X189523809Y-69152380D02*
X189523809Y-68152380D01*
X189428571Y-68295238D01*
X189333333Y-68390476D01*
X189238095Y-68438095D01*
%TO.C,J7*%
X62566666Y-124222380D02*
X62566666Y-124936666D01*
X62519047Y-125079523D01*
X62423809Y-125174761D01*
X62280952Y-125222380D01*
X62185714Y-125222380D01*
X62947619Y-124222380D02*
X63614285Y-124222380D01*
X63185714Y-125222380D01*
%TO.C,U8*%
X133238095Y-101452380D02*
X133238095Y-102261904D01*
X133285714Y-102357142D01*
X133333333Y-102404761D01*
X133428571Y-102452380D01*
X133619047Y-102452380D01*
X133714285Y-102404761D01*
X133761904Y-102357142D01*
X133809523Y-102261904D01*
X133809523Y-101452380D01*
X134428571Y-101880952D02*
X134333333Y-101833333D01*
X134285714Y-101785714D01*
X134238095Y-101690476D01*
X134238095Y-101642857D01*
X134285714Y-101547619D01*
X134333333Y-101500000D01*
X134428571Y-101452380D01*
X134619047Y-101452380D01*
X134714285Y-101500000D01*
X134761904Y-101547619D01*
X134809523Y-101642857D01*
X134809523Y-101690476D01*
X134761904Y-101785714D01*
X134714285Y-101833333D01*
X134619047Y-101880952D01*
X134428571Y-101880952D01*
X134333333Y-101928571D01*
X134285714Y-101976190D01*
X134238095Y-102071428D01*
X134238095Y-102261904D01*
X134285714Y-102357142D01*
X134333333Y-102404761D01*
X134428571Y-102452380D01*
X134619047Y-102452380D01*
X134714285Y-102404761D01*
X134761904Y-102357142D01*
X134809523Y-102261904D01*
X134809523Y-102071428D01*
X134761904Y-101976190D01*
X134714285Y-101928571D01*
X134619047Y-101880952D01*
X130833333Y-96452380D02*
X130357142Y-96452380D01*
X130357142Y-95452380D01*
X131166666Y-96452380D02*
X131166666Y-95452380D01*
X131500000Y-96166666D01*
X131833333Y-95452380D01*
X131833333Y-96452380D01*
X132214285Y-95452380D02*
X132833333Y-95452380D01*
X132500000Y-95833333D01*
X132642857Y-95833333D01*
X132738095Y-95880952D01*
X132785714Y-95928571D01*
X132833333Y-96023809D01*
X132833333Y-96261904D01*
X132785714Y-96357142D01*
X132738095Y-96404761D01*
X132642857Y-96452380D01*
X132357142Y-96452380D01*
X132261904Y-96404761D01*
X132214285Y-96357142D01*
X133785714Y-96452380D02*
X133214285Y-96452380D01*
X133500000Y-96452380D02*
X133500000Y-95452380D01*
X133404761Y-95595238D01*
X133309523Y-95690476D01*
X133214285Y-95738095D01*
X134119047Y-95452380D02*
X134785714Y-95452380D01*
X134357142Y-96452380D01*
X135166666Y-96452380D02*
X135166666Y-95452380D01*
X135738095Y-96452380D02*
X135309523Y-95880952D01*
X135738095Y-95452380D02*
X135166666Y-96023809D01*
X136738095Y-96357142D02*
X136690476Y-96404761D01*
X136547619Y-96452380D01*
X136452380Y-96452380D01*
X136309523Y-96404761D01*
X136214285Y-96309523D01*
X136166666Y-96214285D01*
X136119047Y-96023809D01*
X136119047Y-95880952D01*
X136166666Y-95690476D01*
X136214285Y-95595238D01*
X136309523Y-95500000D01*
X136452380Y-95452380D01*
X136547619Y-95452380D01*
X136690476Y-95500000D01*
X136738095Y-95547619D01*
X137119047Y-96404761D02*
X137261904Y-96452380D01*
X137500000Y-96452380D01*
X137595238Y-96404761D01*
X137642857Y-96357142D01*
X137690476Y-96261904D01*
X137690476Y-96166666D01*
X137642857Y-96071428D01*
X137595238Y-96023809D01*
X137500000Y-95976190D01*
X137309523Y-95928571D01*
X137214285Y-95880952D01*
X137166666Y-95833333D01*
X137119047Y-95738095D01*
X137119047Y-95642857D01*
X137166666Y-95547619D01*
X137214285Y-95500000D01*
X137309523Y-95452380D01*
X137547619Y-95452380D01*
X137690476Y-95500000D01*
X134000000Y-101452380D02*
X134000000Y-101690476D01*
X133761904Y-101595238D02*
X134000000Y-101690476D01*
X134238095Y-101595238D01*
X133857142Y-101880952D02*
X134000000Y-101690476D01*
X134142857Y-101880952D01*
%TO.C,C53*%
X169257142Y-109757142D02*
X169209523Y-109804761D01*
X169066666Y-109852380D01*
X168971428Y-109852380D01*
X168828571Y-109804761D01*
X168733333Y-109709523D01*
X168685714Y-109614285D01*
X168638095Y-109423809D01*
X168638095Y-109280952D01*
X168685714Y-109090476D01*
X168733333Y-108995238D01*
X168828571Y-108900000D01*
X168971428Y-108852380D01*
X169066666Y-108852380D01*
X169209523Y-108900000D01*
X169257142Y-108947619D01*
X170161904Y-108852380D02*
X169685714Y-108852380D01*
X169638095Y-109328571D01*
X169685714Y-109280952D01*
X169780952Y-109233333D01*
X170019047Y-109233333D01*
X170114285Y-109280952D01*
X170161904Y-109328571D01*
X170209523Y-109423809D01*
X170209523Y-109661904D01*
X170161904Y-109757142D01*
X170114285Y-109804761D01*
X170019047Y-109852380D01*
X169780952Y-109852380D01*
X169685714Y-109804761D01*
X169638095Y-109757142D01*
X170542857Y-108852380D02*
X171161904Y-108852380D01*
X170828571Y-109233333D01*
X170971428Y-109233333D01*
X171066666Y-109280952D01*
X171114285Y-109328571D01*
X171161904Y-109423809D01*
X171161904Y-109661904D01*
X171114285Y-109757142D01*
X171066666Y-109804761D01*
X170971428Y-109852380D01*
X170685714Y-109852380D01*
X170590476Y-109804761D01*
X170542857Y-109757142D01*
%TO.C,C51*%
X158757142Y-95157142D02*
X158709523Y-95204761D01*
X158566666Y-95252380D01*
X158471428Y-95252380D01*
X158328571Y-95204761D01*
X158233333Y-95109523D01*
X158185714Y-95014285D01*
X158138095Y-94823809D01*
X158138095Y-94680952D01*
X158185714Y-94490476D01*
X158233333Y-94395238D01*
X158328571Y-94300000D01*
X158471428Y-94252380D01*
X158566666Y-94252380D01*
X158709523Y-94300000D01*
X158757142Y-94347619D01*
X159661904Y-94252380D02*
X159185714Y-94252380D01*
X159138095Y-94728571D01*
X159185714Y-94680952D01*
X159280952Y-94633333D01*
X159519047Y-94633333D01*
X159614285Y-94680952D01*
X159661904Y-94728571D01*
X159709523Y-94823809D01*
X159709523Y-95061904D01*
X159661904Y-95157142D01*
X159614285Y-95204761D01*
X159519047Y-95252380D01*
X159280952Y-95252380D01*
X159185714Y-95204761D01*
X159138095Y-95157142D01*
X160661904Y-95252380D02*
X160090476Y-95252380D01*
X160376190Y-95252380D02*
X160376190Y-94252380D01*
X160280952Y-94395238D01*
X160185714Y-94490476D01*
X160090476Y-94538095D01*
%TO.C,L2*%
X167852380Y-105066666D02*
X167852380Y-105542857D01*
X166852380Y-105542857D01*
X166947619Y-104780952D02*
X166900000Y-104733333D01*
X166852380Y-104638095D01*
X166852380Y-104400000D01*
X166900000Y-104304761D01*
X166947619Y-104257142D01*
X167042857Y-104209523D01*
X167138095Y-104209523D01*
X167280952Y-104257142D01*
X167852380Y-104828571D01*
X167852380Y-104209523D01*
%TO.C,J13*%
X82422380Y-122009523D02*
X83136666Y-122009523D01*
X83279523Y-122057142D01*
X83374761Y-122152380D01*
X83422380Y-122295238D01*
X83422380Y-122390476D01*
X83422380Y-121009523D02*
X83422380Y-121580952D01*
X83422380Y-121295238D02*
X82422380Y-121295238D01*
X82565238Y-121390476D01*
X82660476Y-121485714D01*
X82708095Y-121580952D01*
X82422380Y-120676190D02*
X82422380Y-120057142D01*
X82803333Y-120390476D01*
X82803333Y-120247619D01*
X82850952Y-120152380D01*
X82898571Y-120104761D01*
X82993809Y-120057142D01*
X83231904Y-120057142D01*
X83327142Y-120104761D01*
X83374761Y-120152380D01*
X83422380Y-120247619D01*
X83422380Y-120533333D01*
X83374761Y-120628571D01*
X83327142Y-120676190D01*
%TO.C,J12*%
X150952380Y-79609523D02*
X151666666Y-79609523D01*
X151809523Y-79657142D01*
X151904761Y-79752380D01*
X151952380Y-79895238D01*
X151952380Y-79990476D01*
X151952380Y-78609523D02*
X151952380Y-79180952D01*
X151952380Y-78895238D02*
X150952380Y-78895238D01*
X151095238Y-78990476D01*
X151190476Y-79085714D01*
X151238095Y-79180952D01*
X151047619Y-78228571D02*
X151000000Y-78180952D01*
X150952380Y-78085714D01*
X150952380Y-77847619D01*
X151000000Y-77752380D01*
X151047619Y-77704761D01*
X151142857Y-77657142D01*
X151238095Y-77657142D01*
X151380952Y-77704761D01*
X151952380Y-78276190D01*
X151952380Y-77657142D01*
%TO.C,J6*%
X112782380Y-161333333D02*
X113496666Y-161333333D01*
X113639523Y-161380952D01*
X113734761Y-161476190D01*
X113782380Y-161619047D01*
X113782380Y-161714285D01*
X112782380Y-160428571D02*
X112782380Y-160619047D01*
X112830000Y-160714285D01*
X112877619Y-160761904D01*
X113020476Y-160857142D01*
X113210952Y-160904761D01*
X113591904Y-160904761D01*
X113687142Y-160857142D01*
X113734761Y-160809523D01*
X113782380Y-160714285D01*
X113782380Y-160523809D01*
X113734761Y-160428571D01*
X113687142Y-160380952D01*
X113591904Y-160333333D01*
X113353809Y-160333333D01*
X113258571Y-160380952D01*
X113210952Y-160428571D01*
X113163333Y-160523809D01*
X113163333Y-160714285D01*
X113210952Y-160809523D01*
X113258571Y-160857142D01*
X113353809Y-160904761D01*
%TO.C,J5*%
X115166666Y-127622380D02*
X115166666Y-128336666D01*
X115119047Y-128479523D01*
X115023809Y-128574761D01*
X114880952Y-128622380D01*
X114785714Y-128622380D01*
X116119047Y-127622380D02*
X115642857Y-127622380D01*
X115595238Y-128098571D01*
X115642857Y-128050952D01*
X115738095Y-128003333D01*
X115976190Y-128003333D01*
X116071428Y-128050952D01*
X116119047Y-128098571D01*
X116166666Y-128193809D01*
X116166666Y-128431904D01*
X116119047Y-128527142D01*
X116071428Y-128574761D01*
X115976190Y-128622380D01*
X115738095Y-128622380D01*
X115642857Y-128574761D01*
X115595238Y-128527142D01*
%TO.C,J4*%
X66452380Y-128333333D02*
X67166666Y-128333333D01*
X67309523Y-128380952D01*
X67404761Y-128476190D01*
X67452380Y-128619047D01*
X67452380Y-128714285D01*
X66785714Y-127428571D02*
X67452380Y-127428571D01*
X66404761Y-127666666D02*
X67119047Y-127904761D01*
X67119047Y-127285714D01*
%TO.C,C1*%
X151033333Y-89537142D02*
X150985714Y-89584761D01*
X150842857Y-89632380D01*
X150747619Y-89632380D01*
X150604761Y-89584761D01*
X150509523Y-89489523D01*
X150461904Y-89394285D01*
X150414285Y-89203809D01*
X150414285Y-89060952D01*
X150461904Y-88870476D01*
X150509523Y-88775238D01*
X150604761Y-88680000D01*
X150747619Y-88632380D01*
X150842857Y-88632380D01*
X150985714Y-88680000D01*
X151033333Y-88727619D01*
X151985714Y-89632380D02*
X151414285Y-89632380D01*
X151700000Y-89632380D02*
X151700000Y-88632380D01*
X151604761Y-88775238D01*
X151509523Y-88870476D01*
X151414285Y-88918095D01*
%TO.C,C2*%
X163733333Y-95957142D02*
X163685714Y-96004761D01*
X163542857Y-96052380D01*
X163447619Y-96052380D01*
X163304761Y-96004761D01*
X163209523Y-95909523D01*
X163161904Y-95814285D01*
X163114285Y-95623809D01*
X163114285Y-95480952D01*
X163161904Y-95290476D01*
X163209523Y-95195238D01*
X163304761Y-95100000D01*
X163447619Y-95052380D01*
X163542857Y-95052380D01*
X163685714Y-95100000D01*
X163733333Y-95147619D01*
X164114285Y-95147619D02*
X164161904Y-95100000D01*
X164257142Y-95052380D01*
X164495238Y-95052380D01*
X164590476Y-95100000D01*
X164638095Y-95147619D01*
X164685714Y-95242857D01*
X164685714Y-95338095D01*
X164638095Y-95480952D01*
X164066666Y-96052380D01*
X164685714Y-96052380D01*
%TO.C,C3*%
X166037142Y-90566666D02*
X166084761Y-90614285D01*
X166132380Y-90757142D01*
X166132380Y-90852380D01*
X166084761Y-90995238D01*
X165989523Y-91090476D01*
X165894285Y-91138095D01*
X165703809Y-91185714D01*
X165560952Y-91185714D01*
X165370476Y-91138095D01*
X165275238Y-91090476D01*
X165180000Y-90995238D01*
X165132380Y-90852380D01*
X165132380Y-90757142D01*
X165180000Y-90614285D01*
X165227619Y-90566666D01*
X165132380Y-90233333D02*
X165132380Y-89614285D01*
X165513333Y-89947619D01*
X165513333Y-89804761D01*
X165560952Y-89709523D01*
X165608571Y-89661904D01*
X165703809Y-89614285D01*
X165941904Y-89614285D01*
X166037142Y-89661904D01*
X166084761Y-89709523D01*
X166132380Y-89804761D01*
X166132380Y-90090476D01*
X166084761Y-90185714D01*
X166037142Y-90233333D01*
%TO.C,C4*%
X175633333Y-86957142D02*
X175585714Y-87004761D01*
X175442857Y-87052380D01*
X175347619Y-87052380D01*
X175204761Y-87004761D01*
X175109523Y-86909523D01*
X175061904Y-86814285D01*
X175014285Y-86623809D01*
X175014285Y-86480952D01*
X175061904Y-86290476D01*
X175109523Y-86195238D01*
X175204761Y-86100000D01*
X175347619Y-86052380D01*
X175442857Y-86052380D01*
X175585714Y-86100000D01*
X175633333Y-86147619D01*
X176490476Y-86385714D02*
X176490476Y-87052380D01*
X176252380Y-86004761D02*
X176014285Y-86719047D01*
X176633333Y-86719047D01*
%TO.C,C5*%
X170857142Y-93366666D02*
X170904761Y-93414285D01*
X170952380Y-93557142D01*
X170952380Y-93652380D01*
X170904761Y-93795238D01*
X170809523Y-93890476D01*
X170714285Y-93938095D01*
X170523809Y-93985714D01*
X170380952Y-93985714D01*
X170190476Y-93938095D01*
X170095238Y-93890476D01*
X170000000Y-93795238D01*
X169952380Y-93652380D01*
X169952380Y-93557142D01*
X170000000Y-93414285D01*
X170047619Y-93366666D01*
X169952380Y-92461904D02*
X169952380Y-92938095D01*
X170428571Y-92985714D01*
X170380952Y-92938095D01*
X170333333Y-92842857D01*
X170333333Y-92604761D01*
X170380952Y-92509523D01*
X170428571Y-92461904D01*
X170523809Y-92414285D01*
X170761904Y-92414285D01*
X170857142Y-92461904D01*
X170904761Y-92509523D01*
X170952380Y-92604761D01*
X170952380Y-92842857D01*
X170904761Y-92938095D01*
X170857142Y-92985714D01*
%TO.C,C6*%
X177333333Y-95757142D02*
X177285714Y-95804761D01*
X177142857Y-95852380D01*
X177047619Y-95852380D01*
X176904761Y-95804761D01*
X176809523Y-95709523D01*
X176761904Y-95614285D01*
X176714285Y-95423809D01*
X176714285Y-95280952D01*
X176761904Y-95090476D01*
X176809523Y-94995238D01*
X176904761Y-94900000D01*
X177047619Y-94852380D01*
X177142857Y-94852380D01*
X177285714Y-94900000D01*
X177333333Y-94947619D01*
X178190476Y-94852380D02*
X178000000Y-94852380D01*
X177904761Y-94900000D01*
X177857142Y-94947619D01*
X177761904Y-95090476D01*
X177714285Y-95280952D01*
X177714285Y-95661904D01*
X177761904Y-95757142D01*
X177809523Y-95804761D01*
X177904761Y-95852380D01*
X178095238Y-95852380D01*
X178190476Y-95804761D01*
X178238095Y-95757142D01*
X178285714Y-95661904D01*
X178285714Y-95423809D01*
X178238095Y-95328571D01*
X178190476Y-95280952D01*
X178095238Y-95233333D01*
X177904761Y-95233333D01*
X177809523Y-95280952D01*
X177761904Y-95328571D01*
X177714285Y-95423809D01*
%TO.C,C7*%
X119357142Y-133566666D02*
X119404761Y-133614285D01*
X119452380Y-133757142D01*
X119452380Y-133852380D01*
X119404761Y-133995238D01*
X119309523Y-134090476D01*
X119214285Y-134138095D01*
X119023809Y-134185714D01*
X118880952Y-134185714D01*
X118690476Y-134138095D01*
X118595238Y-134090476D01*
X118500000Y-133995238D01*
X118452380Y-133852380D01*
X118452380Y-133757142D01*
X118500000Y-133614285D01*
X118547619Y-133566666D01*
X118452380Y-133233333D02*
X118452380Y-132566666D01*
X119452380Y-132995238D01*
%TO.C,C8*%
X124357142Y-148166666D02*
X124404761Y-148214285D01*
X124452380Y-148357142D01*
X124452380Y-148452380D01*
X124404761Y-148595238D01*
X124309523Y-148690476D01*
X124214285Y-148738095D01*
X124023809Y-148785714D01*
X123880952Y-148785714D01*
X123690476Y-148738095D01*
X123595238Y-148690476D01*
X123500000Y-148595238D01*
X123452380Y-148452380D01*
X123452380Y-148357142D01*
X123500000Y-148214285D01*
X123547619Y-148166666D01*
X123880952Y-147595238D02*
X123833333Y-147690476D01*
X123785714Y-147738095D01*
X123690476Y-147785714D01*
X123642857Y-147785714D01*
X123547619Y-147738095D01*
X123500000Y-147690476D01*
X123452380Y-147595238D01*
X123452380Y-147404761D01*
X123500000Y-147309523D01*
X123547619Y-147261904D01*
X123642857Y-147214285D01*
X123690476Y-147214285D01*
X123785714Y-147261904D01*
X123833333Y-147309523D01*
X123880952Y-147404761D01*
X123880952Y-147595238D01*
X123928571Y-147690476D01*
X123976190Y-147738095D01*
X124071428Y-147785714D01*
X124261904Y-147785714D01*
X124357142Y-147738095D01*
X124404761Y-147690476D01*
X124452380Y-147595238D01*
X124452380Y-147404761D01*
X124404761Y-147309523D01*
X124357142Y-147261904D01*
X124261904Y-147214285D01*
X124071428Y-147214285D01*
X123976190Y-147261904D01*
X123928571Y-147309523D01*
X123880952Y-147404761D01*
%TO.C,C9*%
X115357142Y-156866666D02*
X115404761Y-156914285D01*
X115452380Y-157057142D01*
X115452380Y-157152380D01*
X115404761Y-157295238D01*
X115309523Y-157390476D01*
X115214285Y-157438095D01*
X115023809Y-157485714D01*
X114880952Y-157485714D01*
X114690476Y-157438095D01*
X114595238Y-157390476D01*
X114500000Y-157295238D01*
X114452380Y-157152380D01*
X114452380Y-157057142D01*
X114500000Y-156914285D01*
X114547619Y-156866666D01*
X115452380Y-156390476D02*
X115452380Y-156200000D01*
X115404761Y-156104761D01*
X115357142Y-156057142D01*
X115214285Y-155961904D01*
X115023809Y-155914285D01*
X114642857Y-155914285D01*
X114547619Y-155961904D01*
X114500000Y-156009523D01*
X114452380Y-156104761D01*
X114452380Y-156295238D01*
X114500000Y-156390476D01*
X114547619Y-156438095D01*
X114642857Y-156485714D01*
X114880952Y-156485714D01*
X114976190Y-156438095D01*
X115023809Y-156390476D01*
X115071428Y-156295238D01*
X115071428Y-156104761D01*
X115023809Y-156009523D01*
X114976190Y-155961904D01*
X114880952Y-155914285D01*
%TO.C,C10*%
X93357142Y-135357142D02*
X93309523Y-135404761D01*
X93166666Y-135452380D01*
X93071428Y-135452380D01*
X92928571Y-135404761D01*
X92833333Y-135309523D01*
X92785714Y-135214285D01*
X92738095Y-135023809D01*
X92738095Y-134880952D01*
X92785714Y-134690476D01*
X92833333Y-134595238D01*
X92928571Y-134500000D01*
X93071428Y-134452380D01*
X93166666Y-134452380D01*
X93309523Y-134500000D01*
X93357142Y-134547619D01*
X94309523Y-135452380D02*
X93738095Y-135452380D01*
X94023809Y-135452380D02*
X94023809Y-134452380D01*
X93928571Y-134595238D01*
X93833333Y-134690476D01*
X93738095Y-134738095D01*
X94928571Y-134452380D02*
X95023809Y-134452380D01*
X95119047Y-134500000D01*
X95166666Y-134547619D01*
X95214285Y-134642857D01*
X95261904Y-134833333D01*
X95261904Y-135071428D01*
X95214285Y-135261904D01*
X95166666Y-135357142D01*
X95119047Y-135404761D01*
X95023809Y-135452380D01*
X94928571Y-135452380D01*
X94833333Y-135404761D01*
X94785714Y-135357142D01*
X94738095Y-135261904D01*
X94690476Y-135071428D01*
X94690476Y-134833333D01*
X94738095Y-134642857D01*
X94785714Y-134547619D01*
X94833333Y-134500000D01*
X94928571Y-134452380D01*
%TO.C,C11*%
X112857142Y-149242857D02*
X112904761Y-149290476D01*
X112952380Y-149433333D01*
X112952380Y-149528571D01*
X112904761Y-149671428D01*
X112809523Y-149766666D01*
X112714285Y-149814285D01*
X112523809Y-149861904D01*
X112380952Y-149861904D01*
X112190476Y-149814285D01*
X112095238Y-149766666D01*
X112000000Y-149671428D01*
X111952380Y-149528571D01*
X111952380Y-149433333D01*
X112000000Y-149290476D01*
X112047619Y-149242857D01*
X112952380Y-148290476D02*
X112952380Y-148861904D01*
X112952380Y-148576190D02*
X111952380Y-148576190D01*
X112095238Y-148671428D01*
X112190476Y-148766666D01*
X112238095Y-148861904D01*
X112952380Y-147338095D02*
X112952380Y-147909523D01*
X112952380Y-147623809D02*
X111952380Y-147623809D01*
X112095238Y-147719047D01*
X112190476Y-147814285D01*
X112238095Y-147909523D01*
%TO.C,C12*%
X107957142Y-151357142D02*
X107909523Y-151404761D01*
X107766666Y-151452380D01*
X107671428Y-151452380D01*
X107528571Y-151404761D01*
X107433333Y-151309523D01*
X107385714Y-151214285D01*
X107338095Y-151023809D01*
X107338095Y-150880952D01*
X107385714Y-150690476D01*
X107433333Y-150595238D01*
X107528571Y-150500000D01*
X107671428Y-150452380D01*
X107766666Y-150452380D01*
X107909523Y-150500000D01*
X107957142Y-150547619D01*
X108909523Y-151452380D02*
X108338095Y-151452380D01*
X108623809Y-151452380D02*
X108623809Y-150452380D01*
X108528571Y-150595238D01*
X108433333Y-150690476D01*
X108338095Y-150738095D01*
X109290476Y-150547619D02*
X109338095Y-150500000D01*
X109433333Y-150452380D01*
X109671428Y-150452380D01*
X109766666Y-150500000D01*
X109814285Y-150547619D01*
X109861904Y-150642857D01*
X109861904Y-150738095D01*
X109814285Y-150880952D01*
X109242857Y-151452380D01*
X109861904Y-151452380D01*
%TO.C,C14*%
X109357142Y-137642857D02*
X109404761Y-137690476D01*
X109452380Y-137833333D01*
X109452380Y-137928571D01*
X109404761Y-138071428D01*
X109309523Y-138166666D01*
X109214285Y-138214285D01*
X109023809Y-138261904D01*
X108880952Y-138261904D01*
X108690476Y-138214285D01*
X108595238Y-138166666D01*
X108500000Y-138071428D01*
X108452380Y-137928571D01*
X108452380Y-137833333D01*
X108500000Y-137690476D01*
X108547619Y-137642857D01*
X109452380Y-136690476D02*
X109452380Y-137261904D01*
X109452380Y-136976190D02*
X108452380Y-136976190D01*
X108595238Y-137071428D01*
X108690476Y-137166666D01*
X108738095Y-137261904D01*
X108785714Y-135833333D02*
X109452380Y-135833333D01*
X108404761Y-136071428D02*
X109119047Y-136309523D01*
X109119047Y-135690476D01*
%TO.C,C15*%
X107257142Y-153657142D02*
X107209523Y-153704761D01*
X107066666Y-153752380D01*
X106971428Y-153752380D01*
X106828571Y-153704761D01*
X106733333Y-153609523D01*
X106685714Y-153514285D01*
X106638095Y-153323809D01*
X106638095Y-153180952D01*
X106685714Y-152990476D01*
X106733333Y-152895238D01*
X106828571Y-152800000D01*
X106971428Y-152752380D01*
X107066666Y-152752380D01*
X107209523Y-152800000D01*
X107257142Y-152847619D01*
X108209523Y-153752380D02*
X107638095Y-153752380D01*
X107923809Y-153752380D02*
X107923809Y-152752380D01*
X107828571Y-152895238D01*
X107733333Y-152990476D01*
X107638095Y-153038095D01*
X109114285Y-152752380D02*
X108638095Y-152752380D01*
X108590476Y-153228571D01*
X108638095Y-153180952D01*
X108733333Y-153133333D01*
X108971428Y-153133333D01*
X109066666Y-153180952D01*
X109114285Y-153228571D01*
X109161904Y-153323809D01*
X109161904Y-153561904D01*
X109114285Y-153657142D01*
X109066666Y-153704761D01*
X108971428Y-153752380D01*
X108733333Y-153752380D01*
X108638095Y-153704761D01*
X108590476Y-153657142D01*
%TO.C,C16*%
X93357142Y-133357142D02*
X93309523Y-133404761D01*
X93166666Y-133452380D01*
X93071428Y-133452380D01*
X92928571Y-133404761D01*
X92833333Y-133309523D01*
X92785714Y-133214285D01*
X92738095Y-133023809D01*
X92738095Y-132880952D01*
X92785714Y-132690476D01*
X92833333Y-132595238D01*
X92928571Y-132500000D01*
X93071428Y-132452380D01*
X93166666Y-132452380D01*
X93309523Y-132500000D01*
X93357142Y-132547619D01*
X94309523Y-133452380D02*
X93738095Y-133452380D01*
X94023809Y-133452380D02*
X94023809Y-132452380D01*
X93928571Y-132595238D01*
X93833333Y-132690476D01*
X93738095Y-132738095D01*
X95166666Y-132452380D02*
X94976190Y-132452380D01*
X94880952Y-132500000D01*
X94833333Y-132547619D01*
X94738095Y-132690476D01*
X94690476Y-132880952D01*
X94690476Y-133261904D01*
X94738095Y-133357142D01*
X94785714Y-133404761D01*
X94880952Y-133452380D01*
X95071428Y-133452380D01*
X95166666Y-133404761D01*
X95214285Y-133357142D01*
X95261904Y-133261904D01*
X95261904Y-133023809D01*
X95214285Y-132928571D01*
X95166666Y-132880952D01*
X95071428Y-132833333D01*
X94880952Y-132833333D01*
X94785714Y-132880952D01*
X94738095Y-132928571D01*
X94690476Y-133023809D01*
%TO.C,C17*%
X108457142Y-146957142D02*
X108409523Y-147004761D01*
X108266666Y-147052380D01*
X108171428Y-147052380D01*
X108028571Y-147004761D01*
X107933333Y-146909523D01*
X107885714Y-146814285D01*
X107838095Y-146623809D01*
X107838095Y-146480952D01*
X107885714Y-146290476D01*
X107933333Y-146195238D01*
X108028571Y-146100000D01*
X108171428Y-146052380D01*
X108266666Y-146052380D01*
X108409523Y-146100000D01*
X108457142Y-146147619D01*
X109409523Y-147052380D02*
X108838095Y-147052380D01*
X109123809Y-147052380D02*
X109123809Y-146052380D01*
X109028571Y-146195238D01*
X108933333Y-146290476D01*
X108838095Y-146338095D01*
X109742857Y-146052380D02*
X110409523Y-146052380D01*
X109980952Y-147052380D01*
%TO.C,C18*%
X94357142Y-160642857D02*
X94404761Y-160690476D01*
X94452380Y-160833333D01*
X94452380Y-160928571D01*
X94404761Y-161071428D01*
X94309523Y-161166666D01*
X94214285Y-161214285D01*
X94023809Y-161261904D01*
X93880952Y-161261904D01*
X93690476Y-161214285D01*
X93595238Y-161166666D01*
X93500000Y-161071428D01*
X93452380Y-160928571D01*
X93452380Y-160833333D01*
X93500000Y-160690476D01*
X93547619Y-160642857D01*
X94452380Y-159690476D02*
X94452380Y-160261904D01*
X94452380Y-159976190D02*
X93452380Y-159976190D01*
X93595238Y-160071428D01*
X93690476Y-160166666D01*
X93738095Y-160261904D01*
X93880952Y-159119047D02*
X93833333Y-159214285D01*
X93785714Y-159261904D01*
X93690476Y-159309523D01*
X93642857Y-159309523D01*
X93547619Y-159261904D01*
X93500000Y-159214285D01*
X93452380Y-159119047D01*
X93452380Y-158928571D01*
X93500000Y-158833333D01*
X93547619Y-158785714D01*
X93642857Y-158738095D01*
X93690476Y-158738095D01*
X93785714Y-158785714D01*
X93833333Y-158833333D01*
X93880952Y-158928571D01*
X93880952Y-159119047D01*
X93928571Y-159214285D01*
X93976190Y-159261904D01*
X94071428Y-159309523D01*
X94261904Y-159309523D01*
X94357142Y-159261904D01*
X94404761Y-159214285D01*
X94452380Y-159119047D01*
X94452380Y-158928571D01*
X94404761Y-158833333D01*
X94357142Y-158785714D01*
X94261904Y-158738095D01*
X94071428Y-158738095D01*
X93976190Y-158785714D01*
X93928571Y-158833333D01*
X93880952Y-158928571D01*
%TO.C,C19*%
X96357142Y-160642857D02*
X96404761Y-160690476D01*
X96452380Y-160833333D01*
X96452380Y-160928571D01*
X96404761Y-161071428D01*
X96309523Y-161166666D01*
X96214285Y-161214285D01*
X96023809Y-161261904D01*
X95880952Y-161261904D01*
X95690476Y-161214285D01*
X95595238Y-161166666D01*
X95500000Y-161071428D01*
X95452380Y-160928571D01*
X95452380Y-160833333D01*
X95500000Y-160690476D01*
X95547619Y-160642857D01*
X96452380Y-159690476D02*
X96452380Y-160261904D01*
X96452380Y-159976190D02*
X95452380Y-159976190D01*
X95595238Y-160071428D01*
X95690476Y-160166666D01*
X95738095Y-160261904D01*
X96452380Y-159214285D02*
X96452380Y-159023809D01*
X96404761Y-158928571D01*
X96357142Y-158880952D01*
X96214285Y-158785714D01*
X96023809Y-158738095D01*
X95642857Y-158738095D01*
X95547619Y-158785714D01*
X95500000Y-158833333D01*
X95452380Y-158928571D01*
X95452380Y-159119047D01*
X95500000Y-159214285D01*
X95547619Y-159261904D01*
X95642857Y-159309523D01*
X95880952Y-159309523D01*
X95976190Y-159261904D01*
X96023809Y-159214285D01*
X96071428Y-159119047D01*
X96071428Y-158928571D01*
X96023809Y-158833333D01*
X95976190Y-158785714D01*
X95880952Y-158738095D01*
%TO.C,C21*%
X79357142Y-87642857D02*
X79404761Y-87690476D01*
X79452380Y-87833333D01*
X79452380Y-87928571D01*
X79404761Y-88071428D01*
X79309523Y-88166666D01*
X79214285Y-88214285D01*
X79023809Y-88261904D01*
X78880952Y-88261904D01*
X78690476Y-88214285D01*
X78595238Y-88166666D01*
X78500000Y-88071428D01*
X78452380Y-87928571D01*
X78452380Y-87833333D01*
X78500000Y-87690476D01*
X78547619Y-87642857D01*
X78547619Y-87261904D02*
X78500000Y-87214285D01*
X78452380Y-87119047D01*
X78452380Y-86880952D01*
X78500000Y-86785714D01*
X78547619Y-86738095D01*
X78642857Y-86690476D01*
X78738095Y-86690476D01*
X78880952Y-86738095D01*
X79452380Y-87309523D01*
X79452380Y-86690476D01*
X79452380Y-85738095D02*
X79452380Y-86309523D01*
X79452380Y-86023809D02*
X78452380Y-86023809D01*
X78595238Y-86119047D01*
X78690476Y-86214285D01*
X78738095Y-86309523D01*
%TO.C,C22*%
X66457142Y-120357142D02*
X66409523Y-120404761D01*
X66266666Y-120452380D01*
X66171428Y-120452380D01*
X66028571Y-120404761D01*
X65933333Y-120309523D01*
X65885714Y-120214285D01*
X65838095Y-120023809D01*
X65838095Y-119880952D01*
X65885714Y-119690476D01*
X65933333Y-119595238D01*
X66028571Y-119500000D01*
X66171428Y-119452380D01*
X66266666Y-119452380D01*
X66409523Y-119500000D01*
X66457142Y-119547619D01*
X66838095Y-119547619D02*
X66885714Y-119500000D01*
X66980952Y-119452380D01*
X67219047Y-119452380D01*
X67314285Y-119500000D01*
X67361904Y-119547619D01*
X67409523Y-119642857D01*
X67409523Y-119738095D01*
X67361904Y-119880952D01*
X66790476Y-120452380D01*
X67409523Y-120452380D01*
X67790476Y-119547619D02*
X67838095Y-119500000D01*
X67933333Y-119452380D01*
X68171428Y-119452380D01*
X68266666Y-119500000D01*
X68314285Y-119547619D01*
X68361904Y-119642857D01*
X68361904Y-119738095D01*
X68314285Y-119880952D01*
X67742857Y-120452380D01*
X68361904Y-120452380D01*
%TO.C,C23*%
X71157142Y-120757142D02*
X71109523Y-120804761D01*
X70966666Y-120852380D01*
X70871428Y-120852380D01*
X70728571Y-120804761D01*
X70633333Y-120709523D01*
X70585714Y-120614285D01*
X70538095Y-120423809D01*
X70538095Y-120280952D01*
X70585714Y-120090476D01*
X70633333Y-119995238D01*
X70728571Y-119900000D01*
X70871428Y-119852380D01*
X70966666Y-119852380D01*
X71109523Y-119900000D01*
X71157142Y-119947619D01*
X71538095Y-119947619D02*
X71585714Y-119900000D01*
X71680952Y-119852380D01*
X71919047Y-119852380D01*
X72014285Y-119900000D01*
X72061904Y-119947619D01*
X72109523Y-120042857D01*
X72109523Y-120138095D01*
X72061904Y-120280952D01*
X71490476Y-120852380D01*
X72109523Y-120852380D01*
X72442857Y-119852380D02*
X73061904Y-119852380D01*
X72728571Y-120233333D01*
X72871428Y-120233333D01*
X72966666Y-120280952D01*
X73014285Y-120328571D01*
X73061904Y-120423809D01*
X73061904Y-120661904D01*
X73014285Y-120757142D01*
X72966666Y-120804761D01*
X72871428Y-120852380D01*
X72585714Y-120852380D01*
X72490476Y-120804761D01*
X72442857Y-120757142D01*
%TO.C,C24*%
X135857142Y-116442857D02*
X135904761Y-116490476D01*
X135952380Y-116633333D01*
X135952380Y-116728571D01*
X135904761Y-116871428D01*
X135809523Y-116966666D01*
X135714285Y-117014285D01*
X135523809Y-117061904D01*
X135380952Y-117061904D01*
X135190476Y-117014285D01*
X135095238Y-116966666D01*
X135000000Y-116871428D01*
X134952380Y-116728571D01*
X134952380Y-116633333D01*
X135000000Y-116490476D01*
X135047619Y-116442857D01*
X135047619Y-116061904D02*
X135000000Y-116014285D01*
X134952380Y-115919047D01*
X134952380Y-115680952D01*
X135000000Y-115585714D01*
X135047619Y-115538095D01*
X135142857Y-115490476D01*
X135238095Y-115490476D01*
X135380952Y-115538095D01*
X135952380Y-116109523D01*
X135952380Y-115490476D01*
X135285714Y-114633333D02*
X135952380Y-114633333D01*
X134904761Y-114871428D02*
X135619047Y-115109523D01*
X135619047Y-114490476D01*
%TO.C,C25*%
X73257142Y-114057142D02*
X73209523Y-114104761D01*
X73066666Y-114152380D01*
X72971428Y-114152380D01*
X72828571Y-114104761D01*
X72733333Y-114009523D01*
X72685714Y-113914285D01*
X72638095Y-113723809D01*
X72638095Y-113580952D01*
X72685714Y-113390476D01*
X72733333Y-113295238D01*
X72828571Y-113200000D01*
X72971428Y-113152380D01*
X73066666Y-113152380D01*
X73209523Y-113200000D01*
X73257142Y-113247619D01*
X73638095Y-113247619D02*
X73685714Y-113200000D01*
X73780952Y-113152380D01*
X74019047Y-113152380D01*
X74114285Y-113200000D01*
X74161904Y-113247619D01*
X74209523Y-113342857D01*
X74209523Y-113438095D01*
X74161904Y-113580952D01*
X73590476Y-114152380D01*
X74209523Y-114152380D01*
X75114285Y-113152380D02*
X74638095Y-113152380D01*
X74590476Y-113628571D01*
X74638095Y-113580952D01*
X74733333Y-113533333D01*
X74971428Y-113533333D01*
X75066666Y-113580952D01*
X75114285Y-113628571D01*
X75161904Y-113723809D01*
X75161904Y-113961904D01*
X75114285Y-114057142D01*
X75066666Y-114104761D01*
X74971428Y-114152380D01*
X74733333Y-114152380D01*
X74638095Y-114104761D01*
X74590476Y-114057142D01*
%TO.C,C26*%
X69677142Y-108642857D02*
X69724761Y-108690476D01*
X69772380Y-108833333D01*
X69772380Y-108928571D01*
X69724761Y-109071428D01*
X69629523Y-109166666D01*
X69534285Y-109214285D01*
X69343809Y-109261904D01*
X69200952Y-109261904D01*
X69010476Y-109214285D01*
X68915238Y-109166666D01*
X68820000Y-109071428D01*
X68772380Y-108928571D01*
X68772380Y-108833333D01*
X68820000Y-108690476D01*
X68867619Y-108642857D01*
X68867619Y-108261904D02*
X68820000Y-108214285D01*
X68772380Y-108119047D01*
X68772380Y-107880952D01*
X68820000Y-107785714D01*
X68867619Y-107738095D01*
X68962857Y-107690476D01*
X69058095Y-107690476D01*
X69200952Y-107738095D01*
X69772380Y-108309523D01*
X69772380Y-107690476D01*
X68772380Y-106833333D02*
X68772380Y-107023809D01*
X68820000Y-107119047D01*
X68867619Y-107166666D01*
X69010476Y-107261904D01*
X69200952Y-107309523D01*
X69581904Y-107309523D01*
X69677142Y-107261904D01*
X69724761Y-107214285D01*
X69772380Y-107119047D01*
X69772380Y-106928571D01*
X69724761Y-106833333D01*
X69677142Y-106785714D01*
X69581904Y-106738095D01*
X69343809Y-106738095D01*
X69248571Y-106785714D01*
X69200952Y-106833333D01*
X69153333Y-106928571D01*
X69153333Y-107119047D01*
X69200952Y-107214285D01*
X69248571Y-107261904D01*
X69343809Y-107309523D01*
%TO.C,C27*%
X98357142Y-110642857D02*
X98404761Y-110690476D01*
X98452380Y-110833333D01*
X98452380Y-110928571D01*
X98404761Y-111071428D01*
X98309523Y-111166666D01*
X98214285Y-111214285D01*
X98023809Y-111261904D01*
X97880952Y-111261904D01*
X97690476Y-111214285D01*
X97595238Y-111166666D01*
X97500000Y-111071428D01*
X97452380Y-110928571D01*
X97452380Y-110833333D01*
X97500000Y-110690476D01*
X97547619Y-110642857D01*
X97547619Y-110261904D02*
X97500000Y-110214285D01*
X97452380Y-110119047D01*
X97452380Y-109880952D01*
X97500000Y-109785714D01*
X97547619Y-109738095D01*
X97642857Y-109690476D01*
X97738095Y-109690476D01*
X97880952Y-109738095D01*
X98452380Y-110309523D01*
X98452380Y-109690476D01*
X97452380Y-109357142D02*
X97452380Y-108690476D01*
X98452380Y-109119047D01*
%TO.C,C28*%
X80057142Y-117042857D02*
X80104761Y-117090476D01*
X80152380Y-117233333D01*
X80152380Y-117328571D01*
X80104761Y-117471428D01*
X80009523Y-117566666D01*
X79914285Y-117614285D01*
X79723809Y-117661904D01*
X79580952Y-117661904D01*
X79390476Y-117614285D01*
X79295238Y-117566666D01*
X79200000Y-117471428D01*
X79152380Y-117328571D01*
X79152380Y-117233333D01*
X79200000Y-117090476D01*
X79247619Y-117042857D01*
X79247619Y-116661904D02*
X79200000Y-116614285D01*
X79152380Y-116519047D01*
X79152380Y-116280952D01*
X79200000Y-116185714D01*
X79247619Y-116138095D01*
X79342857Y-116090476D01*
X79438095Y-116090476D01*
X79580952Y-116138095D01*
X80152380Y-116709523D01*
X80152380Y-116090476D01*
X79580952Y-115519047D02*
X79533333Y-115614285D01*
X79485714Y-115661904D01*
X79390476Y-115709523D01*
X79342857Y-115709523D01*
X79247619Y-115661904D01*
X79200000Y-115614285D01*
X79152380Y-115519047D01*
X79152380Y-115328571D01*
X79200000Y-115233333D01*
X79247619Y-115185714D01*
X79342857Y-115138095D01*
X79390476Y-115138095D01*
X79485714Y-115185714D01*
X79533333Y-115233333D01*
X79580952Y-115328571D01*
X79580952Y-115519047D01*
X79628571Y-115614285D01*
X79676190Y-115661904D01*
X79771428Y-115709523D01*
X79961904Y-115709523D01*
X80057142Y-115661904D01*
X80104761Y-115614285D01*
X80152380Y-115519047D01*
X80152380Y-115328571D01*
X80104761Y-115233333D01*
X80057142Y-115185714D01*
X79961904Y-115138095D01*
X79771428Y-115138095D01*
X79676190Y-115185714D01*
X79628571Y-115233333D01*
X79580952Y-115328571D01*
%TO.C,C29*%
X73157142Y-105857142D02*
X73109523Y-105904761D01*
X72966666Y-105952380D01*
X72871428Y-105952380D01*
X72728571Y-105904761D01*
X72633333Y-105809523D01*
X72585714Y-105714285D01*
X72538095Y-105523809D01*
X72538095Y-105380952D01*
X72585714Y-105190476D01*
X72633333Y-105095238D01*
X72728571Y-105000000D01*
X72871428Y-104952380D01*
X72966666Y-104952380D01*
X73109523Y-105000000D01*
X73157142Y-105047619D01*
X73538095Y-105047619D02*
X73585714Y-105000000D01*
X73680952Y-104952380D01*
X73919047Y-104952380D01*
X74014285Y-105000000D01*
X74061904Y-105047619D01*
X74109523Y-105142857D01*
X74109523Y-105238095D01*
X74061904Y-105380952D01*
X73490476Y-105952380D01*
X74109523Y-105952380D01*
X74585714Y-105952380D02*
X74776190Y-105952380D01*
X74871428Y-105904761D01*
X74919047Y-105857142D01*
X75014285Y-105714285D01*
X75061904Y-105523809D01*
X75061904Y-105142857D01*
X75014285Y-105047619D01*
X74966666Y-105000000D01*
X74871428Y-104952380D01*
X74680952Y-104952380D01*
X74585714Y-105000000D01*
X74538095Y-105047619D01*
X74490476Y-105142857D01*
X74490476Y-105380952D01*
X74538095Y-105476190D01*
X74585714Y-105523809D01*
X74680952Y-105571428D01*
X74871428Y-105571428D01*
X74966666Y-105523809D01*
X75014285Y-105476190D01*
X75061904Y-105380952D01*
%TO.C,C31*%
X94357142Y-113642857D02*
X94404761Y-113690476D01*
X94452380Y-113833333D01*
X94452380Y-113928571D01*
X94404761Y-114071428D01*
X94309523Y-114166666D01*
X94214285Y-114214285D01*
X94023809Y-114261904D01*
X93880952Y-114261904D01*
X93690476Y-114214285D01*
X93595238Y-114166666D01*
X93500000Y-114071428D01*
X93452380Y-113928571D01*
X93452380Y-113833333D01*
X93500000Y-113690476D01*
X93547619Y-113642857D01*
X93452380Y-113309523D02*
X93452380Y-112690476D01*
X93833333Y-113023809D01*
X93833333Y-112880952D01*
X93880952Y-112785714D01*
X93928571Y-112738095D01*
X94023809Y-112690476D01*
X94261904Y-112690476D01*
X94357142Y-112738095D01*
X94404761Y-112785714D01*
X94452380Y-112880952D01*
X94452380Y-113166666D01*
X94404761Y-113261904D01*
X94357142Y-113309523D01*
X94452380Y-111738095D02*
X94452380Y-112309523D01*
X94452380Y-112023809D02*
X93452380Y-112023809D01*
X93595238Y-112119047D01*
X93690476Y-112214285D01*
X93738095Y-112309523D01*
%TO.C,C32*%
X79457142Y-112957142D02*
X79409523Y-113004761D01*
X79266666Y-113052380D01*
X79171428Y-113052380D01*
X79028571Y-113004761D01*
X78933333Y-112909523D01*
X78885714Y-112814285D01*
X78838095Y-112623809D01*
X78838095Y-112480952D01*
X78885714Y-112290476D01*
X78933333Y-112195238D01*
X79028571Y-112100000D01*
X79171428Y-112052380D01*
X79266666Y-112052380D01*
X79409523Y-112100000D01*
X79457142Y-112147619D01*
X79790476Y-112052380D02*
X80409523Y-112052380D01*
X80076190Y-112433333D01*
X80219047Y-112433333D01*
X80314285Y-112480952D01*
X80361904Y-112528571D01*
X80409523Y-112623809D01*
X80409523Y-112861904D01*
X80361904Y-112957142D01*
X80314285Y-113004761D01*
X80219047Y-113052380D01*
X79933333Y-113052380D01*
X79838095Y-113004761D01*
X79790476Y-112957142D01*
X80790476Y-112147619D02*
X80838095Y-112100000D01*
X80933333Y-112052380D01*
X81171428Y-112052380D01*
X81266666Y-112100000D01*
X81314285Y-112147619D01*
X81361904Y-112242857D01*
X81361904Y-112338095D01*
X81314285Y-112480952D01*
X80742857Y-113052380D01*
X81361904Y-113052380D01*
%TO.C,C33*%
X106457142Y-93557142D02*
X106409523Y-93604761D01*
X106266666Y-93652380D01*
X106171428Y-93652380D01*
X106028571Y-93604761D01*
X105933333Y-93509523D01*
X105885714Y-93414285D01*
X105838095Y-93223809D01*
X105838095Y-93080952D01*
X105885714Y-92890476D01*
X105933333Y-92795238D01*
X106028571Y-92700000D01*
X106171428Y-92652380D01*
X106266666Y-92652380D01*
X106409523Y-92700000D01*
X106457142Y-92747619D01*
X106790476Y-92652380D02*
X107409523Y-92652380D01*
X107076190Y-93033333D01*
X107219047Y-93033333D01*
X107314285Y-93080952D01*
X107361904Y-93128571D01*
X107409523Y-93223809D01*
X107409523Y-93461904D01*
X107361904Y-93557142D01*
X107314285Y-93604761D01*
X107219047Y-93652380D01*
X106933333Y-93652380D01*
X106838095Y-93604761D01*
X106790476Y-93557142D01*
X107742857Y-92652380D02*
X108361904Y-92652380D01*
X108028571Y-93033333D01*
X108171428Y-93033333D01*
X108266666Y-93080952D01*
X108314285Y-93128571D01*
X108361904Y-93223809D01*
X108361904Y-93461904D01*
X108314285Y-93557142D01*
X108266666Y-93604761D01*
X108171428Y-93652380D01*
X107885714Y-93652380D01*
X107790476Y-93604761D01*
X107742857Y-93557142D01*
%TO.C,C34*%
X95357142Y-110642857D02*
X95404761Y-110690476D01*
X95452380Y-110833333D01*
X95452380Y-110928571D01*
X95404761Y-111071428D01*
X95309523Y-111166666D01*
X95214285Y-111214285D01*
X95023809Y-111261904D01*
X94880952Y-111261904D01*
X94690476Y-111214285D01*
X94595238Y-111166666D01*
X94500000Y-111071428D01*
X94452380Y-110928571D01*
X94452380Y-110833333D01*
X94500000Y-110690476D01*
X94547619Y-110642857D01*
X94452380Y-110309523D02*
X94452380Y-109690476D01*
X94833333Y-110023809D01*
X94833333Y-109880952D01*
X94880952Y-109785714D01*
X94928571Y-109738095D01*
X95023809Y-109690476D01*
X95261904Y-109690476D01*
X95357142Y-109738095D01*
X95404761Y-109785714D01*
X95452380Y-109880952D01*
X95452380Y-110166666D01*
X95404761Y-110261904D01*
X95357142Y-110309523D01*
X94785714Y-108833333D02*
X95452380Y-108833333D01*
X94404761Y-109071428D02*
X95119047Y-109309523D01*
X95119047Y-108690476D01*
%TO.C,C35*%
X92957142Y-93542857D02*
X93004761Y-93590476D01*
X93052380Y-93733333D01*
X93052380Y-93828571D01*
X93004761Y-93971428D01*
X92909523Y-94066666D01*
X92814285Y-94114285D01*
X92623809Y-94161904D01*
X92480952Y-94161904D01*
X92290476Y-94114285D01*
X92195238Y-94066666D01*
X92100000Y-93971428D01*
X92052380Y-93828571D01*
X92052380Y-93733333D01*
X92100000Y-93590476D01*
X92147619Y-93542857D01*
X92052380Y-93209523D02*
X92052380Y-92590476D01*
X92433333Y-92923809D01*
X92433333Y-92780952D01*
X92480952Y-92685714D01*
X92528571Y-92638095D01*
X92623809Y-92590476D01*
X92861904Y-92590476D01*
X92957142Y-92638095D01*
X93004761Y-92685714D01*
X93052380Y-92780952D01*
X93052380Y-93066666D01*
X93004761Y-93161904D01*
X92957142Y-93209523D01*
X92052380Y-91685714D02*
X92052380Y-92161904D01*
X92528571Y-92209523D01*
X92480952Y-92161904D01*
X92433333Y-92066666D01*
X92433333Y-91828571D01*
X92480952Y-91733333D01*
X92528571Y-91685714D01*
X92623809Y-91638095D01*
X92861904Y-91638095D01*
X92957142Y-91685714D01*
X93004761Y-91733333D01*
X93052380Y-91828571D01*
X93052380Y-92066666D01*
X93004761Y-92161904D01*
X92957142Y-92209523D01*
%TO.C,C36*%
X119957142Y-100057142D02*
X119909523Y-100104761D01*
X119766666Y-100152380D01*
X119671428Y-100152380D01*
X119528571Y-100104761D01*
X119433333Y-100009523D01*
X119385714Y-99914285D01*
X119338095Y-99723809D01*
X119338095Y-99580952D01*
X119385714Y-99390476D01*
X119433333Y-99295238D01*
X119528571Y-99200000D01*
X119671428Y-99152380D01*
X119766666Y-99152380D01*
X119909523Y-99200000D01*
X119957142Y-99247619D01*
X120290476Y-99152380D02*
X120909523Y-99152380D01*
X120576190Y-99533333D01*
X120719047Y-99533333D01*
X120814285Y-99580952D01*
X120861904Y-99628571D01*
X120909523Y-99723809D01*
X120909523Y-99961904D01*
X120861904Y-100057142D01*
X120814285Y-100104761D01*
X120719047Y-100152380D01*
X120433333Y-100152380D01*
X120338095Y-100104761D01*
X120290476Y-100057142D01*
X121766666Y-99152380D02*
X121576190Y-99152380D01*
X121480952Y-99200000D01*
X121433333Y-99247619D01*
X121338095Y-99390476D01*
X121290476Y-99580952D01*
X121290476Y-99961904D01*
X121338095Y-100057142D01*
X121385714Y-100104761D01*
X121480952Y-100152380D01*
X121671428Y-100152380D01*
X121766666Y-100104761D01*
X121814285Y-100057142D01*
X121861904Y-99961904D01*
X121861904Y-99723809D01*
X121814285Y-99628571D01*
X121766666Y-99580952D01*
X121671428Y-99533333D01*
X121480952Y-99533333D01*
X121385714Y-99580952D01*
X121338095Y-99628571D01*
X121290476Y-99723809D01*
%TO.C,C37*%
X71157142Y-90257142D02*
X71109523Y-90304761D01*
X70966666Y-90352380D01*
X70871428Y-90352380D01*
X70728571Y-90304761D01*
X70633333Y-90209523D01*
X70585714Y-90114285D01*
X70538095Y-89923809D01*
X70538095Y-89780952D01*
X70585714Y-89590476D01*
X70633333Y-89495238D01*
X70728571Y-89400000D01*
X70871428Y-89352380D01*
X70966666Y-89352380D01*
X71109523Y-89400000D01*
X71157142Y-89447619D01*
X71490476Y-89352380D02*
X72109523Y-89352380D01*
X71776190Y-89733333D01*
X71919047Y-89733333D01*
X72014285Y-89780952D01*
X72061904Y-89828571D01*
X72109523Y-89923809D01*
X72109523Y-90161904D01*
X72061904Y-90257142D01*
X72014285Y-90304761D01*
X71919047Y-90352380D01*
X71633333Y-90352380D01*
X71538095Y-90304761D01*
X71490476Y-90257142D01*
X72442857Y-89352380D02*
X73109523Y-89352380D01*
X72680952Y-90352380D01*
%TO.C,C38*%
X101957142Y-85157142D02*
X101909523Y-85204761D01*
X101766666Y-85252380D01*
X101671428Y-85252380D01*
X101528571Y-85204761D01*
X101433333Y-85109523D01*
X101385714Y-85014285D01*
X101338095Y-84823809D01*
X101338095Y-84680952D01*
X101385714Y-84490476D01*
X101433333Y-84395238D01*
X101528571Y-84300000D01*
X101671428Y-84252380D01*
X101766666Y-84252380D01*
X101909523Y-84300000D01*
X101957142Y-84347619D01*
X102290476Y-84252380D02*
X102909523Y-84252380D01*
X102576190Y-84633333D01*
X102719047Y-84633333D01*
X102814285Y-84680952D01*
X102861904Y-84728571D01*
X102909523Y-84823809D01*
X102909523Y-85061904D01*
X102861904Y-85157142D01*
X102814285Y-85204761D01*
X102719047Y-85252380D01*
X102433333Y-85252380D01*
X102338095Y-85204761D01*
X102290476Y-85157142D01*
X103480952Y-84680952D02*
X103385714Y-84633333D01*
X103338095Y-84585714D01*
X103290476Y-84490476D01*
X103290476Y-84442857D01*
X103338095Y-84347619D01*
X103385714Y-84300000D01*
X103480952Y-84252380D01*
X103671428Y-84252380D01*
X103766666Y-84300000D01*
X103814285Y-84347619D01*
X103861904Y-84442857D01*
X103861904Y-84490476D01*
X103814285Y-84585714D01*
X103766666Y-84633333D01*
X103671428Y-84680952D01*
X103480952Y-84680952D01*
X103385714Y-84728571D01*
X103338095Y-84776190D01*
X103290476Y-84871428D01*
X103290476Y-85061904D01*
X103338095Y-85157142D01*
X103385714Y-85204761D01*
X103480952Y-85252380D01*
X103671428Y-85252380D01*
X103766666Y-85204761D01*
X103814285Y-85157142D01*
X103861904Y-85061904D01*
X103861904Y-84871428D01*
X103814285Y-84776190D01*
X103766666Y-84728571D01*
X103671428Y-84680952D01*
%TO.C,C39*%
X107257142Y-81757142D02*
X107209523Y-81804761D01*
X107066666Y-81852380D01*
X106971428Y-81852380D01*
X106828571Y-81804761D01*
X106733333Y-81709523D01*
X106685714Y-81614285D01*
X106638095Y-81423809D01*
X106638095Y-81280952D01*
X106685714Y-81090476D01*
X106733333Y-80995238D01*
X106828571Y-80900000D01*
X106971428Y-80852380D01*
X107066666Y-80852380D01*
X107209523Y-80900000D01*
X107257142Y-80947619D01*
X107590476Y-80852380D02*
X108209523Y-80852380D01*
X107876190Y-81233333D01*
X108019047Y-81233333D01*
X108114285Y-81280952D01*
X108161904Y-81328571D01*
X108209523Y-81423809D01*
X108209523Y-81661904D01*
X108161904Y-81757142D01*
X108114285Y-81804761D01*
X108019047Y-81852380D01*
X107733333Y-81852380D01*
X107638095Y-81804761D01*
X107590476Y-81757142D01*
X108685714Y-81852380D02*
X108876190Y-81852380D01*
X108971428Y-81804761D01*
X109019047Y-81757142D01*
X109114285Y-81614285D01*
X109161904Y-81423809D01*
X109161904Y-81042857D01*
X109114285Y-80947619D01*
X109066666Y-80900000D01*
X108971428Y-80852380D01*
X108780952Y-80852380D01*
X108685714Y-80900000D01*
X108638095Y-80947619D01*
X108590476Y-81042857D01*
X108590476Y-81280952D01*
X108638095Y-81376190D01*
X108685714Y-81423809D01*
X108780952Y-81471428D01*
X108971428Y-81471428D01*
X109066666Y-81423809D01*
X109114285Y-81376190D01*
X109161904Y-81280952D01*
%TO.C,C40*%
X114357142Y-98057142D02*
X114309523Y-98104761D01*
X114166666Y-98152380D01*
X114071428Y-98152380D01*
X113928571Y-98104761D01*
X113833333Y-98009523D01*
X113785714Y-97914285D01*
X113738095Y-97723809D01*
X113738095Y-97580952D01*
X113785714Y-97390476D01*
X113833333Y-97295238D01*
X113928571Y-97200000D01*
X114071428Y-97152380D01*
X114166666Y-97152380D01*
X114309523Y-97200000D01*
X114357142Y-97247619D01*
X115214285Y-97485714D02*
X115214285Y-98152380D01*
X114976190Y-97104761D02*
X114738095Y-97819047D01*
X115357142Y-97819047D01*
X115928571Y-97152380D02*
X116023809Y-97152380D01*
X116119047Y-97200000D01*
X116166666Y-97247619D01*
X116214285Y-97342857D01*
X116261904Y-97533333D01*
X116261904Y-97771428D01*
X116214285Y-97961904D01*
X116166666Y-98057142D01*
X116119047Y-98104761D01*
X116023809Y-98152380D01*
X115928571Y-98152380D01*
X115833333Y-98104761D01*
X115785714Y-98057142D01*
X115738095Y-97961904D01*
X115690476Y-97771428D01*
X115690476Y-97533333D01*
X115738095Y-97342857D01*
X115785714Y-97247619D01*
X115833333Y-97200000D01*
X115928571Y-97152380D01*
%TO.C,C41*%
X71857142Y-92057142D02*
X71809523Y-92104761D01*
X71666666Y-92152380D01*
X71571428Y-92152380D01*
X71428571Y-92104761D01*
X71333333Y-92009523D01*
X71285714Y-91914285D01*
X71238095Y-91723809D01*
X71238095Y-91580952D01*
X71285714Y-91390476D01*
X71333333Y-91295238D01*
X71428571Y-91200000D01*
X71571428Y-91152380D01*
X71666666Y-91152380D01*
X71809523Y-91200000D01*
X71857142Y-91247619D01*
X72714285Y-91485714D02*
X72714285Y-92152380D01*
X72476190Y-91104761D02*
X72238095Y-91819047D01*
X72857142Y-91819047D01*
X73761904Y-92152380D02*
X73190476Y-92152380D01*
X73476190Y-92152380D02*
X73476190Y-91152380D01*
X73380952Y-91295238D01*
X73285714Y-91390476D01*
X73190476Y-91438095D01*
%TO.C,C42*%
X114357142Y-94757142D02*
X114309523Y-94804761D01*
X114166666Y-94852380D01*
X114071428Y-94852380D01*
X113928571Y-94804761D01*
X113833333Y-94709523D01*
X113785714Y-94614285D01*
X113738095Y-94423809D01*
X113738095Y-94280952D01*
X113785714Y-94090476D01*
X113833333Y-93995238D01*
X113928571Y-93900000D01*
X114071428Y-93852380D01*
X114166666Y-93852380D01*
X114309523Y-93900000D01*
X114357142Y-93947619D01*
X115214285Y-94185714D02*
X115214285Y-94852380D01*
X114976190Y-93804761D02*
X114738095Y-94519047D01*
X115357142Y-94519047D01*
X115690476Y-93947619D02*
X115738095Y-93900000D01*
X115833333Y-93852380D01*
X116071428Y-93852380D01*
X116166666Y-93900000D01*
X116214285Y-93947619D01*
X116261904Y-94042857D01*
X116261904Y-94138095D01*
X116214285Y-94280952D01*
X115642857Y-94852380D01*
X116261904Y-94852380D01*
%TO.C,C43*%
X104857142Y-96957142D02*
X104809523Y-97004761D01*
X104666666Y-97052380D01*
X104571428Y-97052380D01*
X104428571Y-97004761D01*
X104333333Y-96909523D01*
X104285714Y-96814285D01*
X104238095Y-96623809D01*
X104238095Y-96480952D01*
X104285714Y-96290476D01*
X104333333Y-96195238D01*
X104428571Y-96100000D01*
X104571428Y-96052380D01*
X104666666Y-96052380D01*
X104809523Y-96100000D01*
X104857142Y-96147619D01*
X105714285Y-96385714D02*
X105714285Y-97052380D01*
X105476190Y-96004761D02*
X105238095Y-96719047D01*
X105857142Y-96719047D01*
X106142857Y-96052380D02*
X106761904Y-96052380D01*
X106428571Y-96433333D01*
X106571428Y-96433333D01*
X106666666Y-96480952D01*
X106714285Y-96528571D01*
X106761904Y-96623809D01*
X106761904Y-96861904D01*
X106714285Y-96957142D01*
X106666666Y-97004761D01*
X106571428Y-97052380D01*
X106285714Y-97052380D01*
X106190476Y-97004761D01*
X106142857Y-96957142D01*
%TO.C,C44*%
X96357142Y-78057142D02*
X96309523Y-78104761D01*
X96166666Y-78152380D01*
X96071428Y-78152380D01*
X95928571Y-78104761D01*
X95833333Y-78009523D01*
X95785714Y-77914285D01*
X95738095Y-77723809D01*
X95738095Y-77580952D01*
X95785714Y-77390476D01*
X95833333Y-77295238D01*
X95928571Y-77200000D01*
X96071428Y-77152380D01*
X96166666Y-77152380D01*
X96309523Y-77200000D01*
X96357142Y-77247619D01*
X97214285Y-77485714D02*
X97214285Y-78152380D01*
X96976190Y-77104761D02*
X96738095Y-77819047D01*
X97357142Y-77819047D01*
X98166666Y-77485714D02*
X98166666Y-78152380D01*
X97928571Y-77104761D02*
X97690476Y-77819047D01*
X98309523Y-77819047D01*
%TO.C,C45*%
X125357142Y-89642857D02*
X125404761Y-89690476D01*
X125452380Y-89833333D01*
X125452380Y-89928571D01*
X125404761Y-90071428D01*
X125309523Y-90166666D01*
X125214285Y-90214285D01*
X125023809Y-90261904D01*
X124880952Y-90261904D01*
X124690476Y-90214285D01*
X124595238Y-90166666D01*
X124500000Y-90071428D01*
X124452380Y-89928571D01*
X124452380Y-89833333D01*
X124500000Y-89690476D01*
X124547619Y-89642857D01*
X124785714Y-88785714D02*
X125452380Y-88785714D01*
X124404761Y-89023809D02*
X125119047Y-89261904D01*
X125119047Y-88642857D01*
X124452380Y-87785714D02*
X124452380Y-88261904D01*
X124928571Y-88309523D01*
X124880952Y-88261904D01*
X124833333Y-88166666D01*
X124833333Y-87928571D01*
X124880952Y-87833333D01*
X124928571Y-87785714D01*
X125023809Y-87738095D01*
X125261904Y-87738095D01*
X125357142Y-87785714D01*
X125404761Y-87833333D01*
X125452380Y-87928571D01*
X125452380Y-88166666D01*
X125404761Y-88261904D01*
X125357142Y-88309523D01*
%TO.C,C46*%
X109357142Y-97357142D02*
X109309523Y-97404761D01*
X109166666Y-97452380D01*
X109071428Y-97452380D01*
X108928571Y-97404761D01*
X108833333Y-97309523D01*
X108785714Y-97214285D01*
X108738095Y-97023809D01*
X108738095Y-96880952D01*
X108785714Y-96690476D01*
X108833333Y-96595238D01*
X108928571Y-96500000D01*
X109071428Y-96452380D01*
X109166666Y-96452380D01*
X109309523Y-96500000D01*
X109357142Y-96547619D01*
X110214285Y-96785714D02*
X110214285Y-97452380D01*
X109976190Y-96404761D02*
X109738095Y-97119047D01*
X110357142Y-97119047D01*
X111166666Y-96452380D02*
X110976190Y-96452380D01*
X110880952Y-96500000D01*
X110833333Y-96547619D01*
X110738095Y-96690476D01*
X110690476Y-96880952D01*
X110690476Y-97261904D01*
X110738095Y-97357142D01*
X110785714Y-97404761D01*
X110880952Y-97452380D01*
X111071428Y-97452380D01*
X111166666Y-97404761D01*
X111214285Y-97357142D01*
X111261904Y-97261904D01*
X111261904Y-97023809D01*
X111214285Y-96928571D01*
X111166666Y-96880952D01*
X111071428Y-96833333D01*
X110880952Y-96833333D01*
X110785714Y-96880952D01*
X110738095Y-96928571D01*
X110690476Y-97023809D01*
%TO.C,C47*%
X99357142Y-84642857D02*
X99404761Y-84690476D01*
X99452380Y-84833333D01*
X99452380Y-84928571D01*
X99404761Y-85071428D01*
X99309523Y-85166666D01*
X99214285Y-85214285D01*
X99023809Y-85261904D01*
X98880952Y-85261904D01*
X98690476Y-85214285D01*
X98595238Y-85166666D01*
X98500000Y-85071428D01*
X98452380Y-84928571D01*
X98452380Y-84833333D01*
X98500000Y-84690476D01*
X98547619Y-84642857D01*
X98785714Y-83785714D02*
X99452380Y-83785714D01*
X98404761Y-84023809D02*
X99119047Y-84261904D01*
X99119047Y-83642857D01*
X98452380Y-83357142D02*
X98452380Y-82690476D01*
X99452380Y-83119047D01*
%TO.C,C48*%
X179357142Y-96677142D02*
X179309523Y-96724761D01*
X179166666Y-96772380D01*
X179071428Y-96772380D01*
X178928571Y-96724761D01*
X178833333Y-96629523D01*
X178785714Y-96534285D01*
X178738095Y-96343809D01*
X178738095Y-96200952D01*
X178785714Y-96010476D01*
X178833333Y-95915238D01*
X178928571Y-95820000D01*
X179071428Y-95772380D01*
X179166666Y-95772380D01*
X179309523Y-95820000D01*
X179357142Y-95867619D01*
X180214285Y-96105714D02*
X180214285Y-96772380D01*
X179976190Y-95724761D02*
X179738095Y-96439047D01*
X180357142Y-96439047D01*
X180880952Y-96200952D02*
X180785714Y-96153333D01*
X180738095Y-96105714D01*
X180690476Y-96010476D01*
X180690476Y-95962857D01*
X180738095Y-95867619D01*
X180785714Y-95820000D01*
X180880952Y-95772380D01*
X181071428Y-95772380D01*
X181166666Y-95820000D01*
X181214285Y-95867619D01*
X181261904Y-95962857D01*
X181261904Y-96010476D01*
X181214285Y-96105714D01*
X181166666Y-96153333D01*
X181071428Y-96200952D01*
X180880952Y-96200952D01*
X180785714Y-96248571D01*
X180738095Y-96296190D01*
X180690476Y-96391428D01*
X180690476Y-96581904D01*
X180738095Y-96677142D01*
X180785714Y-96724761D01*
X180880952Y-96772380D01*
X181071428Y-96772380D01*
X181166666Y-96724761D01*
X181214285Y-96677142D01*
X181261904Y-96581904D01*
X181261904Y-96391428D01*
X181214285Y-96296190D01*
X181166666Y-96248571D01*
X181071428Y-96200952D01*
%TO.C,C49*%
X179457142Y-104057142D02*
X179409523Y-104104761D01*
X179266666Y-104152380D01*
X179171428Y-104152380D01*
X179028571Y-104104761D01*
X178933333Y-104009523D01*
X178885714Y-103914285D01*
X178838095Y-103723809D01*
X178838095Y-103580952D01*
X178885714Y-103390476D01*
X178933333Y-103295238D01*
X179028571Y-103200000D01*
X179171428Y-103152380D01*
X179266666Y-103152380D01*
X179409523Y-103200000D01*
X179457142Y-103247619D01*
X180314285Y-103485714D02*
X180314285Y-104152380D01*
X180076190Y-103104761D02*
X179838095Y-103819047D01*
X180457142Y-103819047D01*
X180885714Y-104152380D02*
X181076190Y-104152380D01*
X181171428Y-104104761D01*
X181219047Y-104057142D01*
X181314285Y-103914285D01*
X181361904Y-103723809D01*
X181361904Y-103342857D01*
X181314285Y-103247619D01*
X181266666Y-103200000D01*
X181171428Y-103152380D01*
X180980952Y-103152380D01*
X180885714Y-103200000D01*
X180838095Y-103247619D01*
X180790476Y-103342857D01*
X180790476Y-103580952D01*
X180838095Y-103676190D01*
X180885714Y-103723809D01*
X180980952Y-103771428D01*
X181171428Y-103771428D01*
X181266666Y-103723809D01*
X181314285Y-103676190D01*
X181361904Y-103580952D01*
%TO.C,C52*%
X126357142Y-98642857D02*
X126404761Y-98690476D01*
X126452380Y-98833333D01*
X126452380Y-98928571D01*
X126404761Y-99071428D01*
X126309523Y-99166666D01*
X126214285Y-99214285D01*
X126023809Y-99261904D01*
X125880952Y-99261904D01*
X125690476Y-99214285D01*
X125595238Y-99166666D01*
X125500000Y-99071428D01*
X125452380Y-98928571D01*
X125452380Y-98833333D01*
X125500000Y-98690476D01*
X125547619Y-98642857D01*
X125452380Y-97738095D02*
X125452380Y-98214285D01*
X125928571Y-98261904D01*
X125880952Y-98214285D01*
X125833333Y-98119047D01*
X125833333Y-97880952D01*
X125880952Y-97785714D01*
X125928571Y-97738095D01*
X126023809Y-97690476D01*
X126261904Y-97690476D01*
X126357142Y-97738095D01*
X126404761Y-97785714D01*
X126452380Y-97880952D01*
X126452380Y-98119047D01*
X126404761Y-98214285D01*
X126357142Y-98261904D01*
X125547619Y-97309523D02*
X125500000Y-97261904D01*
X125452380Y-97166666D01*
X125452380Y-96928571D01*
X125500000Y-96833333D01*
X125547619Y-96785714D01*
X125642857Y-96738095D01*
X125738095Y-96738095D01*
X125880952Y-96785714D01*
X126452380Y-97357142D01*
X126452380Y-96738095D01*
%TO.C,C54*%
X128657142Y-107842857D02*
X128704761Y-107890476D01*
X128752380Y-108033333D01*
X128752380Y-108128571D01*
X128704761Y-108271428D01*
X128609523Y-108366666D01*
X128514285Y-108414285D01*
X128323809Y-108461904D01*
X128180952Y-108461904D01*
X127990476Y-108414285D01*
X127895238Y-108366666D01*
X127800000Y-108271428D01*
X127752380Y-108128571D01*
X127752380Y-108033333D01*
X127800000Y-107890476D01*
X127847619Y-107842857D01*
X127752380Y-106938095D02*
X127752380Y-107414285D01*
X128228571Y-107461904D01*
X128180952Y-107414285D01*
X128133333Y-107319047D01*
X128133333Y-107080952D01*
X128180952Y-106985714D01*
X128228571Y-106938095D01*
X128323809Y-106890476D01*
X128561904Y-106890476D01*
X128657142Y-106938095D01*
X128704761Y-106985714D01*
X128752380Y-107080952D01*
X128752380Y-107319047D01*
X128704761Y-107414285D01*
X128657142Y-107461904D01*
X128085714Y-106033333D02*
X128752380Y-106033333D01*
X127704761Y-106271428D02*
X128419047Y-106509523D01*
X128419047Y-105890476D01*
%TO.C,C56*%
X130957142Y-107642857D02*
X131004761Y-107690476D01*
X131052380Y-107833333D01*
X131052380Y-107928571D01*
X131004761Y-108071428D01*
X130909523Y-108166666D01*
X130814285Y-108214285D01*
X130623809Y-108261904D01*
X130480952Y-108261904D01*
X130290476Y-108214285D01*
X130195238Y-108166666D01*
X130100000Y-108071428D01*
X130052380Y-107928571D01*
X130052380Y-107833333D01*
X130100000Y-107690476D01*
X130147619Y-107642857D01*
X130052380Y-106738095D02*
X130052380Y-107214285D01*
X130528571Y-107261904D01*
X130480952Y-107214285D01*
X130433333Y-107119047D01*
X130433333Y-106880952D01*
X130480952Y-106785714D01*
X130528571Y-106738095D01*
X130623809Y-106690476D01*
X130861904Y-106690476D01*
X130957142Y-106738095D01*
X131004761Y-106785714D01*
X131052380Y-106880952D01*
X131052380Y-107119047D01*
X131004761Y-107214285D01*
X130957142Y-107261904D01*
X130052380Y-105833333D02*
X130052380Y-106023809D01*
X130100000Y-106119047D01*
X130147619Y-106166666D01*
X130290476Y-106261904D01*
X130480952Y-106309523D01*
X130861904Y-106309523D01*
X130957142Y-106261904D01*
X131004761Y-106214285D01*
X131052380Y-106119047D01*
X131052380Y-105928571D01*
X131004761Y-105833333D01*
X130957142Y-105785714D01*
X130861904Y-105738095D01*
X130623809Y-105738095D01*
X130528571Y-105785714D01*
X130480952Y-105833333D01*
X130433333Y-105928571D01*
X130433333Y-106119047D01*
X130480952Y-106214285D01*
X130528571Y-106261904D01*
X130623809Y-106309523D01*
%TO.C,C57*%
X84657142Y-88642857D02*
X84704761Y-88690476D01*
X84752380Y-88833333D01*
X84752380Y-88928571D01*
X84704761Y-89071428D01*
X84609523Y-89166666D01*
X84514285Y-89214285D01*
X84323809Y-89261904D01*
X84180952Y-89261904D01*
X83990476Y-89214285D01*
X83895238Y-89166666D01*
X83800000Y-89071428D01*
X83752380Y-88928571D01*
X83752380Y-88833333D01*
X83800000Y-88690476D01*
X83847619Y-88642857D01*
X83752380Y-87738095D02*
X83752380Y-88214285D01*
X84228571Y-88261904D01*
X84180952Y-88214285D01*
X84133333Y-88119047D01*
X84133333Y-87880952D01*
X84180952Y-87785714D01*
X84228571Y-87738095D01*
X84323809Y-87690476D01*
X84561904Y-87690476D01*
X84657142Y-87738095D01*
X84704761Y-87785714D01*
X84752380Y-87880952D01*
X84752380Y-88119047D01*
X84704761Y-88214285D01*
X84657142Y-88261904D01*
X83752380Y-87357142D02*
X83752380Y-86690476D01*
X84752380Y-87119047D01*
%TO.C,CON1*%
X147357142Y-68214285D02*
X147404761Y-68261904D01*
X147452380Y-68404761D01*
X147452380Y-68500000D01*
X147404761Y-68642857D01*
X147309523Y-68738095D01*
X147214285Y-68785714D01*
X147023809Y-68833333D01*
X146880952Y-68833333D01*
X146690476Y-68785714D01*
X146595238Y-68738095D01*
X146500000Y-68642857D01*
X146452380Y-68500000D01*
X146452380Y-68404761D01*
X146500000Y-68261904D01*
X146547619Y-68214285D01*
X146452380Y-67595238D02*
X146452380Y-67404761D01*
X146500000Y-67309523D01*
X146595238Y-67214285D01*
X146785714Y-67166666D01*
X147119047Y-67166666D01*
X147309523Y-67214285D01*
X147404761Y-67309523D01*
X147452380Y-67404761D01*
X147452380Y-67595238D01*
X147404761Y-67690476D01*
X147309523Y-67785714D01*
X147119047Y-67833333D01*
X146785714Y-67833333D01*
X146595238Y-67785714D01*
X146500000Y-67690476D01*
X146452380Y-67595238D01*
X147452380Y-66738095D02*
X146452380Y-66738095D01*
X147452380Y-66166666D01*
X146452380Y-66166666D01*
X147452380Y-65166666D02*
X147452380Y-65738095D01*
X147452380Y-65452380D02*
X146452380Y-65452380D01*
X146595238Y-65547619D01*
X146690476Y-65642857D01*
X146738095Y-65738095D01*
%TO.C,D1*%
X150461904Y-84642380D02*
X150461904Y-83642380D01*
X150700000Y-83642380D01*
X150842857Y-83690000D01*
X150938095Y-83785238D01*
X150985714Y-83880476D01*
X151033333Y-84070952D01*
X151033333Y-84213809D01*
X150985714Y-84404285D01*
X150938095Y-84499523D01*
X150842857Y-84594761D01*
X150700000Y-84642380D01*
X150461904Y-84642380D01*
X151985714Y-84642380D02*
X151414285Y-84642380D01*
X151700000Y-84642380D02*
X151700000Y-83642380D01*
X151604761Y-83785238D01*
X151509523Y-83880476D01*
X151414285Y-83928095D01*
%TO.C,D6*%
X155961904Y-94952380D02*
X155961904Y-93952380D01*
X156200000Y-93952380D01*
X156342857Y-94000000D01*
X156438095Y-94095238D01*
X156485714Y-94190476D01*
X156533333Y-94380952D01*
X156533333Y-94523809D01*
X156485714Y-94714285D01*
X156438095Y-94809523D01*
X156342857Y-94904761D01*
X156200000Y-94952380D01*
X155961904Y-94952380D01*
X157390476Y-93952380D02*
X157200000Y-93952380D01*
X157104761Y-94000000D01*
X157057142Y-94047619D01*
X156961904Y-94190476D01*
X156914285Y-94380952D01*
X156914285Y-94761904D01*
X156961904Y-94857142D01*
X157009523Y-94904761D01*
X157104761Y-94952380D01*
X157295238Y-94952380D01*
X157390476Y-94904761D01*
X157438095Y-94857142D01*
X157485714Y-94761904D01*
X157485714Y-94523809D01*
X157438095Y-94428571D01*
X157390476Y-94380952D01*
X157295238Y-94333333D01*
X157104761Y-94333333D01*
X157009523Y-94380952D01*
X156961904Y-94428571D01*
X156914285Y-94523809D01*
%TO.C,F1*%
X164666666Y-84578571D02*
X164333333Y-84578571D01*
X164333333Y-85102380D02*
X164333333Y-84102380D01*
X164809523Y-84102380D01*
X165714285Y-85102380D02*
X165142857Y-85102380D01*
X165428571Y-85102380D02*
X165428571Y-84102380D01*
X165333333Y-84245238D01*
X165238095Y-84340476D01*
X165142857Y-84388095D01*
%TO.C,J1*%
X156266666Y-68252380D02*
X156266666Y-68966666D01*
X156219047Y-69109523D01*
X156123809Y-69204761D01*
X155980952Y-69252380D01*
X155885714Y-69252380D01*
X157266666Y-69252380D02*
X156695238Y-69252380D01*
X156980952Y-69252380D02*
X156980952Y-68252380D01*
X156885714Y-68395238D01*
X156790476Y-68490476D01*
X156695238Y-68538095D01*
%TO.C,J2*%
X174666666Y-59352380D02*
X174666666Y-60066666D01*
X174619047Y-60209523D01*
X174523809Y-60304761D01*
X174380952Y-60352380D01*
X174285714Y-60352380D01*
X175095238Y-59447619D02*
X175142857Y-59400000D01*
X175238095Y-59352380D01*
X175476190Y-59352380D01*
X175571428Y-59400000D01*
X175619047Y-59447619D01*
X175666666Y-59542857D01*
X175666666Y-59638095D01*
X175619047Y-59780952D01*
X175047619Y-60352380D01*
X175666666Y-60352380D01*
%TO.C,J10*%
X80190476Y-73452380D02*
X80190476Y-74166666D01*
X80142857Y-74309523D01*
X80047619Y-74404761D01*
X79904761Y-74452380D01*
X79809523Y-74452380D01*
X81190476Y-74452380D02*
X80619047Y-74452380D01*
X80904761Y-74452380D02*
X80904761Y-73452380D01*
X80809523Y-73595238D01*
X80714285Y-73690476D01*
X80619047Y-73738095D01*
X81809523Y-73452380D02*
X81904761Y-73452380D01*
X82000000Y-73500000D01*
X82047619Y-73547619D01*
X82095238Y-73642857D01*
X82142857Y-73833333D01*
X82142857Y-74071428D01*
X82095238Y-74261904D01*
X82047619Y-74357142D01*
X82000000Y-74404761D01*
X81904761Y-74452380D01*
X81809523Y-74452380D01*
X81714285Y-74404761D01*
X81666666Y-74357142D01*
X81619047Y-74261904D01*
X81571428Y-74071428D01*
X81571428Y-73833333D01*
X81619047Y-73642857D01*
X81666666Y-73547619D01*
X81714285Y-73500000D01*
X81809523Y-73452380D01*
%TO.C,L1*%
X180952380Y-91066666D02*
X180952380Y-91542857D01*
X179952380Y-91542857D01*
X180952380Y-90209523D02*
X180952380Y-90780952D01*
X180952380Y-90495238D02*
X179952380Y-90495238D01*
X180095238Y-90590476D01*
X180190476Y-90685714D01*
X180238095Y-90780952D01*
%TO.C,Q1*%
X154637261Y-80137619D02*
X154542023Y-80090000D01*
X154446785Y-79994761D01*
X154303928Y-79851904D01*
X154208690Y-79804285D01*
X154113452Y-79804285D01*
X154161071Y-80042380D02*
X154065833Y-79994761D01*
X153970595Y-79899523D01*
X153922976Y-79709047D01*
X153922976Y-79375714D01*
X153970595Y-79185238D01*
X154065833Y-79090000D01*
X154161071Y-79042380D01*
X154351547Y-79042380D01*
X154446785Y-79090000D01*
X154542023Y-79185238D01*
X154589642Y-79375714D01*
X154589642Y-79709047D01*
X154542023Y-79899523D01*
X154446785Y-79994761D01*
X154351547Y-80042380D01*
X154161071Y-80042380D01*
X155542023Y-80042380D02*
X154970595Y-80042380D01*
X155256309Y-80042380D02*
X155256309Y-79042380D01*
X155161071Y-79185238D01*
X155065833Y-79280476D01*
X154970595Y-79328095D01*
%TO.C,R1*%
X151433333Y-93352380D02*
X151100000Y-92876190D01*
X150861904Y-93352380D02*
X150861904Y-92352380D01*
X151242857Y-92352380D01*
X151338095Y-92400000D01*
X151385714Y-92447619D01*
X151433333Y-92542857D01*
X151433333Y-92685714D01*
X151385714Y-92780952D01*
X151338095Y-92828571D01*
X151242857Y-92876190D01*
X150861904Y-92876190D01*
X152385714Y-93352380D02*
X151814285Y-93352380D01*
X152100000Y-93352380D02*
X152100000Y-92352380D01*
X152004761Y-92495238D01*
X151909523Y-92590476D01*
X151814285Y-92638095D01*
%TO.C,R2*%
X170852380Y-89066666D02*
X170376190Y-89400000D01*
X170852380Y-89638095D02*
X169852380Y-89638095D01*
X169852380Y-89257142D01*
X169900000Y-89161904D01*
X169947619Y-89114285D01*
X170042857Y-89066666D01*
X170185714Y-89066666D01*
X170280952Y-89114285D01*
X170328571Y-89161904D01*
X170376190Y-89257142D01*
X170376190Y-89638095D01*
X169947619Y-88685714D02*
X169900000Y-88638095D01*
X169852380Y-88542857D01*
X169852380Y-88304761D01*
X169900000Y-88209523D01*
X169947619Y-88161904D01*
X170042857Y-88114285D01*
X170138095Y-88114285D01*
X170280952Y-88161904D01*
X170852380Y-88733333D01*
X170852380Y-88114285D01*
%TO.C,R3*%
X164633333Y-75352380D02*
X164300000Y-74876190D01*
X164061904Y-75352380D02*
X164061904Y-74352380D01*
X164442857Y-74352380D01*
X164538095Y-74400000D01*
X164585714Y-74447619D01*
X164633333Y-74542857D01*
X164633333Y-74685714D01*
X164585714Y-74780952D01*
X164538095Y-74828571D01*
X164442857Y-74876190D01*
X164061904Y-74876190D01*
X164966666Y-74352380D02*
X165585714Y-74352380D01*
X165252380Y-74733333D01*
X165395238Y-74733333D01*
X165490476Y-74780952D01*
X165538095Y-74828571D01*
X165585714Y-74923809D01*
X165585714Y-75161904D01*
X165538095Y-75257142D01*
X165490476Y-75304761D01*
X165395238Y-75352380D01*
X165109523Y-75352380D01*
X165014285Y-75304761D01*
X164966666Y-75257142D01*
%TO.C,R4*%
X156852380Y-75566666D02*
X156376190Y-75900000D01*
X156852380Y-76138095D02*
X155852380Y-76138095D01*
X155852380Y-75757142D01*
X155900000Y-75661904D01*
X155947619Y-75614285D01*
X156042857Y-75566666D01*
X156185714Y-75566666D01*
X156280952Y-75614285D01*
X156328571Y-75661904D01*
X156376190Y-75757142D01*
X156376190Y-76138095D01*
X156185714Y-74709523D02*
X156852380Y-74709523D01*
X155804761Y-74947619D02*
X156519047Y-75185714D01*
X156519047Y-74566666D01*
%TO.C,R5*%
X160252380Y-75466666D02*
X159776190Y-75800000D01*
X160252380Y-76038095D02*
X159252380Y-76038095D01*
X159252380Y-75657142D01*
X159300000Y-75561904D01*
X159347619Y-75514285D01*
X159442857Y-75466666D01*
X159585714Y-75466666D01*
X159680952Y-75514285D01*
X159728571Y-75561904D01*
X159776190Y-75657142D01*
X159776190Y-76038095D01*
X159252380Y-74561904D02*
X159252380Y-75038095D01*
X159728571Y-75085714D01*
X159680952Y-75038095D01*
X159633333Y-74942857D01*
X159633333Y-74704761D01*
X159680952Y-74609523D01*
X159728571Y-74561904D01*
X159823809Y-74514285D01*
X160061904Y-74514285D01*
X160157142Y-74561904D01*
X160204761Y-74609523D01*
X160252380Y-74704761D01*
X160252380Y-74942857D01*
X160204761Y-75038095D01*
X160157142Y-75085714D01*
%TO.C,R6*%
X158452380Y-75466666D02*
X157976190Y-75800000D01*
X158452380Y-76038095D02*
X157452380Y-76038095D01*
X157452380Y-75657142D01*
X157500000Y-75561904D01*
X157547619Y-75514285D01*
X157642857Y-75466666D01*
X157785714Y-75466666D01*
X157880952Y-75514285D01*
X157928571Y-75561904D01*
X157976190Y-75657142D01*
X157976190Y-76038095D01*
X157452380Y-74609523D02*
X157452380Y-74800000D01*
X157500000Y-74895238D01*
X157547619Y-74942857D01*
X157690476Y-75038095D01*
X157880952Y-75085714D01*
X158261904Y-75085714D01*
X158357142Y-75038095D01*
X158404761Y-74990476D01*
X158452380Y-74895238D01*
X158452380Y-74704761D01*
X158404761Y-74609523D01*
X158357142Y-74561904D01*
X158261904Y-74514285D01*
X158023809Y-74514285D01*
X157928571Y-74561904D01*
X157880952Y-74609523D01*
X157833333Y-74704761D01*
X157833333Y-74895238D01*
X157880952Y-74990476D01*
X157928571Y-75038095D01*
X158023809Y-75085714D01*
%TO.C,R7*%
X171433333Y-98352380D02*
X171100000Y-97876190D01*
X170861904Y-98352380D02*
X170861904Y-97352380D01*
X171242857Y-97352380D01*
X171338095Y-97400000D01*
X171385714Y-97447619D01*
X171433333Y-97542857D01*
X171433333Y-97685714D01*
X171385714Y-97780952D01*
X171338095Y-97828571D01*
X171242857Y-97876190D01*
X170861904Y-97876190D01*
X171766666Y-97352380D02*
X172433333Y-97352380D01*
X172004761Y-98352380D01*
%TO.C,R8*%
X163033333Y-78852380D02*
X162700000Y-78376190D01*
X162461904Y-78852380D02*
X162461904Y-77852380D01*
X162842857Y-77852380D01*
X162938095Y-77900000D01*
X162985714Y-77947619D01*
X163033333Y-78042857D01*
X163033333Y-78185714D01*
X162985714Y-78280952D01*
X162938095Y-78328571D01*
X162842857Y-78376190D01*
X162461904Y-78376190D01*
X163604761Y-78280952D02*
X163509523Y-78233333D01*
X163461904Y-78185714D01*
X163414285Y-78090476D01*
X163414285Y-78042857D01*
X163461904Y-77947619D01*
X163509523Y-77900000D01*
X163604761Y-77852380D01*
X163795238Y-77852380D01*
X163890476Y-77900000D01*
X163938095Y-77947619D01*
X163985714Y-78042857D01*
X163985714Y-78090476D01*
X163938095Y-78185714D01*
X163890476Y-78233333D01*
X163795238Y-78280952D01*
X163604761Y-78280952D01*
X163509523Y-78328571D01*
X163461904Y-78376190D01*
X163414285Y-78471428D01*
X163414285Y-78661904D01*
X163461904Y-78757142D01*
X163509523Y-78804761D01*
X163604761Y-78852380D01*
X163795238Y-78852380D01*
X163890476Y-78804761D01*
X163938095Y-78757142D01*
X163985714Y-78661904D01*
X163985714Y-78471428D01*
X163938095Y-78376190D01*
X163890476Y-78328571D01*
X163795238Y-78280952D01*
%TO.C,R9*%
X173933333Y-101852380D02*
X173600000Y-101376190D01*
X173361904Y-101852380D02*
X173361904Y-100852380D01*
X173742857Y-100852380D01*
X173838095Y-100900000D01*
X173885714Y-100947619D01*
X173933333Y-101042857D01*
X173933333Y-101185714D01*
X173885714Y-101280952D01*
X173838095Y-101328571D01*
X173742857Y-101376190D01*
X173361904Y-101376190D01*
X174409523Y-101852380D02*
X174600000Y-101852380D01*
X174695238Y-101804761D01*
X174742857Y-101757142D01*
X174838095Y-101614285D01*
X174885714Y-101423809D01*
X174885714Y-101042857D01*
X174838095Y-100947619D01*
X174790476Y-100900000D01*
X174695238Y-100852380D01*
X174504761Y-100852380D01*
X174409523Y-100900000D01*
X174361904Y-100947619D01*
X174314285Y-101042857D01*
X174314285Y-101280952D01*
X174361904Y-101376190D01*
X174409523Y-101423809D01*
X174504761Y-101471428D01*
X174695238Y-101471428D01*
X174790476Y-101423809D01*
X174838095Y-101376190D01*
X174885714Y-101280952D01*
%TO.C,R10*%
X168022380Y-92642857D02*
X167546190Y-92976190D01*
X168022380Y-93214285D02*
X167022380Y-93214285D01*
X167022380Y-92833333D01*
X167070000Y-92738095D01*
X167117619Y-92690476D01*
X167212857Y-92642857D01*
X167355714Y-92642857D01*
X167450952Y-92690476D01*
X167498571Y-92738095D01*
X167546190Y-92833333D01*
X167546190Y-93214285D01*
X168022380Y-91690476D02*
X168022380Y-92261904D01*
X168022380Y-91976190D02*
X167022380Y-91976190D01*
X167165238Y-92071428D01*
X167260476Y-92166666D01*
X167308095Y-92261904D01*
X167022380Y-91071428D02*
X167022380Y-90976190D01*
X167070000Y-90880952D01*
X167117619Y-90833333D01*
X167212857Y-90785714D01*
X167403333Y-90738095D01*
X167641428Y-90738095D01*
X167831904Y-90785714D01*
X167927142Y-90833333D01*
X167974761Y-90880952D01*
X168022380Y-90976190D01*
X168022380Y-91071428D01*
X167974761Y-91166666D01*
X167927142Y-91214285D01*
X167831904Y-91261904D01*
X167641428Y-91309523D01*
X167403333Y-91309523D01*
X167212857Y-91261904D01*
X167117619Y-91214285D01*
X167070000Y-91166666D01*
X167022380Y-91071428D01*
%TO.C,R11*%
X112452380Y-157642857D02*
X111976190Y-157976190D01*
X112452380Y-158214285D02*
X111452380Y-158214285D01*
X111452380Y-157833333D01*
X111500000Y-157738095D01*
X111547619Y-157690476D01*
X111642857Y-157642857D01*
X111785714Y-157642857D01*
X111880952Y-157690476D01*
X111928571Y-157738095D01*
X111976190Y-157833333D01*
X111976190Y-158214285D01*
X112452380Y-156690476D02*
X112452380Y-157261904D01*
X112452380Y-156976190D02*
X111452380Y-156976190D01*
X111595238Y-157071428D01*
X111690476Y-157166666D01*
X111738095Y-157261904D01*
X112452380Y-155738095D02*
X112452380Y-156309523D01*
X112452380Y-156023809D02*
X111452380Y-156023809D01*
X111595238Y-156119047D01*
X111690476Y-156214285D01*
X111738095Y-156309523D01*
%TO.C,R12*%
X117452380Y-139642857D02*
X116976190Y-139976190D01*
X117452380Y-140214285D02*
X116452380Y-140214285D01*
X116452380Y-139833333D01*
X116500000Y-139738095D01*
X116547619Y-139690476D01*
X116642857Y-139642857D01*
X116785714Y-139642857D01*
X116880952Y-139690476D01*
X116928571Y-139738095D01*
X116976190Y-139833333D01*
X116976190Y-140214285D01*
X117452380Y-138690476D02*
X117452380Y-139261904D01*
X117452380Y-138976190D02*
X116452380Y-138976190D01*
X116595238Y-139071428D01*
X116690476Y-139166666D01*
X116738095Y-139261904D01*
X116547619Y-138309523D02*
X116500000Y-138261904D01*
X116452380Y-138166666D01*
X116452380Y-137928571D01*
X116500000Y-137833333D01*
X116547619Y-137785714D01*
X116642857Y-137738095D01*
X116738095Y-137738095D01*
X116880952Y-137785714D01*
X117452380Y-138357142D01*
X117452380Y-137738095D01*
%TO.C,R13*%
X122452380Y-148642857D02*
X121976190Y-148976190D01*
X122452380Y-149214285D02*
X121452380Y-149214285D01*
X121452380Y-148833333D01*
X121500000Y-148738095D01*
X121547619Y-148690476D01*
X121642857Y-148642857D01*
X121785714Y-148642857D01*
X121880952Y-148690476D01*
X121928571Y-148738095D01*
X121976190Y-148833333D01*
X121976190Y-149214285D01*
X122452380Y-147690476D02*
X122452380Y-148261904D01*
X122452380Y-147976190D02*
X121452380Y-147976190D01*
X121595238Y-148071428D01*
X121690476Y-148166666D01*
X121738095Y-148261904D01*
X121452380Y-147357142D02*
X121452380Y-146738095D01*
X121833333Y-147071428D01*
X121833333Y-146928571D01*
X121880952Y-146833333D01*
X121928571Y-146785714D01*
X122023809Y-146738095D01*
X122261904Y-146738095D01*
X122357142Y-146785714D01*
X122404761Y-146833333D01*
X122452380Y-146928571D01*
X122452380Y-147214285D01*
X122404761Y-147309523D01*
X122357142Y-147357142D01*
%TO.C,R14*%
X97657142Y-122982380D02*
X97323809Y-122506190D01*
X97085714Y-122982380D02*
X97085714Y-121982380D01*
X97466666Y-121982380D01*
X97561904Y-122030000D01*
X97609523Y-122077619D01*
X97657142Y-122172857D01*
X97657142Y-122315714D01*
X97609523Y-122410952D01*
X97561904Y-122458571D01*
X97466666Y-122506190D01*
X97085714Y-122506190D01*
X98609523Y-122982380D02*
X98038095Y-122982380D01*
X98323809Y-122982380D02*
X98323809Y-121982380D01*
X98228571Y-122125238D01*
X98133333Y-122220476D01*
X98038095Y-122268095D01*
X99466666Y-122315714D02*
X99466666Y-122982380D01*
X99228571Y-121934761D02*
X98990476Y-122649047D01*
X99609523Y-122649047D01*
%TO.C,R15*%
X110357142Y-131022380D02*
X110023809Y-130546190D01*
X109785714Y-131022380D02*
X109785714Y-130022380D01*
X110166666Y-130022380D01*
X110261904Y-130070000D01*
X110309523Y-130117619D01*
X110357142Y-130212857D01*
X110357142Y-130355714D01*
X110309523Y-130450952D01*
X110261904Y-130498571D01*
X110166666Y-130546190D01*
X109785714Y-130546190D01*
X111309523Y-131022380D02*
X110738095Y-131022380D01*
X111023809Y-131022380D02*
X111023809Y-130022380D01*
X110928571Y-130165238D01*
X110833333Y-130260476D01*
X110738095Y-130308095D01*
X112214285Y-130022380D02*
X111738095Y-130022380D01*
X111690476Y-130498571D01*
X111738095Y-130450952D01*
X111833333Y-130403333D01*
X112071428Y-130403333D01*
X112166666Y-130450952D01*
X112214285Y-130498571D01*
X112261904Y-130593809D01*
X112261904Y-130831904D01*
X112214285Y-130927142D01*
X112166666Y-130974761D01*
X112071428Y-131022380D01*
X111833333Y-131022380D01*
X111738095Y-130974761D01*
X111690476Y-130927142D01*
%TO.C,R16*%
X108757142Y-144022380D02*
X108423809Y-143546190D01*
X108185714Y-144022380D02*
X108185714Y-143022380D01*
X108566666Y-143022380D01*
X108661904Y-143070000D01*
X108709523Y-143117619D01*
X108757142Y-143212857D01*
X108757142Y-143355714D01*
X108709523Y-143450952D01*
X108661904Y-143498571D01*
X108566666Y-143546190D01*
X108185714Y-143546190D01*
X109709523Y-144022380D02*
X109138095Y-144022380D01*
X109423809Y-144022380D02*
X109423809Y-143022380D01*
X109328571Y-143165238D01*
X109233333Y-143260476D01*
X109138095Y-143308095D01*
X110566666Y-143022380D02*
X110376190Y-143022380D01*
X110280952Y-143070000D01*
X110233333Y-143117619D01*
X110138095Y-143260476D01*
X110090476Y-143450952D01*
X110090476Y-143831904D01*
X110138095Y-143927142D01*
X110185714Y-143974761D01*
X110280952Y-144022380D01*
X110471428Y-144022380D01*
X110566666Y-143974761D01*
X110614285Y-143927142D01*
X110661904Y-143831904D01*
X110661904Y-143593809D01*
X110614285Y-143498571D01*
X110566666Y-143450952D01*
X110471428Y-143403333D01*
X110280952Y-143403333D01*
X110185714Y-143450952D01*
X110138095Y-143498571D01*
X110090476Y-143593809D01*
%TO.C,R17*%
X75382380Y-147342857D02*
X74906190Y-147676190D01*
X75382380Y-147914285D02*
X74382380Y-147914285D01*
X74382380Y-147533333D01*
X74430000Y-147438095D01*
X74477619Y-147390476D01*
X74572857Y-147342857D01*
X74715714Y-147342857D01*
X74810952Y-147390476D01*
X74858571Y-147438095D01*
X74906190Y-147533333D01*
X74906190Y-147914285D01*
X75382380Y-146390476D02*
X75382380Y-146961904D01*
X75382380Y-146676190D02*
X74382380Y-146676190D01*
X74525238Y-146771428D01*
X74620476Y-146866666D01*
X74668095Y-146961904D01*
X74382380Y-146057142D02*
X74382380Y-145390476D01*
X75382380Y-145819047D01*
%TO.C,R18*%
X87257142Y-140552380D02*
X86923809Y-140076190D01*
X86685714Y-140552380D02*
X86685714Y-139552380D01*
X87066666Y-139552380D01*
X87161904Y-139600000D01*
X87209523Y-139647619D01*
X87257142Y-139742857D01*
X87257142Y-139885714D01*
X87209523Y-139980952D01*
X87161904Y-140028571D01*
X87066666Y-140076190D01*
X86685714Y-140076190D01*
X88209523Y-140552380D02*
X87638095Y-140552380D01*
X87923809Y-140552380D02*
X87923809Y-139552380D01*
X87828571Y-139695238D01*
X87733333Y-139790476D01*
X87638095Y-139838095D01*
X88780952Y-139980952D02*
X88685714Y-139933333D01*
X88638095Y-139885714D01*
X88590476Y-139790476D01*
X88590476Y-139742857D01*
X88638095Y-139647619D01*
X88685714Y-139600000D01*
X88780952Y-139552380D01*
X88971428Y-139552380D01*
X89066666Y-139600000D01*
X89114285Y-139647619D01*
X89161904Y-139742857D01*
X89161904Y-139790476D01*
X89114285Y-139885714D01*
X89066666Y-139933333D01*
X88971428Y-139980952D01*
X88780952Y-139980952D01*
X88685714Y-140028571D01*
X88638095Y-140076190D01*
X88590476Y-140171428D01*
X88590476Y-140361904D01*
X88638095Y-140457142D01*
X88685714Y-140504761D01*
X88780952Y-140552380D01*
X88971428Y-140552380D01*
X89066666Y-140504761D01*
X89114285Y-140457142D01*
X89161904Y-140361904D01*
X89161904Y-140171428D01*
X89114285Y-140076190D01*
X89066666Y-140028571D01*
X88971428Y-139980952D01*
%TO.C,R19*%
X98357142Y-154452380D02*
X98023809Y-153976190D01*
X97785714Y-154452380D02*
X97785714Y-153452380D01*
X98166666Y-153452380D01*
X98261904Y-153500000D01*
X98309523Y-153547619D01*
X98357142Y-153642857D01*
X98357142Y-153785714D01*
X98309523Y-153880952D01*
X98261904Y-153928571D01*
X98166666Y-153976190D01*
X97785714Y-153976190D01*
X99309523Y-154452380D02*
X98738095Y-154452380D01*
X99023809Y-154452380D02*
X99023809Y-153452380D01*
X98928571Y-153595238D01*
X98833333Y-153690476D01*
X98738095Y-153738095D01*
X99785714Y-154452380D02*
X99976190Y-154452380D01*
X100071428Y-154404761D01*
X100119047Y-154357142D01*
X100214285Y-154214285D01*
X100261904Y-154023809D01*
X100261904Y-153642857D01*
X100214285Y-153547619D01*
X100166666Y-153500000D01*
X100071428Y-153452380D01*
X99880952Y-153452380D01*
X99785714Y-153500000D01*
X99738095Y-153547619D01*
X99690476Y-153642857D01*
X99690476Y-153880952D01*
X99738095Y-153976190D01*
X99785714Y-154023809D01*
X99880952Y-154071428D01*
X100071428Y-154071428D01*
X100166666Y-154023809D01*
X100214285Y-153976190D01*
X100261904Y-153880952D01*
%TO.C,R20*%
X87157142Y-142952380D02*
X86823809Y-142476190D01*
X86585714Y-142952380D02*
X86585714Y-141952380D01*
X86966666Y-141952380D01*
X87061904Y-142000000D01*
X87109523Y-142047619D01*
X87157142Y-142142857D01*
X87157142Y-142285714D01*
X87109523Y-142380952D01*
X87061904Y-142428571D01*
X86966666Y-142476190D01*
X86585714Y-142476190D01*
X87538095Y-142047619D02*
X87585714Y-142000000D01*
X87680952Y-141952380D01*
X87919047Y-141952380D01*
X88014285Y-142000000D01*
X88061904Y-142047619D01*
X88109523Y-142142857D01*
X88109523Y-142238095D01*
X88061904Y-142380952D01*
X87490476Y-142952380D01*
X88109523Y-142952380D01*
X88728571Y-141952380D02*
X88823809Y-141952380D01*
X88919047Y-142000000D01*
X88966666Y-142047619D01*
X89014285Y-142142857D01*
X89061904Y-142333333D01*
X89061904Y-142571428D01*
X89014285Y-142761904D01*
X88966666Y-142857142D01*
X88919047Y-142904761D01*
X88823809Y-142952380D01*
X88728571Y-142952380D01*
X88633333Y-142904761D01*
X88585714Y-142857142D01*
X88538095Y-142761904D01*
X88490476Y-142571428D01*
X88490476Y-142333333D01*
X88538095Y-142142857D01*
X88585714Y-142047619D01*
X88633333Y-142000000D01*
X88728571Y-141952380D01*
%TO.C,R21*%
X91152380Y-135842857D02*
X90676190Y-136176190D01*
X91152380Y-136414285D02*
X90152380Y-136414285D01*
X90152380Y-136033333D01*
X90200000Y-135938095D01*
X90247619Y-135890476D01*
X90342857Y-135842857D01*
X90485714Y-135842857D01*
X90580952Y-135890476D01*
X90628571Y-135938095D01*
X90676190Y-136033333D01*
X90676190Y-136414285D01*
X90247619Y-135461904D02*
X90200000Y-135414285D01*
X90152380Y-135319047D01*
X90152380Y-135080952D01*
X90200000Y-134985714D01*
X90247619Y-134938095D01*
X90342857Y-134890476D01*
X90438095Y-134890476D01*
X90580952Y-134938095D01*
X91152380Y-135509523D01*
X91152380Y-134890476D01*
X91152380Y-133938095D02*
X91152380Y-134509523D01*
X91152380Y-134223809D02*
X90152380Y-134223809D01*
X90295238Y-134319047D01*
X90390476Y-134414285D01*
X90438095Y-134509523D01*
%TO.C,R22*%
X92257142Y-145552380D02*
X91923809Y-145076190D01*
X91685714Y-145552380D02*
X91685714Y-144552380D01*
X92066666Y-144552380D01*
X92161904Y-144600000D01*
X92209523Y-144647619D01*
X92257142Y-144742857D01*
X92257142Y-144885714D01*
X92209523Y-144980952D01*
X92161904Y-145028571D01*
X92066666Y-145076190D01*
X91685714Y-145076190D01*
X92638095Y-144647619D02*
X92685714Y-144600000D01*
X92780952Y-144552380D01*
X93019047Y-144552380D01*
X93114285Y-144600000D01*
X93161904Y-144647619D01*
X93209523Y-144742857D01*
X93209523Y-144838095D01*
X93161904Y-144980952D01*
X92590476Y-145552380D01*
X93209523Y-145552380D01*
X93590476Y-144647619D02*
X93638095Y-144600000D01*
X93733333Y-144552380D01*
X93971428Y-144552380D01*
X94066666Y-144600000D01*
X94114285Y-144647619D01*
X94161904Y-144742857D01*
X94161904Y-144838095D01*
X94114285Y-144980952D01*
X93542857Y-145552380D01*
X94161904Y-145552380D01*
%TO.C,R23*%
X100457142Y-151052380D02*
X100123809Y-150576190D01*
X99885714Y-151052380D02*
X99885714Y-150052380D01*
X100266666Y-150052380D01*
X100361904Y-150100000D01*
X100409523Y-150147619D01*
X100457142Y-150242857D01*
X100457142Y-150385714D01*
X100409523Y-150480952D01*
X100361904Y-150528571D01*
X100266666Y-150576190D01*
X99885714Y-150576190D01*
X100838095Y-150147619D02*
X100885714Y-150100000D01*
X100980952Y-150052380D01*
X101219047Y-150052380D01*
X101314285Y-150100000D01*
X101361904Y-150147619D01*
X101409523Y-150242857D01*
X101409523Y-150338095D01*
X101361904Y-150480952D01*
X100790476Y-151052380D01*
X101409523Y-151052380D01*
X101742857Y-150052380D02*
X102361904Y-150052380D01*
X102028571Y-150433333D01*
X102171428Y-150433333D01*
X102266666Y-150480952D01*
X102314285Y-150528571D01*
X102361904Y-150623809D01*
X102361904Y-150861904D01*
X102314285Y-150957142D01*
X102266666Y-151004761D01*
X102171428Y-151052380D01*
X101885714Y-151052380D01*
X101790476Y-151004761D01*
X101742857Y-150957142D01*
%TO.C,R24*%
X97357142Y-151022380D02*
X97023809Y-150546190D01*
X96785714Y-151022380D02*
X96785714Y-150022380D01*
X97166666Y-150022380D01*
X97261904Y-150070000D01*
X97309523Y-150117619D01*
X97357142Y-150212857D01*
X97357142Y-150355714D01*
X97309523Y-150450952D01*
X97261904Y-150498571D01*
X97166666Y-150546190D01*
X96785714Y-150546190D01*
X97738095Y-150117619D02*
X97785714Y-150070000D01*
X97880952Y-150022380D01*
X98119047Y-150022380D01*
X98214285Y-150070000D01*
X98261904Y-150117619D01*
X98309523Y-150212857D01*
X98309523Y-150308095D01*
X98261904Y-150450952D01*
X97690476Y-151022380D01*
X98309523Y-151022380D01*
X99166666Y-150355714D02*
X99166666Y-151022380D01*
X98928571Y-149974761D02*
X98690476Y-150689047D01*
X99309523Y-150689047D01*
%TO.C,R29*%
X96357142Y-93452380D02*
X96023809Y-92976190D01*
X95785714Y-93452380D02*
X95785714Y-92452380D01*
X96166666Y-92452380D01*
X96261904Y-92500000D01*
X96309523Y-92547619D01*
X96357142Y-92642857D01*
X96357142Y-92785714D01*
X96309523Y-92880952D01*
X96261904Y-92928571D01*
X96166666Y-92976190D01*
X95785714Y-92976190D01*
X96738095Y-92547619D02*
X96785714Y-92500000D01*
X96880952Y-92452380D01*
X97119047Y-92452380D01*
X97214285Y-92500000D01*
X97261904Y-92547619D01*
X97309523Y-92642857D01*
X97309523Y-92738095D01*
X97261904Y-92880952D01*
X96690476Y-93452380D01*
X97309523Y-93452380D01*
X97785714Y-93452380D02*
X97976190Y-93452380D01*
X98071428Y-93404761D01*
X98119047Y-93357142D01*
X98214285Y-93214285D01*
X98261904Y-93023809D01*
X98261904Y-92642857D01*
X98214285Y-92547619D01*
X98166666Y-92500000D01*
X98071428Y-92452380D01*
X97880952Y-92452380D01*
X97785714Y-92500000D01*
X97738095Y-92547619D01*
X97690476Y-92642857D01*
X97690476Y-92880952D01*
X97738095Y-92976190D01*
X97785714Y-93023809D01*
X97880952Y-93071428D01*
X98071428Y-93071428D01*
X98166666Y-93023809D01*
X98214285Y-92976190D01*
X98261904Y-92880952D01*
%TO.C,R30*%
X96357142Y-91452380D02*
X96023809Y-90976190D01*
X95785714Y-91452380D02*
X95785714Y-90452380D01*
X96166666Y-90452380D01*
X96261904Y-90500000D01*
X96309523Y-90547619D01*
X96357142Y-90642857D01*
X96357142Y-90785714D01*
X96309523Y-90880952D01*
X96261904Y-90928571D01*
X96166666Y-90976190D01*
X95785714Y-90976190D01*
X96690476Y-90452380D02*
X97309523Y-90452380D01*
X96976190Y-90833333D01*
X97119047Y-90833333D01*
X97214285Y-90880952D01*
X97261904Y-90928571D01*
X97309523Y-91023809D01*
X97309523Y-91261904D01*
X97261904Y-91357142D01*
X97214285Y-91404761D01*
X97119047Y-91452380D01*
X96833333Y-91452380D01*
X96738095Y-91404761D01*
X96690476Y-91357142D01*
X97928571Y-90452380D02*
X98023809Y-90452380D01*
X98119047Y-90500000D01*
X98166666Y-90547619D01*
X98214285Y-90642857D01*
X98261904Y-90833333D01*
X98261904Y-91071428D01*
X98214285Y-91261904D01*
X98166666Y-91357142D01*
X98119047Y-91404761D01*
X98023809Y-91452380D01*
X97928571Y-91452380D01*
X97833333Y-91404761D01*
X97785714Y-91357142D01*
X97738095Y-91261904D01*
X97690476Y-91071428D01*
X97690476Y-90833333D01*
X97738095Y-90642857D01*
X97785714Y-90547619D01*
X97833333Y-90500000D01*
X97928571Y-90452380D01*
%TO.C,R31*%
X96357142Y-89452380D02*
X96023809Y-88976190D01*
X95785714Y-89452380D02*
X95785714Y-88452380D01*
X96166666Y-88452380D01*
X96261904Y-88500000D01*
X96309523Y-88547619D01*
X96357142Y-88642857D01*
X96357142Y-88785714D01*
X96309523Y-88880952D01*
X96261904Y-88928571D01*
X96166666Y-88976190D01*
X95785714Y-88976190D01*
X96690476Y-88452380D02*
X97309523Y-88452380D01*
X96976190Y-88833333D01*
X97119047Y-88833333D01*
X97214285Y-88880952D01*
X97261904Y-88928571D01*
X97309523Y-89023809D01*
X97309523Y-89261904D01*
X97261904Y-89357142D01*
X97214285Y-89404761D01*
X97119047Y-89452380D01*
X96833333Y-89452380D01*
X96738095Y-89404761D01*
X96690476Y-89357142D01*
X98261904Y-89452380D02*
X97690476Y-89452380D01*
X97976190Y-89452380D02*
X97976190Y-88452380D01*
X97880952Y-88595238D01*
X97785714Y-88690476D01*
X97690476Y-88738095D01*
%TO.C,R32*%
X64257142Y-123952380D02*
X63923809Y-123476190D01*
X63685714Y-123952380D02*
X63685714Y-122952380D01*
X64066666Y-122952380D01*
X64161904Y-123000000D01*
X64209523Y-123047619D01*
X64257142Y-123142857D01*
X64257142Y-123285714D01*
X64209523Y-123380952D01*
X64161904Y-123428571D01*
X64066666Y-123476190D01*
X63685714Y-123476190D01*
X64590476Y-122952380D02*
X65209523Y-122952380D01*
X64876190Y-123333333D01*
X65019047Y-123333333D01*
X65114285Y-123380952D01*
X65161904Y-123428571D01*
X65209523Y-123523809D01*
X65209523Y-123761904D01*
X65161904Y-123857142D01*
X65114285Y-123904761D01*
X65019047Y-123952380D01*
X64733333Y-123952380D01*
X64638095Y-123904761D01*
X64590476Y-123857142D01*
X65590476Y-123047619D02*
X65638095Y-123000000D01*
X65733333Y-122952380D01*
X65971428Y-122952380D01*
X66066666Y-123000000D01*
X66114285Y-123047619D01*
X66161904Y-123142857D01*
X66161904Y-123238095D01*
X66114285Y-123380952D01*
X65542857Y-123952380D01*
X66161904Y-123952380D01*
%TO.C,R33*%
X75157142Y-117522380D02*
X74823809Y-117046190D01*
X74585714Y-117522380D02*
X74585714Y-116522380D01*
X74966666Y-116522380D01*
X75061904Y-116570000D01*
X75109523Y-116617619D01*
X75157142Y-116712857D01*
X75157142Y-116855714D01*
X75109523Y-116950952D01*
X75061904Y-116998571D01*
X74966666Y-117046190D01*
X74585714Y-117046190D01*
X75490476Y-116522380D02*
X76109523Y-116522380D01*
X75776190Y-116903333D01*
X75919047Y-116903333D01*
X76014285Y-116950952D01*
X76061904Y-116998571D01*
X76109523Y-117093809D01*
X76109523Y-117331904D01*
X76061904Y-117427142D01*
X76014285Y-117474761D01*
X75919047Y-117522380D01*
X75633333Y-117522380D01*
X75538095Y-117474761D01*
X75490476Y-117427142D01*
X76442857Y-116522380D02*
X77061904Y-116522380D01*
X76728571Y-116903333D01*
X76871428Y-116903333D01*
X76966666Y-116950952D01*
X77014285Y-116998571D01*
X77061904Y-117093809D01*
X77061904Y-117331904D01*
X77014285Y-117427142D01*
X76966666Y-117474761D01*
X76871428Y-117522380D01*
X76585714Y-117522380D01*
X76490476Y-117474761D01*
X76442857Y-117427142D01*
%TO.C,R34*%
X82952380Y-78742857D02*
X82476190Y-79076190D01*
X82952380Y-79314285D02*
X81952380Y-79314285D01*
X81952380Y-78933333D01*
X82000000Y-78838095D01*
X82047619Y-78790476D01*
X82142857Y-78742857D01*
X82285714Y-78742857D01*
X82380952Y-78790476D01*
X82428571Y-78838095D01*
X82476190Y-78933333D01*
X82476190Y-79314285D01*
X81952380Y-78409523D02*
X81952380Y-77790476D01*
X82333333Y-78123809D01*
X82333333Y-77980952D01*
X82380952Y-77885714D01*
X82428571Y-77838095D01*
X82523809Y-77790476D01*
X82761904Y-77790476D01*
X82857142Y-77838095D01*
X82904761Y-77885714D01*
X82952380Y-77980952D01*
X82952380Y-78266666D01*
X82904761Y-78361904D01*
X82857142Y-78409523D01*
X82285714Y-76933333D02*
X82952380Y-76933333D01*
X81904761Y-77171428D02*
X82619047Y-77409523D01*
X82619047Y-76790476D01*
%TO.C,R35*%
X89252380Y-78742857D02*
X88776190Y-79076190D01*
X89252380Y-79314285D02*
X88252380Y-79314285D01*
X88252380Y-78933333D01*
X88300000Y-78838095D01*
X88347619Y-78790476D01*
X88442857Y-78742857D01*
X88585714Y-78742857D01*
X88680952Y-78790476D01*
X88728571Y-78838095D01*
X88776190Y-78933333D01*
X88776190Y-79314285D01*
X88252380Y-78409523D02*
X88252380Y-77790476D01*
X88633333Y-78123809D01*
X88633333Y-77980952D01*
X88680952Y-77885714D01*
X88728571Y-77838095D01*
X88823809Y-77790476D01*
X89061904Y-77790476D01*
X89157142Y-77838095D01*
X89204761Y-77885714D01*
X89252380Y-77980952D01*
X89252380Y-78266666D01*
X89204761Y-78361904D01*
X89157142Y-78409523D01*
X88252380Y-76885714D02*
X88252380Y-77361904D01*
X88728571Y-77409523D01*
X88680952Y-77361904D01*
X88633333Y-77266666D01*
X88633333Y-77028571D01*
X88680952Y-76933333D01*
X88728571Y-76885714D01*
X88823809Y-76838095D01*
X89061904Y-76838095D01*
X89157142Y-76885714D01*
X89204761Y-76933333D01*
X89252380Y-77028571D01*
X89252380Y-77266666D01*
X89204761Y-77361904D01*
X89157142Y-77409523D01*
%TO.C,R36*%
X139282380Y-119642857D02*
X138806190Y-119976190D01*
X139282380Y-120214285D02*
X138282380Y-120214285D01*
X138282380Y-119833333D01*
X138330000Y-119738095D01*
X138377619Y-119690476D01*
X138472857Y-119642857D01*
X138615714Y-119642857D01*
X138710952Y-119690476D01*
X138758571Y-119738095D01*
X138806190Y-119833333D01*
X138806190Y-120214285D01*
X138282380Y-119309523D02*
X138282380Y-118690476D01*
X138663333Y-119023809D01*
X138663333Y-118880952D01*
X138710952Y-118785714D01*
X138758571Y-118738095D01*
X138853809Y-118690476D01*
X139091904Y-118690476D01*
X139187142Y-118738095D01*
X139234761Y-118785714D01*
X139282380Y-118880952D01*
X139282380Y-119166666D01*
X139234761Y-119261904D01*
X139187142Y-119309523D01*
X138282380Y-117833333D02*
X138282380Y-118023809D01*
X138330000Y-118119047D01*
X138377619Y-118166666D01*
X138520476Y-118261904D01*
X138710952Y-118309523D01*
X139091904Y-118309523D01*
X139187142Y-118261904D01*
X139234761Y-118214285D01*
X139282380Y-118119047D01*
X139282380Y-117928571D01*
X139234761Y-117833333D01*
X139187142Y-117785714D01*
X139091904Y-117738095D01*
X138853809Y-117738095D01*
X138758571Y-117785714D01*
X138710952Y-117833333D01*
X138663333Y-117928571D01*
X138663333Y-118119047D01*
X138710952Y-118214285D01*
X138758571Y-118261904D01*
X138853809Y-118309523D01*
%TO.C,R37*%
X96357142Y-87452380D02*
X96023809Y-86976190D01*
X95785714Y-87452380D02*
X95785714Y-86452380D01*
X96166666Y-86452380D01*
X96261904Y-86500000D01*
X96309523Y-86547619D01*
X96357142Y-86642857D01*
X96357142Y-86785714D01*
X96309523Y-86880952D01*
X96261904Y-86928571D01*
X96166666Y-86976190D01*
X95785714Y-86976190D01*
X96690476Y-86452380D02*
X97309523Y-86452380D01*
X96976190Y-86833333D01*
X97119047Y-86833333D01*
X97214285Y-86880952D01*
X97261904Y-86928571D01*
X97309523Y-87023809D01*
X97309523Y-87261904D01*
X97261904Y-87357142D01*
X97214285Y-87404761D01*
X97119047Y-87452380D01*
X96833333Y-87452380D01*
X96738095Y-87404761D01*
X96690476Y-87357142D01*
X97642857Y-86452380D02*
X98309523Y-86452380D01*
X97880952Y-87452380D01*
%TO.C,R38*%
X117257142Y-83052380D02*
X116923809Y-82576190D01*
X116685714Y-83052380D02*
X116685714Y-82052380D01*
X117066666Y-82052380D01*
X117161904Y-82100000D01*
X117209523Y-82147619D01*
X117257142Y-82242857D01*
X117257142Y-82385714D01*
X117209523Y-82480952D01*
X117161904Y-82528571D01*
X117066666Y-82576190D01*
X116685714Y-82576190D01*
X117590476Y-82052380D02*
X118209523Y-82052380D01*
X117876190Y-82433333D01*
X118019047Y-82433333D01*
X118114285Y-82480952D01*
X118161904Y-82528571D01*
X118209523Y-82623809D01*
X118209523Y-82861904D01*
X118161904Y-82957142D01*
X118114285Y-83004761D01*
X118019047Y-83052380D01*
X117733333Y-83052380D01*
X117638095Y-83004761D01*
X117590476Y-82957142D01*
X118780952Y-82480952D02*
X118685714Y-82433333D01*
X118638095Y-82385714D01*
X118590476Y-82290476D01*
X118590476Y-82242857D01*
X118638095Y-82147619D01*
X118685714Y-82100000D01*
X118780952Y-82052380D01*
X118971428Y-82052380D01*
X119066666Y-82100000D01*
X119114285Y-82147619D01*
X119161904Y-82242857D01*
X119161904Y-82290476D01*
X119114285Y-82385714D01*
X119066666Y-82433333D01*
X118971428Y-82480952D01*
X118780952Y-82480952D01*
X118685714Y-82528571D01*
X118638095Y-82576190D01*
X118590476Y-82671428D01*
X118590476Y-82861904D01*
X118638095Y-82957142D01*
X118685714Y-83004761D01*
X118780952Y-83052380D01*
X118971428Y-83052380D01*
X119066666Y-83004761D01*
X119114285Y-82957142D01*
X119161904Y-82861904D01*
X119161904Y-82671428D01*
X119114285Y-82576190D01*
X119066666Y-82528571D01*
X118971428Y-82480952D01*
%TO.C,R39*%
X120357142Y-86452380D02*
X120023809Y-85976190D01*
X119785714Y-86452380D02*
X119785714Y-85452380D01*
X120166666Y-85452380D01*
X120261904Y-85500000D01*
X120309523Y-85547619D01*
X120357142Y-85642857D01*
X120357142Y-85785714D01*
X120309523Y-85880952D01*
X120261904Y-85928571D01*
X120166666Y-85976190D01*
X119785714Y-85976190D01*
X120690476Y-85452380D02*
X121309523Y-85452380D01*
X120976190Y-85833333D01*
X121119047Y-85833333D01*
X121214285Y-85880952D01*
X121261904Y-85928571D01*
X121309523Y-86023809D01*
X121309523Y-86261904D01*
X121261904Y-86357142D01*
X121214285Y-86404761D01*
X121119047Y-86452380D01*
X120833333Y-86452380D01*
X120738095Y-86404761D01*
X120690476Y-86357142D01*
X121785714Y-86452380D02*
X121976190Y-86452380D01*
X122071428Y-86404761D01*
X122119047Y-86357142D01*
X122214285Y-86214285D01*
X122261904Y-86023809D01*
X122261904Y-85642857D01*
X122214285Y-85547619D01*
X122166666Y-85500000D01*
X122071428Y-85452380D01*
X121880952Y-85452380D01*
X121785714Y-85500000D01*
X121738095Y-85547619D01*
X121690476Y-85642857D01*
X121690476Y-85880952D01*
X121738095Y-85976190D01*
X121785714Y-86023809D01*
X121880952Y-86071428D01*
X122071428Y-86071428D01*
X122166666Y-86023809D01*
X122214285Y-85976190D01*
X122261904Y-85880952D01*
%TO.C,R40*%
X117357142Y-92752380D02*
X117023809Y-92276190D01*
X116785714Y-92752380D02*
X116785714Y-91752380D01*
X117166666Y-91752380D01*
X117261904Y-91800000D01*
X117309523Y-91847619D01*
X117357142Y-91942857D01*
X117357142Y-92085714D01*
X117309523Y-92180952D01*
X117261904Y-92228571D01*
X117166666Y-92276190D01*
X116785714Y-92276190D01*
X118214285Y-92085714D02*
X118214285Y-92752380D01*
X117976190Y-91704761D02*
X117738095Y-92419047D01*
X118357142Y-92419047D01*
X118928571Y-91752380D02*
X119023809Y-91752380D01*
X119119047Y-91800000D01*
X119166666Y-91847619D01*
X119214285Y-91942857D01*
X119261904Y-92133333D01*
X119261904Y-92371428D01*
X119214285Y-92561904D01*
X119166666Y-92657142D01*
X119119047Y-92704761D01*
X119023809Y-92752380D01*
X118928571Y-92752380D01*
X118833333Y-92704761D01*
X118785714Y-92657142D01*
X118738095Y-92561904D01*
X118690476Y-92371428D01*
X118690476Y-92133333D01*
X118738095Y-91942857D01*
X118785714Y-91847619D01*
X118833333Y-91800000D01*
X118928571Y-91752380D01*
%TO.C,R41*%
X111452380Y-79642857D02*
X110976190Y-79976190D01*
X111452380Y-80214285D02*
X110452380Y-80214285D01*
X110452380Y-79833333D01*
X110500000Y-79738095D01*
X110547619Y-79690476D01*
X110642857Y-79642857D01*
X110785714Y-79642857D01*
X110880952Y-79690476D01*
X110928571Y-79738095D01*
X110976190Y-79833333D01*
X110976190Y-80214285D01*
X110785714Y-78785714D02*
X111452380Y-78785714D01*
X110404761Y-79023809D02*
X111119047Y-79261904D01*
X111119047Y-78642857D01*
X111452380Y-77738095D02*
X111452380Y-78309523D01*
X111452380Y-78023809D02*
X110452380Y-78023809D01*
X110595238Y-78119047D01*
X110690476Y-78214285D01*
X110738095Y-78309523D01*
%TO.C,R42*%
X88257142Y-111952380D02*
X87923809Y-111476190D01*
X87685714Y-111952380D02*
X87685714Y-110952380D01*
X88066666Y-110952380D01*
X88161904Y-111000000D01*
X88209523Y-111047619D01*
X88257142Y-111142857D01*
X88257142Y-111285714D01*
X88209523Y-111380952D01*
X88161904Y-111428571D01*
X88066666Y-111476190D01*
X87685714Y-111476190D01*
X89114285Y-111285714D02*
X89114285Y-111952380D01*
X88876190Y-110904761D02*
X88638095Y-111619047D01*
X89257142Y-111619047D01*
X89590476Y-111047619D02*
X89638095Y-111000000D01*
X89733333Y-110952380D01*
X89971428Y-110952380D01*
X90066666Y-111000000D01*
X90114285Y-111047619D01*
X90161904Y-111142857D01*
X90161904Y-111238095D01*
X90114285Y-111380952D01*
X89542857Y-111952380D01*
X90161904Y-111952380D01*
%TO.C,R43*%
X86357142Y-84452380D02*
X86023809Y-83976190D01*
X85785714Y-84452380D02*
X85785714Y-83452380D01*
X86166666Y-83452380D01*
X86261904Y-83500000D01*
X86309523Y-83547619D01*
X86357142Y-83642857D01*
X86357142Y-83785714D01*
X86309523Y-83880952D01*
X86261904Y-83928571D01*
X86166666Y-83976190D01*
X85785714Y-83976190D01*
X87214285Y-83785714D02*
X87214285Y-84452380D01*
X86976190Y-83404761D02*
X86738095Y-84119047D01*
X87357142Y-84119047D01*
X87642857Y-83452380D02*
X88261904Y-83452380D01*
X87928571Y-83833333D01*
X88071428Y-83833333D01*
X88166666Y-83880952D01*
X88214285Y-83928571D01*
X88261904Y-84023809D01*
X88261904Y-84261904D01*
X88214285Y-84357142D01*
X88166666Y-84404761D01*
X88071428Y-84452380D01*
X87785714Y-84452380D01*
X87690476Y-84404761D01*
X87642857Y-84357142D01*
%TO.C,R44*%
X109357142Y-100452380D02*
X109023809Y-99976190D01*
X108785714Y-100452380D02*
X108785714Y-99452380D01*
X109166666Y-99452380D01*
X109261904Y-99500000D01*
X109309523Y-99547619D01*
X109357142Y-99642857D01*
X109357142Y-99785714D01*
X109309523Y-99880952D01*
X109261904Y-99928571D01*
X109166666Y-99976190D01*
X108785714Y-99976190D01*
X110214285Y-99785714D02*
X110214285Y-100452380D01*
X109976190Y-99404761D02*
X109738095Y-100119047D01*
X110357142Y-100119047D01*
X111166666Y-99785714D02*
X111166666Y-100452380D01*
X110928571Y-99404761D02*
X110690476Y-100119047D01*
X111309523Y-100119047D01*
%TO.C,R45*%
X117157142Y-88152380D02*
X116823809Y-87676190D01*
X116585714Y-88152380D02*
X116585714Y-87152380D01*
X116966666Y-87152380D01*
X117061904Y-87200000D01*
X117109523Y-87247619D01*
X117157142Y-87342857D01*
X117157142Y-87485714D01*
X117109523Y-87580952D01*
X117061904Y-87628571D01*
X116966666Y-87676190D01*
X116585714Y-87676190D01*
X118014285Y-87485714D02*
X118014285Y-88152380D01*
X117776190Y-87104761D02*
X117538095Y-87819047D01*
X118157142Y-87819047D01*
X119014285Y-87152380D02*
X118538095Y-87152380D01*
X118490476Y-87628571D01*
X118538095Y-87580952D01*
X118633333Y-87533333D01*
X118871428Y-87533333D01*
X118966666Y-87580952D01*
X119014285Y-87628571D01*
X119061904Y-87723809D01*
X119061904Y-87961904D01*
X119014285Y-88057142D01*
X118966666Y-88104761D01*
X118871428Y-88152380D01*
X118633333Y-88152380D01*
X118538095Y-88104761D01*
X118490476Y-88057142D01*
%TO.C,R46*%
X91357142Y-77352380D02*
X91023809Y-76876190D01*
X90785714Y-77352380D02*
X90785714Y-76352380D01*
X91166666Y-76352380D01*
X91261904Y-76400000D01*
X91309523Y-76447619D01*
X91357142Y-76542857D01*
X91357142Y-76685714D01*
X91309523Y-76780952D01*
X91261904Y-76828571D01*
X91166666Y-76876190D01*
X90785714Y-76876190D01*
X92214285Y-76685714D02*
X92214285Y-77352380D01*
X91976190Y-76304761D02*
X91738095Y-77019047D01*
X92357142Y-77019047D01*
X93166666Y-76352380D02*
X92976190Y-76352380D01*
X92880952Y-76400000D01*
X92833333Y-76447619D01*
X92738095Y-76590476D01*
X92690476Y-76780952D01*
X92690476Y-77161904D01*
X92738095Y-77257142D01*
X92785714Y-77304761D01*
X92880952Y-77352380D01*
X93071428Y-77352380D01*
X93166666Y-77304761D01*
X93214285Y-77257142D01*
X93261904Y-77161904D01*
X93261904Y-76923809D01*
X93214285Y-76828571D01*
X93166666Y-76780952D01*
X93071428Y-76733333D01*
X92880952Y-76733333D01*
X92785714Y-76780952D01*
X92738095Y-76828571D01*
X92690476Y-76923809D01*
%TO.C,R48*%
X139657142Y-106752380D02*
X139323809Y-106276190D01*
X139085714Y-106752380D02*
X139085714Y-105752380D01*
X139466666Y-105752380D01*
X139561904Y-105800000D01*
X139609523Y-105847619D01*
X139657142Y-105942857D01*
X139657142Y-106085714D01*
X139609523Y-106180952D01*
X139561904Y-106228571D01*
X139466666Y-106276190D01*
X139085714Y-106276190D01*
X140514285Y-106085714D02*
X140514285Y-106752380D01*
X140276190Y-105704761D02*
X140038095Y-106419047D01*
X140657142Y-106419047D01*
X141180952Y-106180952D02*
X141085714Y-106133333D01*
X141038095Y-106085714D01*
X140990476Y-105990476D01*
X140990476Y-105942857D01*
X141038095Y-105847619D01*
X141085714Y-105800000D01*
X141180952Y-105752380D01*
X141371428Y-105752380D01*
X141466666Y-105800000D01*
X141514285Y-105847619D01*
X141561904Y-105942857D01*
X141561904Y-105990476D01*
X141514285Y-106085714D01*
X141466666Y-106133333D01*
X141371428Y-106180952D01*
X141180952Y-106180952D01*
X141085714Y-106228571D01*
X141038095Y-106276190D01*
X140990476Y-106371428D01*
X140990476Y-106561904D01*
X141038095Y-106657142D01*
X141085714Y-106704761D01*
X141180952Y-106752380D01*
X141371428Y-106752380D01*
X141466666Y-106704761D01*
X141514285Y-106657142D01*
X141561904Y-106561904D01*
X141561904Y-106371428D01*
X141514285Y-106276190D01*
X141466666Y-106228571D01*
X141371428Y-106180952D01*
%TO.C,R51*%
X138452380Y-104342857D02*
X137976190Y-104676190D01*
X138452380Y-104914285D02*
X137452380Y-104914285D01*
X137452380Y-104533333D01*
X137500000Y-104438095D01*
X137547619Y-104390476D01*
X137642857Y-104342857D01*
X137785714Y-104342857D01*
X137880952Y-104390476D01*
X137928571Y-104438095D01*
X137976190Y-104533333D01*
X137976190Y-104914285D01*
X137452380Y-103438095D02*
X137452380Y-103914285D01*
X137928571Y-103961904D01*
X137880952Y-103914285D01*
X137833333Y-103819047D01*
X137833333Y-103580952D01*
X137880952Y-103485714D01*
X137928571Y-103438095D01*
X138023809Y-103390476D01*
X138261904Y-103390476D01*
X138357142Y-103438095D01*
X138404761Y-103485714D01*
X138452380Y-103580952D01*
X138452380Y-103819047D01*
X138404761Y-103914285D01*
X138357142Y-103961904D01*
X138452380Y-102438095D02*
X138452380Y-103009523D01*
X138452380Y-102723809D02*
X137452380Y-102723809D01*
X137595238Y-102819047D01*
X137690476Y-102914285D01*
X137738095Y-103009523D01*
%TO.C,R52*%
X104357142Y-87452380D02*
X104023809Y-86976190D01*
X103785714Y-87452380D02*
X103785714Y-86452380D01*
X104166666Y-86452380D01*
X104261904Y-86500000D01*
X104309523Y-86547619D01*
X104357142Y-86642857D01*
X104357142Y-86785714D01*
X104309523Y-86880952D01*
X104261904Y-86928571D01*
X104166666Y-86976190D01*
X103785714Y-86976190D01*
X105261904Y-86452380D02*
X104785714Y-86452380D01*
X104738095Y-86928571D01*
X104785714Y-86880952D01*
X104880952Y-86833333D01*
X105119047Y-86833333D01*
X105214285Y-86880952D01*
X105261904Y-86928571D01*
X105309523Y-87023809D01*
X105309523Y-87261904D01*
X105261904Y-87357142D01*
X105214285Y-87404761D01*
X105119047Y-87452380D01*
X104880952Y-87452380D01*
X104785714Y-87404761D01*
X104738095Y-87357142D01*
X105690476Y-86547619D02*
X105738095Y-86500000D01*
X105833333Y-86452380D01*
X106071428Y-86452380D01*
X106166666Y-86500000D01*
X106214285Y-86547619D01*
X106261904Y-86642857D01*
X106261904Y-86738095D01*
X106214285Y-86880952D01*
X105642857Y-87452380D01*
X106261904Y-87452380D01*
%TO.C,U4*%
X100752380Y-155961904D02*
X101561904Y-155961904D01*
X101657142Y-155914285D01*
X101704761Y-155866666D01*
X101752380Y-155771428D01*
X101752380Y-155580952D01*
X101704761Y-155485714D01*
X101657142Y-155438095D01*
X101561904Y-155390476D01*
X100752380Y-155390476D01*
X101085714Y-154485714D02*
X101752380Y-154485714D01*
X100704761Y-154723809D02*
X101419047Y-154961904D01*
X101419047Y-154342857D01*
%TO.C,U5*%
X74052380Y-99861904D02*
X74861904Y-99861904D01*
X74957142Y-99814285D01*
X75004761Y-99766666D01*
X75052380Y-99671428D01*
X75052380Y-99480952D01*
X75004761Y-99385714D01*
X74957142Y-99338095D01*
X74861904Y-99290476D01*
X74052380Y-99290476D01*
X74052380Y-98338095D02*
X74052380Y-98814285D01*
X74528571Y-98861904D01*
X74480952Y-98814285D01*
X74433333Y-98719047D01*
X74433333Y-98480952D01*
X74480952Y-98385714D01*
X74528571Y-98338095D01*
X74623809Y-98290476D01*
X74861904Y-98290476D01*
X74957142Y-98338095D01*
X75004761Y-98385714D01*
X75052380Y-98480952D01*
X75052380Y-98719047D01*
X75004761Y-98814285D01*
X74957142Y-98861904D01*
%TO.C,U6*%
X107252380Y-87561904D02*
X108061904Y-87561904D01*
X108157142Y-87514285D01*
X108204761Y-87466666D01*
X108252380Y-87371428D01*
X108252380Y-87180952D01*
X108204761Y-87085714D01*
X108157142Y-87038095D01*
X108061904Y-86990476D01*
X107252380Y-86990476D01*
X107252380Y-86085714D02*
X107252380Y-86276190D01*
X107300000Y-86371428D01*
X107347619Y-86419047D01*
X107490476Y-86514285D01*
X107680952Y-86561904D01*
X108061904Y-86561904D01*
X108157142Y-86514285D01*
X108204761Y-86466666D01*
X108252380Y-86371428D01*
X108252380Y-86180952D01*
X108204761Y-86085714D01*
X108157142Y-86038095D01*
X108061904Y-85990476D01*
X107823809Y-85990476D01*
X107728571Y-86038095D01*
X107680952Y-86085714D01*
X107633333Y-86180952D01*
X107633333Y-86371428D01*
X107680952Y-86466666D01*
X107728571Y-86514285D01*
X107823809Y-86561904D01*
%TO.C,U7*%
X90438095Y-81852380D02*
X90438095Y-82661904D01*
X90485714Y-82757142D01*
X90533333Y-82804761D01*
X90628571Y-82852380D01*
X90819047Y-82852380D01*
X90914285Y-82804761D01*
X90961904Y-82757142D01*
X91009523Y-82661904D01*
X91009523Y-81852380D01*
X91390476Y-81852380D02*
X92057142Y-81852380D01*
X91628571Y-82852380D01*
%TO.C,U9*%
X86052380Y-78761904D02*
X86861904Y-78761904D01*
X86957142Y-78714285D01*
X87004761Y-78666666D01*
X87052380Y-78571428D01*
X87052380Y-78380952D01*
X87004761Y-78285714D01*
X86957142Y-78238095D01*
X86861904Y-78190476D01*
X86052380Y-78190476D01*
X87052380Y-77666666D02*
X87052380Y-77476190D01*
X87004761Y-77380952D01*
X86957142Y-77333333D01*
X86814285Y-77238095D01*
X86623809Y-77190476D01*
X86242857Y-77190476D01*
X86147619Y-77238095D01*
X86100000Y-77285714D01*
X86052380Y-77380952D01*
X86052380Y-77571428D01*
X86100000Y-77666666D01*
X86147619Y-77714285D01*
X86242857Y-77761904D01*
X86480952Y-77761904D01*
X86576190Y-77714285D01*
X86623809Y-77666666D01*
X86671428Y-77571428D01*
X86671428Y-77380952D01*
X86623809Y-77285714D01*
X86576190Y-77238095D01*
X86480952Y-77190476D01*
%TO.C,Y1*%
X116023809Y-145376190D02*
X116023809Y-145852380D01*
X115690476Y-144852380D02*
X116023809Y-145376190D01*
X116357142Y-144852380D01*
X117214285Y-145852380D02*
X116642857Y-145852380D01*
X116928571Y-145852380D02*
X116928571Y-144852380D01*
X116833333Y-144995238D01*
X116738095Y-145090476D01*
X116642857Y-145138095D01*
%TO.C,Y2*%
X82523809Y-114276190D02*
X82523809Y-114752380D01*
X82190476Y-113752380D02*
X82523809Y-114276190D01*
X82857142Y-113752380D01*
X83142857Y-113847619D02*
X83190476Y-113800000D01*
X83285714Y-113752380D01*
X83523809Y-113752380D01*
X83619047Y-113800000D01*
X83666666Y-113847619D01*
X83714285Y-113942857D01*
X83714285Y-114038095D01*
X83666666Y-114180952D01*
X83095238Y-114752380D01*
X83714285Y-114752380D01*
%TD*%
M02*
