M48
; DRILL file {KiCad 5.1.9} date Fri Mar 19 17:31:04 2021
; FORMAT={-:-/ absolute / inch / decimal}
; #@! TF.CreationDate,2021-03-19T17:31:04-04:00
; #@! TF.GenerationSoftware,Kicad,Pcbnew,5.1.9
FMAT,2
INCH
T1C0.0157
T2C0.0236
T3C0.0256
T4C0.0335
T5C0.0374
T6C0.0394
T7C0.0394
T8C0.0819
T9C0.0906
T10C0.1693
T11C0.1280
%
G90
G05
T1
X2.3661Y-4.2992
X2.3701Y-4.5906
X2.4291Y-4.7362
X2.4803Y-4.0945
X2.6969Y-4.2913
X2.6969Y-4.364
X2.7126Y-4.6693
X2.7323Y-5.6969
X2.7402Y-4.1732
X2.8661Y-4.1732
X2.8898Y-3.4882
X2.9055Y-5.8465
X2.9291Y-3.6614
X2.9409Y-4.5197
X2.9567Y-4.3504
X3.0197Y-4.3937
X3.0197Y-5.6417
X3.0295Y-3.6929
X3.0354Y-4.6457
X3.0551Y-3.4882
X3.063Y-4.1929
X3.0984Y-3.7323
X3.1102Y-4.2126
X3.2087Y-4.6024
X3.2165Y-4.0157
X3.248Y-4.2205
X3.2717Y-3.3504
X3.2756Y-5.5118
X3.2756Y-5.6063
X3.3071Y-3.9173
X3.3071Y-4.1024
X3.3307Y-2.9094
X3.3307Y-6.1457
X3.3346Y-4.1929
X3.3465Y-4.6772
X3.3504Y-4.4764
X3.3583Y-3.0866
X3.3819Y-4.5866
X3.3858Y-6.2205
X3.4016Y-4.0157
X3.4252Y-6.1417
X3.4409Y-3.3898
X3.4488Y-4.2205
X3.4528Y-3.7638
X3.4646Y-4.1732
X3.5Y-4.1102
X3.543Y-3.7717
X3.5512Y-4.1535
X3.5512Y-4.1929
X3.594Y-4.2958
X3.6102Y-3.4331
X3.6496Y-6.2362
X3.6535Y-4.5315
X3.6732Y-4.1102
X3.6772Y-4.2323
X3.689Y-3.8583
X3.6969Y-3.9449
X3.7008Y-3.1654
X3.7047Y-6.0394
X3.7441Y-4.0039
X3.748Y-3.6142
X3.7795Y-4.2953
X3.811Y-3.7087
X3.811Y-6.2638
X3.8228Y-5.7913
X3.8425Y-5.1929
X3.8465Y-5.4646
X3.8701Y-6.3228
X3.878Y-3.2441
X3.878Y-5.2913
X3.8819Y-3.1063
X3.9055Y-4.2913
X3.9213Y-6.3228
X3.9252Y-5.6693
X3.9409Y-4.7756
X3.9567Y-5.5551
X3.9724Y-6.189
X3.9754Y-6.2283
X3.9803Y-4.7126
X4.0315Y-5.626
X4.0591Y-6.0551
X4.0669Y-5.4646
X4.0827Y-4.7087
X4.0906Y-3.3031
X4.0945Y-5.9291
X4.1024Y-5.7953
X4.1035Y-6.189
X4.1035Y-6.2283
X4.1063Y-3.5236
X4.1417Y-5.5591
X4.1457Y-3.5807
X4.1663Y-3.5226
X4.2126Y-5.874
X4.2244Y-3.7874
X4.2402Y-3.311
X4.2623Y-3.5969
X4.2756Y-3.7953
X4.2953Y-3.4134
X4.3189Y-2.8937
X4.3386Y-5.5118
X4.3504Y-6.252
X4.3543Y-5.9055
X4.3583Y-6.1063
X4.3622Y-3.5079
X4.4252Y-3.1969
X4.4252Y-5.7244
X4.4331Y-5.5787
X4.5591Y-5.4252
X4.5709Y-5.6614
X4.6063Y-3.6772
X4.6063Y-4.685
X4.6102Y-3.7756
X4.627Y-4.998
X4.6461Y-4.6059
X4.7165Y-3.2638
X4.7205Y-3.4252
X4.7244Y-3.5984
X4.8268Y-3.9173
X4.8622Y-3.5906
X4.9173Y-5.7913
X5.0079Y-4.1378
X5.0197Y-3.9252
X5.0787Y-5.8031
X5.1024Y-4.1693
X5.1732Y-2.878
X5.3701Y-4.2323
X5.4213Y-4.7677
X5.7126Y-4.6811
X5.7795Y-3.7323
X5.8622Y-3.4724
X5.8819Y-3.3661
X5.9606Y-2.937
X6.0039Y-3.7126
X6.1063Y-2.9409
X6.1693Y-2.6378
X6.2087Y-3.7756
X6.2165Y-2.748
X6.252Y-2.9488
X6.3346Y-2.9055
X6.4764Y-3.6299
X6.5039Y-2.7874
X6.5039Y-3.7087
X6.5669Y-2.6299
X6.7756Y-4.4449
X6.7953Y-3.748
X6.8071Y-3.4291
X6.8346Y-3.5079
X6.8346Y-3.6575
X6.9016Y-3.9921
X6.9921Y-3.5827
X6.9961Y-2.7913
X7.0472Y-3.7047
X7.185Y-3.8622
X7.185Y-4.0236
T2
X2.5896Y-2.9134
X2.5896Y-6.063
X2.6268Y-2.8236
X2.6268Y-3.0032
X2.6268Y-5.9732
X2.6268Y-6.1528
X2.7165Y-2.7864
X2.7165Y-3.0404
X2.7165Y-5.936
X2.7165Y-6.19
X2.8063Y-2.8236
X2.8063Y-3.0032
X2.8063Y-5.9732
X2.8063Y-6.1528
X2.8435Y-2.9134
X2.8435Y-6.063
X7.314Y-2.9134
X7.314Y-6.063
X7.3512Y-2.8236
X7.3512Y-3.0032
X7.3512Y-5.9732
X7.3512Y-6.1528
X7.4409Y-2.7864
X7.4409Y-3.0404
X7.4409Y-5.936
X7.4409Y-6.19
X7.5307Y-2.8236
X7.5307Y-3.0032
X7.5307Y-5.9732
X7.5307Y-6.1528
X7.5679Y-2.9134
X7.5679Y-6.063
T3
X2.5197Y-3.8583
X2.5197Y-3.9083
X2.5197Y-3.9583
X2.5197Y-4.0083
X2.5197Y-4.0583
X2.5697Y-3.8583
X2.5697Y-3.9083
X2.5697Y-3.9583
X2.5697Y-4.0083
X2.5697Y-4.0583
X3.3071Y-5.9055
X3.3071Y-5.9555
X3.3071Y-6.0055
X3.3071Y-6.0555
X3.3071Y-6.1055
X3.3571Y-5.9055
X3.3571Y-5.9555
X3.3571Y-6.0055
X3.3571Y-6.0555
X3.3571Y-6.1055
T4
X6.2717Y-2.7269
X6.4685Y-2.7269
T5
X3.3858Y-2.874
X3.4843Y-2.874
X3.563Y-2.874
X3.6614Y-2.874
T6
X2.4764Y-5.0039
X2.4764Y-5.1039
X2.4764Y-5.2039
X2.4764Y-5.3039
X2.4764Y-5.4039
X2.4764Y-5.5039
X2.4764Y-5.6039
X2.4764Y-5.7039
X2.4764Y-5.8039
X2.5945Y-4.6024
X2.6378Y-5.1693
X2.6378Y-5.2693
X2.6378Y-5.3693
X2.6378Y-5.4693
X2.6378Y-5.5693
X2.6378Y-5.6693
X2.6945Y-4.6024
X2.9055Y-4.8661
X3.0055Y-4.8661
X3.1102Y-5.6299
X3.1102Y-5.7299
X3.1102Y-5.8299
X3.1102Y-5.9299
X3.3583Y-4.7717
X3.4583Y-4.7717
X3.5583Y-4.7717
X3.6583Y-4.7717
X4.0701Y-6.3386
X4.1701Y-6.3386
X4.2701Y-6.3386
X4.3307Y-2.9921
X4.3701Y-6.3386
X4.4307Y-2.9921
X4.5307Y-2.9921
X4.5472Y-4.5543
X4.5472Y-4.6543
X4.5472Y-4.7543
X4.5472Y-4.8543
X4.5472Y-4.9543
X4.626Y-6.0984
X4.626Y-6.1984
X4.6307Y-2.9921
X4.7307Y-2.9921
X4.8031Y-5.2992
X4.8031Y-5.3992
X5.0039Y-5.6835
X5.0039Y-5.7835
X5.2126Y-4.6417
X5.2126Y-4.7417
X5.8661Y-2.9528
X5.8661Y-3.0528
X5.8661Y-3.1528
X6.6717Y-4.3661
X6.7717Y-4.3661
X6.8717Y-4.3661
T7
X5.2756Y-3.9157
X5.2756Y-4.0157
X5.2756Y-4.1157
T8
X5.238Y-2.8071
X5.238Y-3.1071
X5.238Y-3.5071
T9
X3.265Y-2.7673
X3.7823Y-2.7673
T10
X2.7165Y-2.9134
X2.7165Y-6.063
X7.4409Y-2.9134
X7.4409Y-6.063
T11
X5.4331Y-2.8071
X5.4331Y-3.3071
X5.4331Y-3.5071
T2
G00X6.2323Y-2.6344
M15
G01X6.2323Y-2.6068
M16
G05
G00X6.5079Y-2.6068
M15
G01X6.5079Y-2.6344
M16
G05
T6
G00X6.7047Y-2.7854
M15
G01X6.7047Y-2.8839
M16
G05
G00X6.8406Y-2.7165
M15
G01X6.939Y-2.7165
M16
G05
G00X6.8406Y-2.9528
M15
G01X6.939Y-2.9528
M16
G05
T0
M30
